NotoFangsongKSSVertical-Regular.glyphspackage
{
glyphname = period;
layers = (
{
layerId = master01;
shapes = (
{
closed = 1;
nodes = (
(159,-7,o),
(188,10,o),
(188,61,c),
(188,113,o),
(159,129,o),
(125,129,c),
(90,129,o),
(62,113,o),
(62,61,c),
(62,10,o),
(90,-7,o),
(125,-7,c)
);
}
);
width = 250;
}
);
unicode = 46;
}
{
glyphname = zero;
layers = (
{
layerId = master01;
shapes = (
{
closed = 1;
nodes = (
(437,-10,o),
(514,137,o),
(514,358,c),
(514,580,o),
(437,724,o),
(281,724,c),
(115,724,o),
(45,580,o),
(45,359,c),
(45,137,o),
(115,-10,o),
(280,-10,c)
);
},
{
closed = 1;
nodes = (
(183,44,o),
(149,160,o),
(149,358,c),
(149,556,o),
(183,670,o),
(281,670,c),
(377,670,o),
(410,556,o),
(410,358,c),
(410,160,o),
(377,44,o),
(280,44,c)
);
}
);
width = 559;
}
);
unicode = 48;
}
{
glyphname = nine;
layers = (
{
layerId = master01;
shapes = (
{
closed = 1;
nodes = (
(421,-11,o),
(498,178,o),
(498,388,c),
(498,623,o),
(400,724,o),
(265,724,c),
(131,724,o),
(51,622,o),
(51,478,c),
(51,343,o),
(132,275,o),
(248,275,c),
(318,275,o),
(366,308,o),
(395,343,c),
(388,142,o),
(339,44,o),
(228,44,c),
(165,44,o),
(130,81,o),
(112,123,c),
(97,118,o),
(82,100,o),
(82,75,c),
(82,33,o),
(114,-11,o),
(227,-11,c)
);
},
{
closed = 1;
nodes = (
(193,334,o),
(154,378,o),
(154,488,c),
(154,605,o),
(195,669,o),
(265,669,c),
(342,669,o),
(393,593,o),
(396,415,c),
(378,372,o),
(335,334,o),
(270,334,c)
);
}
);
width = 559;
}
);
unicode = 57;
}
{
glyphname = D;
layers = (
{
layerId = master01;
shapes = (
{
closed = 1;
nodes = (
(670,276,o),
(629,144,o),
(548,50,o),
(426,0,o),
(344,0,q),
(38,0,l),
(38,42,l),
(51,42,l),
(68,42,o),
(98,47,o),
(120,62,o),
(133,90,o),
(133,114,q),
(133,604,l),
(133,626,o),
(120,653,o),
(97,667,o),
(67,672,o),
(51,672,q),
(38,672,l),
(38,714,l),
(344,714,l),
(421,714,o),
(542,667,o),
(626,576,o),
(670,443,o),
(670,358,q)
);
},
{
closed = 1;
nodes = (
(380,51,o),
(470,91,o),
(529,169,o),
(559,284,o),
(559,358,q),
(559,507,o),
(440,664,o),
(322,664,q),
(234,664,l),
(234,51,l),
(321,51,l)
);
}
);
width = 727;
}
);
unicode = 68;
}
{
glyphname = H;
layers = (
{
layerId = master01;
shapes = (
{
closed = 1;
nodes = (
(464,42,l),
(477,42,l),
(494,42,o),
(524,47,o),
(546,62,o),
(559,90,o),
(559,114,q),
(559,348,l),
(234,348,l),
(234,114,l),
(234,90,o),
(247,62,o),
(269,47,o),
(299,42,o),
(316,42,q),
(329,42,l),
(329,0,l),
(38,0,l),
(38,42,l),
(51,42,l),
(68,42,o),
(98,47,o),
(120,62,o),
(133,90,o),
(133,114,q),
(133,604,l),
(133,626,o),
(120,653,o),
(97,667,o),
(67,672,o),
(51,672,q),
(38,672,l),
(38,714,l),
(329,714,l),
(329,672,l),
(316,672,l),
(299,672,o),
(269,667,o),
(247,652,o),
(234,624,o),
(234,600,q),
(234,398,l),
(559,398,l),
(559,600,l),
(559,624,o),
(546,652,o),
(524,667,o),
(494,672,o),
(477,672,q),
(464,672,l),
(464,714,l),
(755,714,l),
(755,672,l),
(742,672,l),
(725,672,o),
(695,667,o),
(673,652,o),
(660,624,o),
(660,600,q),
(660,109,l),
(660,87,o),
(673,60,o),
(696,46,o),
(726,42,o),
(742,42,q),
(755,42,l),
(755,0,l),
(464,0,l)
);
}
);
width = 793;
}
);
unicode = 72;
}
{
glyphname = J;
layers = (
{
layerId = master01;
shapes = (
{
closed = 1;
nodes = (
(-2,-193,ls),
(85.062,-193,o),
(133,-148.846,o),
(133,-9,cs),
(133,604,ls),
(133,662.405,o),
(95.11,672,o),
(51,672,cs),
(38,672,l),
(38,714,l),
(329,714,l),
(329,672,l),
(316,672,ls),
(272.057,672,o),
(234,663.383,o),
(234,600,cs),
(234,-8,ls),
(234,-185.362,o),
(136.876,-240,o),
(6,-240,cs),
(-11,-240,l),
(-11,-193,l),
(-11,-193,l)
);
}
);
width = 357;
}
);
unicode = 74;
}
{
glyphname = K;
layers = (
{
layerId = master01;
shapes = (
{
closed = 1;
nodes = (
(457,574,o),
(479,603,o),
(491,626,o),
(496,644,o),
(496,651,q),
(496,664,o),
(472,673,o),
(447,673,q),
(447,714,l),
(668,714,l),
(668,673,l),
(651,673,o),
(619,660,o),
(587,636,o),
(554,601,o),
(534,579,q),
(389,416,l),
(600,122,l),
(629,83,o),
(682,42,o),
(710,42,q),
(712,42,l),
(712,0,l),
(701,0,l),
(651,0,o),
(586,8,o),
(542,28,o),
(510,63,o),
(491,90,q),
(319,337,l),
(234,268,l),
(234,114,l),
(234,90,o),
(247,62,o),
(269,47,o),
(299,42,o),
(316,42,q),
(329,42,l),
(329,0,l),
(38,0,l),
(38,42,l),
(51,42,l),
(67,42,o),
(97,46,o),
(120,60,o),
(133,87,o),
(133,109,q),
(133,604,l),
(133,626,o),
(120,653,o),
(97,667,o),
(67,672,o),
(51,672,q),
(38,672,l),
(38,714,l),
(329,714,l),
(329,672,l),
(316,672,l),
(299,672,o),
(269,667,o),
(247,652,o),
(234,624,o),
(234,600,q),
(234,318,l),
(441,555,l)
);
}
);
width = 700;
}
);
unicode = 75;
}
{
glyphname = M;
layers = (
{
layerId = master01;
shapes = (
{
closed = 1;
nodes = (
(634,42,l),
(637,42,ls),
(677.877,42,o),
(706.332,48.977,o),
(709,105,c),
(709,639,l),
(480,0,l),
(426,0,l),
(194,637,l),
(194,114,ls),
(194,51.586,o),
(221.701,42,o),
(266,42,cs),
(269,42,l),
(269,0,l),
(38,0,l),
(38,42,l),
(51,42,ls),
(93.634,42,o),
(133,48.394,o),
(133,109,cs),
(133,604,ls),
(133,662.405,o),
(95.11,672,o),
(51,672,cs),
(38,672,l),
(38,714,l),
(266,714,l),
(473,142,l),
(678,714,l),
(900,714,l),
(900,672,l),
(887,672,ls),
(843.057,672,o),
(805,663.383,o),
(805,600,cs),
(805,114,ls),
(805,50.617,o),
(843.057,42,o),
(887,42,cs),
(900,42,l),
(900,0,l),
(634,0,l),
(634,0,l)
);
}
);
width = 938;
}
);
unicode = 77;
}
{
glyphname = N;
layers = (
{
layerId = master01;
shapes = (
{
closed = 1;
nodes = (
(194,576,l),
(194,114,ls),
(194,50.617,o),
(232.057,42,o),
(276,42,cs),
(289,42,l),
(289,0,l),
(38,0,l),
(38,42,l),
(51,42,ls),
(94.943,42,o),
(133,50.617,o),
(133,114,cs),
(133,604,ls),
(133,662.405,o),
(95.11,672,o),
(51,672,cs),
(38,672,l),
(38,714,l),
(221,714,l),
(579,161,l),
(579,604,ls),
(579,660.928,o),
(543.711,672,o),
(497,672,cs),
(484,672,l),
(484,714,l),
(735,714,l),
(735,672,l),
(722,672,ls),
(678.057,672,o),
(640,663.383,o),
(640,600,cs),
(640,0,l),
(569,0,l),
(569,0,l)
);
}
);
width = 763;
}
);
unicode = 78;
}
{
glyphname = O;
layers = (
{
layerId = master01;
shapes = (
{
closed = 1;
nodes = (
(685,275,o),
(644,140,o),
(564,43,o),
(447,-10,o),
(371,-10,q),
(292,-10,o),
(173,43,o),
(95,140,o),
(56,276,o),
(56,359,q),
(56,442,o),
(95,577,o),
(173,673,o),
(292,725,o),
(372,725,q),
(448,725,o),
(564,673,o),
(644,577,o),
(685,441,o),
(685,358,q)
);
},
{
closed = 1;
nodes = (
(167,284,o),
(189,167,o),
(238,86,o),
(315,44,o),
(371,44,q),
(427,44,o),
(504,86,o),
(553,167,o),
(574,284,o),
(574,358,q),
(574,432,o),
(553,549,o),
(504,629,o),
(428,671,o),
(372,671,q),
(316,671,o),
(238,629,o),
(189,549,o),
(167,432,o),
(167,358,q)
);
}
);
width = 742;
}
);
unicode = 79;
}
{
glyphname = V;
layers = (
{
layerId = master01;
shapes = (
{
closed = 1;
nodes = (
(84,619,ls),
(70.929,660.828,o),
(50.05,672,o),
(13,672,cs),
(0,672,l),
(0,714,l),
(275,714,l),
(275,672,l),
(252,672,ls),
(212,672,o),
(192,657.333,o),
(192,624,cs),
(192,613.333,o),
(194.667,601.667,o),
(200,587,cs),
(310,262,ls),
(330,203.333,o),
(344.333,146,o),
(355,98,c),
(365.667,146,o),
(378.333,199.333,o),
(401,262,cs),
(511,580,ls),
(516.333,596,o),
(520,612.333,o),
(520,623,cs),
(520,657.667,o),
(498,672,o),
(454,672,cs),
(431,672,l),
(431,714,l),
(675,714,l),
(675,672,l),
(656,672,ls),
(616.138,672,o),
(601.166,660.142,o),
(580,594,cs),
(373,0,l),
(300,0,l),
(300,0,l)
);
}
);
width = 675;
}
);
unicode = 86;
}
{
glyphname = c;
layers = (
{
layerId = master01;
shapes = (
{
closed = 1;
nodes = (
(233,-10,o),
(149,21,o),
(89,87,o),
(55,191,o),
(55,265,q),
(55,345,o),
(89,453,o),
(149,519,o),
(230,546,o),
(278,546,q),
(309,546,o),
(371,534,o),
(421,508,o),
(452,470,o),
(452,444,q),
(452,409,o),
(407,381,o),
(363,381,q),
(363,404,o),
(355,446,o),
(336,478,o),
(303,496,o),
(278,496,q),
(249,496,o),
(203,475,o),
(169,422,o),
(152,333,o),
(152,266,q),
(152,160,o),
(223,55,o),
(303,55,q),
(350,55,o),
(419,94,o),
(436,125,q),
(443,119,o),
(453,100,o),
(453,86,q),
(453,69,o),
(432,35,o),
(389,7,o),
(326,-10,o),
(283,-10,q)
);
}
);
width = 492;
}
);
unicode = 99;
}
{
glyphname = f;
layers = (
{
layerId = master01;
shapes = (
{
closed = 1;
nodes = (
(336,0,l),
(27,0,l),
(27,42,l),
(40,42,l),
(57,42,o),
(87,47,o),
(109,62,o),
(122,90,o),
(122,114,q),
(122,489,l),
(31,489,l),
(31,536,l),
(122,536,l),
(122,586,l),
(122,631,o),
(146,699,o),
(192,746,o),
(258,770,o),
(299,770,q),
(338,770,o),
(392,760,o),
(424,741,o),
(439,716,o),
(439,700,q),
(439,687,o),
(427,666,o),
(405,651,o),
(375,644,o),
(357,644,q),
(357,659,o),
(351,688,o),
(335,710,o),
(310,724,o),
(291,724,q),
(270,724,o),
(241,708,o),
(223,675,o),
(216,627,o),
(216,595,q),
(216,536,l),
(357,536,l),
(357,489,l),
(216,489,l),
(216,114,l),
(216,90,o),
(229,62,o),
(251,47,o),
(281,42,o),
(298,42,q),
(336,42,l)
);
}
);
width = 369;
}
);
unicode = 102;
}
{
glyphname = i;
layers = (
{
layerId = master01;
shapes = (
{
closed = 1;
nodes = (
(81.068,42,o),
(118,48.589,o),
(118,109,cs),
(118,426,ls),
(118,484.112,o),
(81.565,494,o),
(36,494,cs),
(33,494,l),
(33,536,l),
(212,536,l),
(212,114,ls),
(212,50.617,o),
(250.057,42,o),
(294,42,cs),
(307,42,l),
(307,0,l),
(23,0,l),
(23,42,l),
(36,42,l),
(36,42,l)
);
},
{
closed = 1;
nodes = (
(104,745.457,o),
(129.731,760,o),
(161,760,cs),
(192.15,760,o),
(218,746.734,o),
(218,698,cs),
(218,656.64,o),
(194.649,636,o),
(161,636,cs),
(128.076,636,o),
(104,653.758,o),
(104,698,cs)
);
}
);
width = 320;
}
);
unicode = 105;
}
{
glyphname = j;
layers = (
{
layerId = master01;
shapes = (
{
closed = 1;
nodes = (
(202,-8,l),
(202,-75,o),
(173,-165,o),
(120,-218,o),
(47,-240,o),
(4,-240,q),
(-12,-240,l),
(-12,-193,l),
(-5,-193,l),
(22,-193,o),
(64,-175,o),
(93,-132,o),
(108,-62,o),
(108,-9,q),
(108,426,l),
(108,448,o),
(95,475,o),
(72,489,o),
(42,494,o),
(26,494,q),
(23,494,l),
(23,536,l),
(202,536,l)
);
},
{
closed = 1;
nodes = (
(94,716,o),
(103,739,o),
(118,754,o),
(139,760,o),
(151,760,q),
(163,760,o),
(184,754,o),
(199,739,o),
(208,716,o),
(208,698,q),
(208,681,o),
(199,657,o),
(184,643,o),
(163,636,o),
(151,636,q),
(139,636,o),
(118,643,o),
(103,657,o),
(94,681,o),
(94,698,q)
);
}
);
width = 300;
}
);
unicode = 106;
}
{
glyphname = m;
layers = (
{
layerId = master01;
shapes = (
{
closed = 1;
nodes = (
(297,0,l),
(28,0,l),
(28,42,l),
(41,42,l),
(58,42,o),
(86,47,o),
(107,62,o),
(118,90,o),
(118,114,q),
(118,426,l),
(118,448,o),
(106,475,o),
(86,489,o),
(58,494,o),
(41,494,q),
(38,494,l),
(38,536,l),
(195,536,l),
(208,455,l),
(213,455,l),
(228,483,o),
(261,519,o),
(299,539,o),
(340,546,o),
(364,546,q),
(388,546,o),
(432,536,o),
(470,515,o),
(500,480,o),
(509,455,q),
(517,455,l),
(532,483,o),
(567,519,o),
(607,539,o),
(650,546,o),
(674,546,q),
(712,546,o),
(772,523,o),
(814,476,o),
(837,401,o),
(837,350,q),
(837,114,l),
(837,90,o),
(849,62,o),
(869,47,o),
(897,42,o),
(914,42,q),
(917,42,l),
(917,0,l),
(743,0,l),
(743,345,l),
(743,378,o),
(732,429,o),
(707,464,o),
(667,482,o),
(638,482,q),
(607,482,o),
(564,458,o),
(538,417,o),
(527,363,o),
(527,333,q),
(527,114,l),
(527,90,o),
(539,62,o),
(559,47,o),
(587,42,o),
(604,42,q),
(607,42,l),
(607,0,l),
(433,0,l),
(433,345,l),
(433,378,o),
(422,429,o),
(397,464,o),
(357,482,o),
(328,482,q),
(295,482,o),
(251,456,o),
(224,411,o),
(212,352,o),
(212,320,q),
(212,109,l),
(212,87,o),
(225,60,o),
(248,46,o),
(277,42,o),
(294,42,q),
(297,42,l)
);
}
);
width = 945;
}
);
unicode = 109;
}
{
glyphname = n;
layers = (
{
layerId = master01;
shapes = (
{
closed = 1;
nodes = (
(297,0,l),
(28,0,l),
(28,42,l),
(36,42,l),
(53,42,o),
(83,47,o),
(105,62,o),
(118,90,o),
(118,114,q),
(118,426,l),
(118,448,o),
(105,475,o),
(83,489,o),
(53,494,o),
(36,494,q),
(33,494,l),
(33,536,l),
(195,536,l),
(208,455,l),
(213,455,l),
(229,483,o),
(263,519,o),
(302,539,o),
(345,546,o),
(369,546,q),
(409,546,o),
(471,523,o),
(514,476,o),
(537,401,o),
(537,350,q),
(537,114,l),
(537,90,o),
(548,62,o),
(569,47,o),
(597,42,o),
(614,42,q),
(617,42,l),
(617,0,l),
(443,0,l),
(443,345,l),
(443,378,o),
(431,429,o),
(405,464,o),
(363,482,o),
(333,482,q),
(299,482,o),
(252,456,o),
(224,411,o),
(212,352,o),
(212,320,q),
(212,109,l),
(212,87,o),
(225,60,o),
(248,46,o),
(277,42,o),
(294,42,q),
(297,42,l)
);
}
);
width = 645;
}
);
unicode = 110;
}
{
glyphname = o;
layers = (
{
layerId = master01;
shapes = (
{
closed = 1;
nodes = (
(522,81,o),
(440.333,-10,o),
(287,-10,cs),
(144.239,-10,o),
(55,77.803,o),
(55,269,cs),
(55,455.667,o),
(135.333,546,o),
(290,546,cs),
(433.744,546,o),
(522,456.319,o),
(522,269,cs)
);
},
{
closed = 1;
nodes = (
(152,120.351,o),
(187.439,42,o),
(289,42,cs),
(390.797,42,o),
(425,122.501,o),
(425,269,cs),
(425,418.333,o),
(389.333,493,o),
(288,493,cs),
(186.944,493,o),
(152,415.136,o),
(152,269,cs)
);
}
);
width = 577;
}
);
unicode = 111;
}
{
glyphname = p;
layers = (
{
layerId = master01;
shapes = (
{
closed = 1;
nodes = (
(233.7,482,o),
(202,412.279,o),
(202,269,cs),
(202,130.397,o),
(233.598,54,o),
(339,54,cs),
(427.05,54,o),
(462,132.329,o),
(462,270,cs),
(462,413.963,o),
(425.595,482,o),
(338,482,cs)
);
},
{
closed = 1;
nodes = (
(559,77.382,o),
(486.555,-10,o),
(355,-10,cs),
(277.438,-10,o),
(232.108,25.996,o),
(202,78,c),
(198,78,l),
(198.667,60.667,o),
(199.333,44.667,o),
(200,30,cs),
(202.523,7.289,o),
(202,-13.908,o),
(202,-35,cs),
(202,-131,ls),
(202,-191.606,o),
(241.366,-198,o),
(284,-198,cs),
(287,-198,l),
(287,-240,l),
(18,-240,l),
(18,-198,l),
(26,-198,ls),
(71.892,-198,o),
(108,-187.89,o),
(108,-126,cs),
(108,426,ls),
(108,484.405,o),
(70.11,494,o),
(26,494,cs),
(13,494,l),
(13,536,l),
(188,536,l),
(198,446,l),
(202,446,l),
(231.99,508.707,o),
(279.355,546,o),
(355,546,cs),
(485.896,546,o),
(559,459.028,o),
(559,269,cs)
);
}
);
width = 614;
}
);
unicode = 112;
}
{
glyphname = q;
layers = (
{
layerId = master01;
shapes = (
{
closed = 1;
nodes = (
(297,-240,l),
(297,-198,l),
(330,-198,l),
(347,-198,o),
(377,-193,o),
(399,-178,o),
(412,-149,o),
(412,-126,q),
(412,-40,l),
(412,-23,o),
(413,21,o),
(414,42,q),
(415,65,o),
(416,90,q),
(412,90,l),
(401,67,o),
(372,30,o),
(335,4,o),
(288,-10,o),
(259,-10,q),
(209,-10,o),
(133,23,o),
(82,91,o),
(55,195,o),
(55,267,q),
(55,339,o),
(82,445,o),
(133,513,o),
(209,546,o),
(259,546,q),
(288,546,o),
(334,533,o),
(372,510,o),
(401,478,o),
(412,458,q),
(418,458,l),
(436,536,l),
(596,536,l),
(596,494,l),
(588,494,l),
(571,494,o),
(541,489,o),
(519,474,o),
(506,445,o),
(506,422,q),
(506,-130,l),
(506,-152,o),
(519,-179,o),
(542,-193,o),
(571,-198,o),
(588,-198,q),
(596,-198,l),
(596,-240,l)
);
},
{
closed = 1;
nodes = (
(315,54,o),
(367,80,o),
(399,133,o),
(412,213,o),
(412,267,q),
(412,319,o),
(399,399,o),
(367,454,o),
(314,482,o),
(275,482,q),
(242,482,o),
(195,454,o),
(166,399,o),
(152,318,o),
(152,266,q),
(152,160,o),
(209,54,o),
(276,54,q)
);
}
);
width = 614;
}
);
unicode = 113;
}
{
glyphname = r;
layers = (
{
layerId = master01;
shapes = (
{
closed = 1;
nodes = (
(33,0,l),
(33,42,l),
(36,42,l),
(53,42,o),
(83,47,o),
(105,62,o),
(118,90,o),
(118,114,q),
(118,426,l),
(118,448,o),
(105,475,o),
(83,489,o),
(53,494,o),
(36,494,q),
(33,494,l),
(33,536,l),
(187,536,l),
(206,437,l),
(211,437,l),
(221,459,o),
(241,499,o),
(271,529,o),
(315,546,o),
(348,546,q),
(403,546,o),
(456,508,o),
(456,473,q),
(456,458,o),
(446,431,o),
(423,412,o),
(388,402,o),
(363,402,q),
(363,443,o),
(339,480,o),
(310,480,q),
(292,480,o),
(262,459,o),
(240,424,o),
(225,379,o),
(216,332,o),
(212,285,o),
(212,266,q),
(212,109,l),
(212,87,o),
(225,60,o),
(248,46,o),
(277,42,o),
(294,42,q),
(322,42,l),
(322,0,l)
);
}
);
width = 471;
}
);
unicode = 114;
}
{
glyphname = s;
layers = (
{
layerId = master01;
shapes = (
{
closed = 1;
nodes = (
(107.322,-10,o),
(45,26.292,o),
(45,96,cs),
(45,152.123,o),
(84.414,165,o),
(108,165,c),
(108,93.869,o),
(136.322,38,o),
(216,38,cs),
(288.007,38,o),
(326,74.792,o),
(326,129,cs),
(326,178.317,o),
(301.151,194.377,o),
(203,238,cs),
(99.5,284.302,o),
(52,315.763,o),
(52,404,cs),
(52,494.383,o),
(126.667,545,o),
(240,545,cs),
(339.924,545,o),
(386,502.989,o),
(386,453,cs),
(386,417,o),
(360.667,393,o),
(314,393,c),
(314,459.667,o),
(286.667,499,o),
(228,499,cs),
(162.179,499,o),
(133,466.29,o),
(133,419,cs),
(133,364.978,o),
(169.858,349.969,o),
(257,313,cs),
(362.492,267.016,o),
(407,232.531,o),
(407,147,cs),
(407,42.745,o),
(328.514,-10,o),
(210,-10,cs)
);
}
);
width = 451;
}
);
unicode = 115;
}
{
glyphname = u;
layers = (
{
layerId = master01;
shapes = (
{
closed = 1;
nodes = (
(527,87,o),
(540,60,o),
(563,46,o),
(592,42,o),
(609,42,q),
(612,42,l),
(612,0,l),
(453,0,l),
(440,81,l),
(435,81,l),
(420,53,o),
(383,18,o),
(342,-2,o),
(297,-10,o),
(273,-10,q),
(233,-10,o),
(172,13,o),
(130,61,o),
(108,135,o),
(108,186,q),
(108,426,l),
(108,448,o),
(95,475,o),
(72,489,o),
(42,494,o),
(26,494,q),
(23,494,l),
(23,536,l),
(202,536,l),
(202,191,l),
(202,158,o),
(212,107,o),
(236,72,o),
(277,54,o),
(307,54,q),
(340,54,o),
(388,78,o),
(418,120,o),
(433,180,o),
(433,216,q),
(433,422,l),
(433,445,o),
(420,474,o),
(398,489,o),
(368,494,o),
(351,494,q),
(348,494,l),
(348,536,l),
(527,536,l),
(527,109,l)
);
}
);
width = 635;
}
);
unicode = 117;
}
{
glyphname = v;
layers = (
{
layerId = master01;
shapes = (
{
closed = 1;
nodes = (
(4,536,l),
(254,536,l),
(254,494,l),
(241,494,l),
(211,494,o),
(181,471,o),
(181,446,q),
(181,438,o),
(185,420,o),
(189,409,q),
(257,220,l),
(263,203,o),
(277,160,o),
(289,119,o),
(299,83,o),
(301,70,q),
(304,70,l),
(307,81,o),
(318,112,o),
(332,150,o),
(347,189,o),
(354,207,q),
(426,402,l),
(431,414,o),
(435,437,o),
(435,445,q),
(435,471,o),
(402,494,o),
(369,494,q),
(362,494,l),
(362,536,l),
(576,536,l),
(576,494,l),
(564,494,l),
(549,494,o),
(529,488,o),
(512,470,o),
(497,440,o),
(488,416,q),
(330,0,l),
(239,0,l),
(78,441,l),
(72,457,o),
(60,477,o),
(43,489,o),
(21,494,o),
(7,494,q),
(4,494,l)
);
}
);
width = 579;
}
);
unicode = 118;
}
{
glyphname = w;
layers = (
{
layerId = master01;
shapes = (
{
closed = 1;
nodes = (
(576,237,l),
(582,219,o),
(595,177,o),
(607,137,o),
(617,101,o),
(619,88,q),
(622,88,l),
(626,113,o),
(646,186,o),
(661,234,q),
(711,395,l),
(715,408,o),
(720,437,o),
(720,445,q),
(720,471,o),
(688,494,o),
(654,494,q),
(647,494,l),
(647,536,l),
(861,536,l),
(861,494,l),
(848,494,l),
(833,494,o),
(812,488,o),
(795,471,o),
(780,441,o),
(773,416,q),
(644,0,l),
(564,0,l),
(445,352,l),
(427,418,l),
(285,0,l),
(206,0,l),
(75,441,l),
(69,457,o),
(57,477,o),
(40,489,o),
(19,494,o),
(4,494,q),
(1,494,l),
(1,536,l),
(248,536,l),
(248,494,l),
(235,494,l),
(205,494,o),
(175,477,o),
(175,452,q),
(175,444,o),
(180,420,o),
(183,409,q),
(230,241,l),
(235,223,o),
(246,180,o),
(255,138,o),
(263,101,o),
(265,88,q),
(268,88,l),
(271,101,o),
(279,134,o),
(290,173,o),
(303,213,o),
(309,231,q),
(413,533,l),
(476,533,l)
);
}
);
width = 862;
}
);
unicode = 119;
}
{
glyphname = z;
layers = (
{
layerId = master01;
shapes = (
{
closed = 1;
nodes = (
(386.774,57,o),
(400.575,99.401,o),
(408,139,cs),
(413,162,l),
(455,162,l),
(450,0,l),
(42,0,l),
(42,40,l),
(332,479,l),
(176,479,ls),
(125.411,479,o),
(112.885,453.54,o),
(99,398,cs),
(98,394,l),
(56,394,l),
(66,536,l),
(449,536,l),
(449,495,l),
(158,57,l),
(340,57,l),
(340,57,l)
);
}
);
width = 511;
}
);
unicode = 122;
}
{
glyphname = uni2B1A;
layers = (
{
layerId = master01;
shapes = (
{
closed = 1;
nodes = (
(200,600,l),
(150,600,l),
(150,650,l),
(200,650,l)
);
},
{
closed = 1;
nodes = (
(309,600,l),
(259,600,l),
(259,650,l),
(309,650,l)
);
},
{
closed = 1;
nodes = (
(418,600,l),
(368,600,l),
(368,650,l),
(418,650,l)
);
},
{
closed = 1;
nodes = (
(522,600,l),
(472,600,l),
(472,650,l),
(522,650,l)
);
},
{
closed = 1;
nodes = (
(631,600,l),
(581,600,l),
(581,650,l),
(631,650,l)
);
},
{
closed = 1;
nodes = (
(740,600,l),
(690,600,l),
(690,650,l),
(740,650,l)
);
},
{
closed = 1;
nodes = (
(850,600,l),
(800,600,l),
(800,650,l),
(850,650,l)
);
},
{
closed = 1;
nodes = (
(200,491,l),
(150,491,l),
(150,541,l),
(200,541,l)
);
},
{
closed = 1;
nodes = (
(850,491,l),
(800,491,l),
(800,541,l),
(850,541,l)
);
},
{
closed = 1;
nodes = (
(200,382,l),
(150,382,l),
(150,432,l),
(200,432,l)
);
},
{
closed = 1;
nodes = (
(850,382,l),
(800,382,l),
(800,432,l),
(850,432,l)
);
},
{
closed = 1;
nodes = (
(200,278,l),
(150,278,l),
(150,328,l),
(200,328,l)
);
},
{
closed = 1;
nodes = (
(850,278,l),
(800,278,l),
(800,328,l),
(850,328,l)
);
},
{
closed = 1;
nodes = (
(200,169,l),
(150,169,l),
(150,219,l),
(200,219,l)
);
},
{
closed = 1;
nodes = (
(850,169,l),
(800,169,l),
(800,219,l),
(850,219,l)
);
},
{
closed = 1;
nodes = (
(200,60,l),
(150,60,l),
(150,110,l),
(200,110,l)
);
},
{
closed = 1;
nodes = (
(850,60,l),
(800,60,l),
(800,110,l),
(850,110,l)
);
},
{
closed = 1;
nodes = (
(200,-50,l),
(150,-50,l),
(150,0,l),
(200,0,l)
);
},
{
closed = 1;
nodes = (
(309,-50,l),
(259,-50,l),
(259,0,l),
(309,0,l)
);
},
{
closed = 1;
nodes = (
(418,-50,l),
(368,-50,l),
(368,0,l),
(418,0,l)
);
},
{
closed = 1;
nodes = (
(522,-50,l),
(472,-50,l),
(472,0,l),
(522,0,l)
);
},
{
closed = 1;
nodes = (
(631,-50,l),
(581,-50,l),
(581,0,l),
(631,0,l)
);
},
{
closed = 1;
nodes = (
(740,-50,l),
(690,-50,l),
(690,0,l),
(740,0,l)
);
},
{
closed = 1;
nodes = (
(850,-50,l),
(800,-50,l),
(800,0,l),
(850,0,l)
);
}
);
width = 1000;
}
);
unicode = 11034;
}
{
glyphname = uni5B57;
layers = (
{
layerId = master01;
shapes = (
{
closed = 1;
nodes = (
(152,379,q),
(136,378,l),
(95,455,l),
(93,460,l),
(93,465,o),
(99,469,q),
(127,491,o),
(162,545,o),
(169,589,q),
(171,605,o),
(171,613,q),
(171,630,o),
(165,656,q),
(184,662,l),
(216,616,o),
(216,565,q),
(216,551,o),
(213,533,q),
(200,455,o)
);
},
{
closed = 1;
nodes = (
(330,366,q),
(251,424,l),
(257,436,l),
(302,430,o),
(338,430,q),
(368,430,o),
(401,433,q),
(467,438,o),
(560,450,o),
(605,456,q),
(629,459,o),
(671,476,o),
(696,498,q),
(701,501,o),
(704,497,q),
(759,431,l),
(762,428,o),
(761,423,o),
(758,422,q),
(742,418,o),
(700,397,o),
(683,385,q),
(642,356,o),
(557,285,o),
(529,255,q),
(506,270,l),
(626,405,l),
(630,409,o),
(629,414,o),
(624,413,q),
(560,405,o),
(462,391,q),
(428,386,l),
(377,379,o)
);
},
{
closed = 1;
nodes = (
(559,678,q),
(565,674,o),
(563,667,q),
(545,582,l),
(542,572,o),
(539,572,q),
(535,572,o),
(531,580,q),
(478,674,o),
(403,750,q),
(416,767,l),
(512,714,o)
);
},
{
closed = 1;
nodes = (
(551,206,o),
(551,188,q),
(551,157,o),
(553,83,q),
(554,-22,l),
(554,-57,o),
(550,-78,q),
(545,-106,o),
(529,-138,o),
(514,-160,q),
(508,-167,o),
(501,-161,q),
(417,-95,o),
(308,-38,q),
(320,-14,l),
(468,-64,l),
(470,-65,o),
(474,-65,q),
(484,-65,o),
(485,-53,q),
(490,-8,o),
(490,58,q),
(490,97,o),
(487,162,o),
(486,175,q),
(484,217,o),
(464,277,o),
(440,302,q),
(451,314,l),
(557,240,l),
(554,228,o)
);
},
{
closed = 1;
nodes = (
(666,625,o),
(766,637,q),
(816,643,o),
(853,672,q),
(858,676,o),
(862,672,q),
(928,600,l),
(934,594,o),
(927,591,q),
(890,568,l),
(868,554,o),
(822,508,o),
(790,468,q),
(770,480,l),
(815,577,l),
(819,585,o),
(818,591,o),
(812,590,q),
(199,537,l),
(197,585,l),
(301,592,o)
);
},
{
closed = 1;
nodes = (
(131,104,q),
(53,158,l),
(58,171,l),
(103,168,o),
(140,168,q),
(180,168,o),
(218,171,q),
(378,183,o),
(626,209,q),
(710,218,l),
(762,224,o),
(816,235,o),
(840,249,q),
(844,251,o),
(849,248,q),
(942,201,l),
(939,186,l),
(607,161,o),
(254,123,q),
(183,116,o)
);
}
);
width = 1000;
}
);
unicode = 23383;
}
{
glyphname = uni5B8B;
layers = (
{
layerId = master01;
shapes = (
{
closed = 1;
nodes = (
(744,63,q),
(799,5,o),
(885,-41,o),
(954,-50,q),
(954,-74,l),
(787,-83,l),
(780,-83,o),
(769,-78,o),
(767,-74,q),
(627,120,o),
(510,263,q),
(533,294,l),
(643,168,o)
);
},
{
closed = 1;
nodes = (
(508,275,l),
(325,20,o),
(65,-122,q),
(49,-97,l),
(284,51,o),
(437,286,q),
(490,286,l)
);
},
{
closed = 1;
nodes = (
(158,387,q),
(142,385,l),
(107,458,l),
(105,463,l),
(105,468,o),
(111,472,q),
(137,492,o),
(166,539,o),
(173,582,q),
(175,596,o),
(175,604,q),
(175,621,o),
(169,645,q),
(188,651,l),
(220,608,o),
(220,559,q),
(220,545,o),
(217,528,q),
(205,457,o)
);
},
{
closed = 1;
nodes = (
(552,677,q),
(558,673,o),
(556,666,q),
(541,585,l),
(539,575,o),
(535,575,q),
(531,575,o),
(527,583,q),
(471,680,o),
(403,748,q),
(416,765,l),
(484,729,o)
);
},
{
closed = 1;
nodes = (
(656,609,o),
(760,621,q),
(778,623,o),
(824,639,o),
(843,655,q),
(848,659,o),
(852,655,q),
(922,582,l),
(928,576,o),
(921,573,q),
(884,550,l),
(849,529,o),
(781,453,q),
(761,464,l),
(809,560,l),
(813,567,o),
(812,574,o),
(806,573,q),
(203,525,l),
(205,575,l),
(328,582,o)
);
},
{
closed = 1;
nodes = (
(194,250,q),
(116,301,l),
(121,314,l),
(166,311,o),
(202,311,q),
(229,311,o),
(281,313,q),
(459,325,o),
(654,345,q),
(706,351,o),
(759,362,o),
(783,376,q),
(787,378,o),
(792,375,q),
(885,328,l),
(882,313,l),
(697,302,o),
(471,282,q),
(316,268,l),
(250,263,o)
);
},
{
closed = 1;
nodes = (
(530,326,q),
(529,87,l),
(527,-77,o),
(527,-153,q),
(514,-159,l),
(454,-91,l),
(452,-89,o),
(454,-82,q),
(466,-55,o),
(468,-17,q),
(472,91,o),
(472,241,q),
(472,304,o),
(470,378,q),
(469,409,o),
(449,474,o),
(427,498,q),
(438,510,l),
(540,429,l),
(530,386,o)
);
}
);
width = 1000;
}
);
unicode = 23435;
}
{
glyphname = uni5C0F;
layers = (
{
layerId = master01;
shapes = (
{
closed = 1;
nodes = (
(144,102,o),
(114,68,q),
(98,69,l),
(72,166,l),
(71,168,o),
(71,171,q),
(71,179,o),
(77,180,q),
(99,190,o),
(120,207,q),
(148,226,o),
(234,349,o),
(252,403,q),
(263,434,o),
(263,505,q),
(286,507,l),
(298,429,o),
(298,400,q),
(298,379,o),
(290,351,o),
(278,322,o),
(275,315,q),
(256,271,o)
);
},
{
closed = 1;
nodes = (
(452,727,o),
(431,750,q),
(442,762,l),
(551,676,l),
(545,651,o),
(540,610,o),
(540,573,q),
(540,180,o),
(550,12,q),
(551,-19,o),
(546,-53,q),
(539,-88,o),
(522,-131,o),
(510,-150,q),
(503,-160,o),
(495,-152,q),
(450,-108,o),
(333,-18,o),
(274,18,q),
(287,43,l),
(456,-29,l),
(462,-31,o),
(463,-31,q),
(473,-31,o),
(475,-12,q),
(480,34,o),
(480,194,q),
(480,315,o),
(476,571,o),
(474,615,q),
(473,648,o)
);
},
{
closed = 1;
nodes = (
(868,299,o),
(935,208,q),
(938,204,o),
(936,197,q),
(904,72,l),
(887,71,l),
(856,172,o),
(734,400,o),
(667,489,q),
(687,508,l),
(755,439,o)
);
}
);
width = 1000;
}
);
unicode = 23567;
}
{
glyphname = uni8C37;
layers = (
{
layerId = master01;
shapes = (
{
closed = 1;
nodes = (
(796,614,o),
(819,595,q),
(825,590,o),
(825,577,q),
(823,480,l),
(807,477,l),
(766,539,o),
(633,677,o),
(577,722,q),
(591,742,l),
(633,718,o)
);
},
{
closed = 1;
nodes = (
(595,453,o),
(608,442,q),
(627,427,o),
(683,382,o),
(725,349,q),
(782,305,o),
(847,261,o),
(925,230,o),
(976,225,q),
(976,203,l),
(827,185,l),
(818,185,l),
(807,185,o),
(802,191,q),
(666,336,o),
(505,475,q),
(528,507,l),
(548,492,o)
);
},
{
closed = 1;
nodes = (
(481,541,q),
(497,565,o),
(497,597,q),
(497,609,o),
(494,621,q),
(509,626,l),
(567,519,l),
(561,513,o),
(526,473,q),
(499,442,o),
(469,410,q),
(313,254,o),
(41,114,q),
(24,140,l),
(379,359,o)
);
},
{
closed = 1;
nodes = (
(327,633,o),
(358,686,q),
(373,711,o),
(373,736,q),
(373,746,o),
(372,751,q),
(388,756,l),
(439,657,l),
(419,641,o),
(383,607,q),
(364,589,l),
(325,552,o),
(202,467,o),
(125,425,q),
(109,449,l),
(194,509,o)
);
},
{
closed = 1;
nodes = (
(596,225,o),
(616,229,q),
(659,238,o),
(681,261,q),
(687,265,o),
(692,261,q),
(742,218,l),
(747,215,o),
(742,209,q),
(728,190,l),
(723,183,o),
(721,175,q),
(713,134,o),
(685,-25,o),
(683,-45,q),
(623,-54,l),
(634,20,o),
(648,153,o),
(648,169,q),
(648,177,o),
(641,177,q),
(619,176,o),
(394,148,o),
(323,139,q),
(324,191,l),
(393,199,o)
);
},
{
closed = 1;
nodes = (
(560,-27,o),
(615,-17,o),
(639,-3,q),
(643,-1,o),
(648,-4,q),
(740,-57,l),
(737,-72,l),
(502,-85,o),
(316,-100,q),
(317,-48,l),
(509,-32,l)
);
},
{
closed = 1;
nodes = (
(352,79,q),
(352,47,l),
(353,15,o),
(353,-158,q),
(340,-164,l),
(276,-97,l),
(273,-94,o),
(276,-88,q),
(291,-57,o),
(291,-23,q),
(291,135,l),
(290,164,o),
(268,231,o),
(247,255,q),
(257,267,l),
(360,183,l),
(352,147,o)
);
}
);
width = 1000;
}
);
unicode = 35895;
}
{
glyphname = u18B00;
layers = (
{
layerId = master01;
shapes = (
{
closed = 1;
nodes = (
(655,58,q),
(660,56,o),
(661,47,q),
(680,-66,l),
(666,-75,l),
(598,-6,o),
(409,142,o),
(305,204,q),
(318,232,l),
(510,147,o)
);
},
{
closed = 1;
nodes = (
(635,562,q),
(640,559,o),
(641,551,q),
(663,447,l),
(648,437,l),
(577,499,o),
(433,594,o),
(327,649,q),
(338,673,l),
(500,622,o)
);
}
);
width = 1000;
}
);
unicode = 101120;
}
{
glyphname = u18B01;
layers = (
{
layerId = master01;
shapes = (
{
closed = 1;
nodes = (
(121,256,q),
(42,319,l),
(47,332,l),
(98,328,o),
(148,328,q),
(190,328,o),
(211,330,q),
(428,343,o),
(719,369,q),
(769,373,o),
(827,385,o),
(852,400,q),
(856,402,o),
(860,399,o),
(861,399,q),
(956,343,l),
(954,326,l),
(690,310,o),
(247,274,q),
(188,269,o)
);
}
);
width = 1000;
}
);
unicode = 101121;
}
{
glyphname = u18B03;
layers = (
{
layerId = master01;
shapes = (
{
closed = 1;
nodes = (
(220,599,q),
(144,654,l),
(149,667,l),
(195,662,o),
(247,662,q),
(267,662,o),
(307,664,q),
(465,677,o),
(568,686,q),
(612,690,l),
(660,694,o),
(717,706,o),
(741,720,q),
(745,722,o),
(749,719,o),
(750,719,q),
(841,669,l),
(838,654,l),
(609,641,o),
(342,617,q),
(285,612,o)
);
},
{
closed = 1;
nodes = (
(138,273,q),
(57,331,l),
(62,344,l),
(107,339,o),
(159,339,q),
(183,339,o),
(227,341,q),
(354,353,o),
(446,360,q),
(698,383,l),
(753,388,o),
(812,400,o),
(838,415,q),
(841,417,o),
(846,414,q),
(943,361,l),
(940,347,l),
(698,331,o),
(265,293,q),
(207,286,o)
);
},
{
closed = 1;
nodes = (
(532,499,q),
(532,291,o),
(531,182,q),
(530,-136,l),
(517,-142,l),
(452,-74,l),
(450,-72,o),
(452,-65,q),
(464,-38,o),
(466,0,q),
(471,117,o),
(471,340,q),
(471,466,o),
(468,556,q),
(466,609,o),
(448,647,q),
(477,659,l),
(542,602,l),
(532,559,o)
);
}
);
width = 1000;
}
);
unicode = 101123;
}
{
glyphname = u18B06;
layers = (
{
layerId = master01;
shapes = (
{
closed = 1;
nodes = (
(226.333,-28.667,o),
(334.167,43,o),
(401.5,183,cs),
(435.167,253,o),
(453.333,341,o),
(456,447,cs),
(457,491,ls),
(457,568.333,o),
(446.333,620.333,o),
(425,647,c),
(435,655,l),
(535,587,l),
(529.667,553,o),
(526.333,514.333,o),
(525,471,cs),
(519.667,143,o),
(361,-31.667,o),
(81,-121,c),
(69,-90,l),
(69,-90,l)
);
},
{
closed = 1;
nodes = (
(276.667,364.333,o),
(242.333,359.333,o),
(217,354,c),
(140,409,l),
(145,422,l),
(173,418,o),
(201.333,416,o),
(230,416,cs),
(238,416,o),
(263,417,o),
(305,419,cs),
(463.667,431,o),
(706.333,456.333,o),
(745,463,cs),
(793.667,472.333,o),
(829.333,488.333,o),
(852,511,cs),
(855.333,514.333,o),
(858.333,514.333,o),
(861,511,cs),
(914,447,ls),
(917.333,443.667,o),
(917.333,440.333,o),
(914,437,cs),
(890,416,ls),
(880.667,408,o),
(881.333,408.333,o),
(880,399,cs),
(874,305,ls),
(863.333,125,o),
(854,6,o),
(834,-62,cs),
(822,-101.333,o),
(811.667,-127,o),
(803,-139,cs),
(799,-143.667,o),
(794.667,-143.667,o),
(790,-139,cs),
(735.333,-86.333,o),
(667,-37,o),
(585,9,c),
(596,30,l),
(758,-34,ls),
(762,-36,o),
(765,-37,o),
(767,-37,cs),
(769,-37,o),
(771.333,-33,o),
(774,-25,cs),
(796.667,45.667,o),
(813.333,250.667,o),
(816,408,cs),
(816,416.667,o),
(812.667,420.667,o),
(806,420,cs),
(635,402,ls),
(471.667,385.333,o),
(366.667,374.333,o),
(320,369,cs)
);
},
{
closed = 1;
nodes = (
(234.333,602.667,o),
(193.333,596.333,o),
(152,587,c),
(74,644,l),
(79,657,l),
(109,655,o),
(136.333,654,o),
(161,654,cs),
(188.333,654,o),
(214.333,655,o),
(239,657,cs),
(351.667,664.333,o),
(477,675,o),
(615,689,cs),
(629,691,o),
(642.5,692.5,o),
(655.5,693.5,cs),
(668.5,694.5,o),
(680.667,695.667,o),
(692,697,cs),
(761.333,705,o),
(790,709.333,o),
(822,728,cs),
(824.667,729.333,o),
(827.667,729,o),
(831,727,cs),
(924,675,l),
(921,660,l),
(761,649.333,o),
(572,633.667,o),
(354,613,cs),
(319.333,610.333,o),
(293,608,o),
(275,606,cs)
);
},
{
closed = 1;
nodes = (
(583.667,270.667,o),
(640.333,248.333,o),
(711,215,cs),
(713.667,213.667,o),
(715.333,210,o),
(716,204,cs),
(728,101,l),
(711,96,l),
(632.333,177.333,o),
(578,223.333,o),
(474,282,c),
(485,304,l),
(485,304,l)
);
}
);
width = 1000;
}
);
unicode = 101126;
}
{
glyphname = u18B0A;
layers = (
{
layerId = master01;
shapes = (
{
closed = 1;
nodes = (
(819,-104,l),
(814,-104,l),
(806,-104,o),
(803,-100,q),
(735,-23,o),
(566,143,o),
(484,214,q),
(501,260,l),
(559,209,l),
(672,110,o),
(741,52,q),
(805,-2,o),
(910,-54,o),
(970,-61,q),
(969,-87,l)
);
},
{
closed = 1;
nodes = (
(509,92,o),
(512,15,q),
(513,-16,o),
(508,-50,q),
(502,-83,o),
(487,-119,o),
(474,-140,q),
(463,-151,o),
(459,-151,q),
(455,-151,o),
(449,-145,q),
(381,-70,o),
(270,4,q),
(283,26,l),
(420,-34,l),
(426,-37,o),
(430,-37,q),
(437,-37,o),
(439,-23,q),
(448,54,o),
(448,324,q),
(448,574,o),
(443,634,q),
(506,641,l),
(506,520,o)
);
},
{
closed = 1;
nodes = (
(641,492,o),
(689,498,q),
(758,508,o),
(794,544,q),
(799,549,o),
(803,544,q),
(861,485,l),
(866,481,o),
(861,476,q),
(839,457,o),
(819,433,q),
(750,352,o),
(615,258,o),
(509,216,q),
(492,250,l),
(590,295,o),
(694,377,o),
(749,439,q),
(756,447,o),
(756,451,q),
(756,456,o),
(743,454,q),
(501,423,l),
(479,476,l),
(512,478,o)
);
},
{
closed = 1;
nodes = (
(229,81,o),
(131,-57,o),
(51,-115,q),
(32,-94,l),
(132,-5,o),
(223,212,o),
(235,357,q),
(236,364,o),
(236,378,q),
(236,410,o),
(218,463,o),
(198,490,q),
(210,502,l),
(314,418,l),
(308,402,o),
(301,354,o),
(300,347,q),
(283,241,o)
);
},
{
closed = 1;
nodes = (
(160,575,q),
(82,632,l),
(87,645,l),
(132,642,o),
(169,642,q),
(209,642,o),
(247,645,q),
(416,656,o),
(623,677,q),
(644,680,o),
(683,683,o),
(700,685,q),
(752,691,o),
(806,702,o),
(830,716,q),
(834,718,o),
(839,715,q),
(932,663,l),
(929,648,l),
(689,632,o),
(362,601,q),
(310,597,o),
(283,594,q),
(222,589,o)
);
}
);
width = 1000;
}
);
unicode = 101130;
}
{
glyphname = u18B0C;
layers = (
{
layerId = master01;
shapes = (
{
closed = 1;
nodes = (
(223,596,q),
(145,653,l),
(150,667,l),
(193,663,o),
(236,663,q),
(274,663,o),
(310,666,q),
(332,668,l),
(445,677,o),
(610,693,q),
(658,698,o),
(715,711,o),
(739,726,q),
(743,728,o),
(748,725,q),
(841,672,l),
(838,657,l),
(690,647,o),
(526,633,o),
(345,615,q),
(286,610,o)
);
},
{
closed = 1;
nodes = (
(317,149,q),
(250,203,l),
(255,215,l),
(291,211,o),
(323,211,q),
(343,211,o),
(377,213,q),
(478,218,o),
(588,233,q),
(632,240,o),
(665,256,q),
(669,258,o),
(674,255,q),
(757,210,l),
(754,193,l),
(661,187,o),
(410,163,q),
(357,158,o)
);
},
{
closed = 1;
nodes = (
(531,491,q),
(531,-65,l),
(471,-72,l),
(471,244,l),
(471,507,o),
(470,548,q),
(469,571,o),
(454,626,o),
(440,648,q),
(467,655,l),
(540,594,l),
(531,547,o)
);
},
{
closed = 1;
nodes = (
(881,322,q),
(884,319,o),
(881,311,q),
(855,211,l),
(838,211,l),
(770,365,o),
(634,522,q),
(655,542,l),
(806,413,o)
);
},
{
closed = 1;
nodes = (
(201,219,o),
(163,184,q),
(145,186,l),
(118,277,l),
(117,283,o),
(121,284,q),
(147,292,o),
(165,307,q),
(225,355,o),
(300,463,o),
(303,520,q),
(325,520,l),
(328,484,o),
(328,458,q),
(328,413,o),
(316,386,q),
(300,348,o)
);
},
{
closed = 1;
nodes = (
(117,-122,q),
(37,-63,l),
(42,-50,l),
(99,-57,o),
(150,-57,q),
(169,-57,o),
(207,-55,q),
(353,-46,o),
(593,-29,o),
(719,-20,q),
(773,-16,o),
(833,-4,o),
(859,10,q),
(862,12,o),
(867,9,q),
(963,-45,l),
(960,-59,l),
(545,-80,o),
(244,-104,q),
(198,-109,o)
);
}
);
width = 1000;
}
);
unicode = 101132;
}
{
glyphname = u18B0D;
layers = (
{
layerId = master01;
shapes = (
{
closed = 1;
nodes = (
(305.667,611.667,o),
(265,605.333,o),
(223,596,c),
(145,653,l),
(150,667,l),
(178.667,664.333,o),
(207.333,663,o),
(236,663,cs),
(261.333,663,o),
(286,664,o),
(310,666,cs),
(395.333,673.333,o),
(485.667,681.667,o),
(581,691,cs),
(645,697.667,o),
(678,704,o),
(710,724,cs),
(712.667,725.333,o),
(715.667,725,o),
(719,723,cs),
(812,670,l),
(809,655,l),
(633,643,o),
(550.333,635.333,o),
(413,622,cs),
(361,616.667,o),
(338.333,614.333,o),
(345,615,cs)
);
},
{
closed = 1;
nodes = (
(374.667,159.667,o),
(343.667,155,o),
(317,149,c),
(250,203,l),
(255,215,l),
(279,212.333,o),
(301.667,211,o),
(323,211,cs),
(336.333,211,o),
(354.333,211.667,o),
(377,213,cs),
(444.333,216.333,o),
(514.667,223,o),
(588,233,cs),
(617.333,237.667,o),
(643,245.333,o),
(665,256,cs),
(667.667,257.333,o),
(670.667,257,o),
(674,255,cs),
(757,210,l),
(754,193,l),
(692,189,o),
(577.333,179,o),
(410,163,cs)
);
},
{
closed = 1;
nodes = (
(524,562.667,o),
(521,528.333,o),
(521,491,cs),
(521,-65,l),
(461,-72,l),
(461,244,ls),
(461,419.333,o),
(460.667,520.667,o),
(460,548,cs),
(458.667,578.667,o),
(448.667,618.667,o),
(430,648,c),
(457,655,l),
(530,594,l),
(530,594,l)
);
},
{
closed = 1;
nodes = (
(213.333,-107.333,o),
(171,-113.333,o),
(117,-122,c),
(37,-63,l),
(42,-50,l),
(80,-54.667,o),
(116,-57,o),
(150,-57,cs),
(162.667,-57,o),
(181.667,-56.333,o),
(207,-55,cs),
(401.667,-43,o),
(551,-32,o),
(719,-20,cs),
(791,-14.667,o),
(824.333,-8.667,o),
(859,10,cs),
(861,11.333,o),
(863.667,11,o),
(867,9,cs),
(963,-45,l),
(960,-59,l),
(683.333,-73,o),
(444.667,-88,o),
(244,-104,cs)
);
},
{
closed = 1;
nodes = (
(859,561.667,o),
(908.333,509.333,o),
(949,458,cs),
(951,455.333,o),
(951.333,451.667,o),
(950,447,cs),
(924,357,l),
(904,359,l),
(865.333,457.667,o),
(838.667,513,o),
(780,597,c),
(801,615,l),
(801,615,l)
);
},
{
closed = 1;
nodes = (
(295.667,336.333,o),
(213.667,231.667,o),
(163,185,c),
(145,187,l),
(118,278,ls),
(117.333,282,o),
(118.333,284.333,o),
(121,285,cs),
(141.667,291.667,o),
(156.667,298.333,o),
(166,305,cs),
(242,361,o),
(298,443.667,o),
(302,521,c),
(324,521,l),
(326,494.333,o),
(327,471,o),
(327,451,cs),
(327,423.667,o),
(323.667,402.333,o),
(317,387,cs)
);
},
{
closed = 1;
nodes = (
(774,422,o),
(828,358.333,o),
(872,293,cs),
(874,290.333,o),
(874,286.333,o),
(872,281,cs),
(836,184,l),
(819,186,l),
(784.333,295.333,o),
(742.667,384,o),
(664,496,c),
(686,514,l),
(686,514,l)
);
}
);
width = 1000;
}
);
unicode = 101133;
}
{
glyphname = u18B0E;
layers = (
{
layerId = master01;
shapes = (
{
closed = 1;
nodes = (
(319,-107.333,o),
(277.667,-113.333,o),
(233,-122,c),
(155,-64,l),
(160,-50,l),
(197.333,-54,o),
(230,-56,o),
(258,-56,cs),
(279.333,-56,o),
(300.667,-55,o),
(322,-53,cs),
(382,-48.333,o),
(447.667,-42.667,o),
(519,-36,cs),
(593,-29,ls),
(661,-22.333,o),
(693,-15.667,o),
(725,3,cs),
(727.667,4.333,o),
(730.667,4,o),
(734,2,cs),
(827,-52,l),
(824,-67,l),
(690,-75.667,o),
(579.667,-84,o),
(493,-92,cs),
(357,-104,l),
(357,-104,l)
);
},
{
closed = 1;
nodes = (
(461,5.333,o),
(460.667,57,o),
(460,87,cs),
(458.667,125.667,o),
(444.333,175,o),
(415,207,c),
(426,219,l),
(530,133,l),
(524,101.667,o),
(521,67.333,o),
(521,30,cs),
(521,-62,l),
(461,-68,l),
(461,-68,l)
);
},
{
closed = 1;
nodes = (
(699.667,520.667,o),
(743.667,501.667,o),
(797,467,cs),
(800.333,465,o),
(802,461.333,o),
(802,456,cs),
(807,352,l),
(790,348,l),
(714,434.667,o),
(657.333,486.333,o),
(548,553,c),
(562,579,l),
(585,570,l),
(585,570,l)
);
},
{
closed = 1;
nodes = (
(169.667,107,o),
(294.333,219,o),
(345,311,cs),
(353.667,328.333,o),
(358,347.333,o),
(358,368,cs),
(358,377.333,o),
(357,385.333,o),
(355,392,c),
(371,398,l),
(431,282,l),
(418.333,272,o),
(403,258,o),
(385,240,cs),
(358,214,ls),
(264.667,127.333,o),
(171.333,58.333,o),
(42,-15,c),
(23,15,l),
(23,15,l)
);
},
{
closed = 1;
nodes = (
(201,369.333,o),
(280.667,442,o),
(318,498,cs),
(337.333,526.667,o),
(346.667,555.667,o),
(346,585,c),
(361,587,l),
(404,478,l),
(370,450,ls),
(369.333,449.333,o),
(363,444,o),
(351,434,cs),
(277,374.667,o),
(202,324,o),
(126,282,c),
(109,308,l),
(109,308,l)
);
},
{
closed = 1;
nodes = (
(267.333,609.333,o),
(226.667,603,o),
(200,597,c),
(122,654,l),
(127,668,l),
(155.667,665.333,o),
(184.333,664,o),
(213,664,cs),
(238.333,664,o),
(263,665,o),
(287,667,cs),
(397,676.333,o),
(499.333,686.333,o),
(594,697,cs),
(659.333,705,o),
(692.333,712.333,o),
(723,731,cs),
(725.667,732.333,o),
(728.667,732,o),
(732,730,cs),
(825,677,l),
(822,662,l),
(694,655.333,o),
(527.333,640,o),
(322,616,cs)
);
},
{
closed = 1;
nodes = (
(703,267.667,o),
(738.667,232.667,o),
(774,202,cs),
(848.667,136.667,o),
(906.333,110.333,o),
(981,101,c),
(981,75,l),
(827,61,l),
(823,61,ls),
(816.333,61,o),
(811.667,63,o),
(809,67,cs),
(750.333,141.667,o),
(685.667,218.333,o),
(615,297,cs),
(587,327.667,o),
(561.667,344,o),
(515,356,c),
(513,372,l),
(605,384,l),
(619,363.333,o),
(639.667,337.667,o),
(667,307,cs)
);
}
);
width = 1000;
}
);
unicode = 101134;
}
{
glyphname = u18B10;
layers = (
{
layerId = master01;
shapes = (
{
closed = 1;
nodes = (
(414,127,o),
(466,349,o),
(466,515,q),
(466,547,o),
(449,623,o),
(433,647,q),
(445,656,l),
(547,583,l),
(539,535,o),
(535,457,q),
(525,269,o),
(423,35,o),
(231,-110,o),
(71,-167,q),
(59,-137,l),
(237,-63,o)
);
},
{
closed = 1;
nodes = (
(771,-142,l),
(767,-142,l),
(759,-142,o),
(754,-137,q),
(618,30,o),
(458,204,q),
(487,232,l),
(642,75,o),
(706,18,q),
(773,-43,o),
(886,-92,o),
(961,-102,q),
(960,-128,l)
);
},
{
closed = 1;
nodes = (
(366,404,q),
(370,400,o),
(370,395,q),
(370,390,o),
(367,382,q),
(342,309,l),
(327,311,l),
(302,365,o),
(221,492,o),
(181,534,q),
(199,551,l),
(314,463,o)
);
},
{
closed = 1;
nodes = (
(115,176,q),
(37,234,l),
(42,247,l),
(90,242,o),
(143,242,q),
(184,242,o),
(204,243,q),
(379,255,l),
(539,265,o),
(725,281,q),
(776,285,o),
(832,296,o),
(857,310,q),
(860,312,o),
(866,308,q),
(959,256,l),
(956,241,l),
(528,216,o),
(241,193,q),
(175,188,o)
);
},
{
closed = 1;
nodes = (
(212,600,q),
(144,653,l),
(149,665,l),
(180,661,o),
(210,661,q),
(226,661,o),
(262,664,o),
(271,664,q),
(351,670,o),
(601,693,o),
(649,699,q),
(692,707,o),
(725,723,q),
(729,725,o),
(734,722,q),
(818,678,l),
(815,661,l),
(711,653,o),
(332,618,o),
(304,614,q),
(251,609,o)
);
},
{
closed = 1;
nodes = (
(692,474,o),
(709,513,q),
(730,560,o),
(727,596,q),
(742,600,l),
(798,500,l),
(780,481,l),
(741,439,o),
(742,440,q),
(708,407,o),
(639,350,o),
(591,319,q),
(573,341,l),
(621,384,o)
);
}
);
width = 1000;
}
);
unicode = 101136;
}
{
glyphname = u18B14;
layers = (
{
layerId = master01;
shapes = (
{
closed = 1;
nodes = (
(658,449,l),
(810,289,o),
(935,119,q),
(937,116,o),
(938,112,o),
(937,107,q),
(911,1,l),
(894,-2,l),
(807,201,o),
(637,429,q)
);
},
{
closed = 1;
nodes = (
(286,289,o),
(314,371,q),
(322,397,o),
(322,423,q),
(322,445,o),
(316,466,q),
(329,473,l),
(403,368,l),
(396,359,o),
(379,332,q),
(366,310,l),
(303,215,o),
(163,57,o),
(65,-26,q),
(43,-1,l),
(138,88,o)
);
},
{
closed = 1;
nodes = (
(134,577,q),
(55,635,l),
(60,648,l),
(110,642,o),
(171,642,q),
(205,642,o),
(222,643,q),
(416,657,l),
(628,672,o),
(705,679,q),
(759,683,o),
(817,694,o),
(842,707,q),
(845,709,o),
(850,706,q),
(944,652,l),
(941,638,l),
(655,623,o),
(259,594,q),
(198,588,o)
);
},
{
closed = 1;
nodes = (
(551,485,q),
(550,168,l),
(548,-48,o),
(548,-149,q),
(535,-155,l),
(470,-87,l),
(468,-85,o),
(470,-78,q),
(482,-51,o),
(484,-13,q),
(489,114,o),
(489,351,q),
(489,487,o),
(487,542,q),
(485,595,o),
(467,633,q),
(496,645,l),
(561,588,l),
(551,545,o)
);
}
);
width = 1000;
}
);
unicode = 101140;
}
{
glyphname = u18B16;
layers = (
{
layerId = master01;
shapes = (
{
closed = 1;
nodes = (
(415.333,166.667,o),
(260.667,42,o),
(70,-38,c),
(57,-13,l),
(247.667,88.333,o),
(398.333,227.667,o),
(473,381,c),
(514,316,l),
(514,316,l)
);
},
{
closed = 1;
nodes = (
(276.667,372.333,o),
(242.333,367.333,o),
(217,362,c),
(140,417,l),
(145,430,l),
(173,426,o),
(201.333,424,o),
(230,424,cs),
(238,424,o),
(263,425,o),
(305,427,cs),
(459.667,439,o),
(702.667,465,o),
(744,473,cs),
(792.667,482.333,o),
(828.333,498.333,o),
(851,521,cs),
(854.333,524.333,o),
(857.333,524.333,o),
(860,521,cs),
(913,457,ls),
(916.333,453.667,o),
(916.333,450.333,o),
(913,447,cs),
(889,426,ls),
(879.667,418,o),
(880.333,418.333,o),
(879,409,cs),
(873,313,ls),
(862.333,130.333,o),
(853,10.667,o),
(833,-56,cs),
(821,-95.333,o),
(810.667,-121,o),
(802,-133,cs),
(798,-138.333,o),
(793.667,-138.333,o),
(789,-133,cs),
(745,-87.667,o),
(680.667,-39.667,o),
(596,11,c),
(608,32,l),
(757,-30,ls),
(761,-32,o),
(764,-33,o),
(766,-33,cs),
(768.667,-33,o),
(771,-29,o),
(773,-21,cs),
(790.333,47,o),
(812.333,278,o),
(815,418,cs),
(815,426.667,o),
(811.667,430.667,o),
(805,430,cs),
(775,427,ls),
(727.667,421.667,o),
(655.333,413.833,o),
(558,403.5,cs),
(460.667,393.167,o),
(381.333,384.333,o),
(320,377,cs)
);
},
{
closed = 1;
nodes = (
(240.333,603.333,o),
(198.667,597.333,o),
(160,590,c),
(81,648,l),
(86,661,l),
(118,657.667,o),
(151.667,656,o),
(187,656,cs),
(214.333,656,o),
(234.667,656.333,o),
(248,657,cs),
(398,669,o),
(545,681.667,o),
(689,695,cs),
(753,700.333,o),
(787,706.667,o),
(819,724,cs),
(821.667,725.333,o),
(824.667,725,o),
(828,723,cs),
(922,670,l),
(919,656,l),
(761.667,646,o),
(573.667,632,o),
(355,614,cs),
(285,608,l),
(285,608,l)
);
},
{
closed = 1;
nodes = (
(525.333,567.333,o),
(522,533,o),
(522,493,cs),
(521,177,ls),
(519.667,33,o),
(519,-72.667,o),
(519,-140,c),
(506,-146,l),
(443,-78,ls),
(441.667,-76.667,o),
(441.667,-73.667,o),
(443,-69,cs),
(451,-51,o),
(455.667,-29.333,o),
(457,-4,cs),
(460.333,74.667,o),
(462,187.333,o),
(462,334,cs),
(462,417.333,o),
(461,489.333,o),
(459,550,cs),
(457.667,588,o),
(448.333,621.333,o),
(431,650,c),
(449,664,l),
(532,596,l),
(532,596,l)
);
},
{
closed = 1;
nodes = (
(579.333,289,o),
(651.667,251.333,o),
(723,206,c),
(727,202,o),
(729,198.667,o),
(729,196,cs),
(737,108,l),
(722,98,l),
(643.333,190,o),
(599.333,233,o),
(498,301,c),
(506,319,l),
(506,319,l)
);
}
);
width = 1000;
}
);
unicode = 101142;
}
{
glyphname = u18B17;
layers = (
{
layerId = master01;
shapes = (
{
closed = 1;
nodes = (
(687,439,o),
(711,443,q),
(782,457,o),
(816,491,q),
(821,496,o),
(826,491,q),
(886,428,l),
(891,424,o),
(886,419,q),
(861,396,l),
(855,391,o),
(851,385,o),
(851,379,q),
(851,232,o),
(840,91,o),
(827,33,q),
(816,-15,o),
(792,-38,q),
(789,-41,o),
(786,-41,q),
(781,-41,o),
(777,-36,q),
(739,10,o),
(629,88,q),
(640,108,l),
(748,60,l),
(754,57,o),
(757,57,q),
(762,57,o),
(764,68,q),
(773,103,o),
(784,228,o),
(784,308,q),
(784,359,o),
(783,387,q),
(783,394,o),
(778,399,o),
(773,398,q),
(686,390,o),
(542,378,q),
(272,356,o),
(208,349,q),
(204,401,l),
(351,411,o)
);
},
{
closed = 1;
nodes = (
(241,288,q),
(241,-28,l),
(227,-34,l),
(164,34,l),
(161,37,o),
(164,43,q),
(179,75,o),
(179,108,q),
(181,178,o),
(181,224,q),
(181,272,o),
(179,338,q),
(178,368,o),
(157,440,o),
(136,464,q),
(148,475,l),
(249,391,l),
(241,349,o)
);
},
{
closed = 1;
nodes = (
(161,591,q),
(82,649,l),
(87,662,l),
(134,657,o),
(188,657,q),
(229,657,o),
(249,658,q),
(375,668,o),
(580,685,o),
(694,695,q),
(742,699,o),
(800,711,o),
(824,724,q),
(828,726,o),
(833,723,q),
(927,670,l),
(924,656,l),
(770,647,o),
(472,624,o),
(312,611,q),
(286,609,l),
(219,602,o)
);
},
{
closed = 1;
nodes = (
(545,490,q),
(544,175,l),
(542,-41,o),
(542,-141,q),
(529,-147,l),
(466,-79,l),
(464,-77,o),
(466,-70,q),
(478,-43,o),
(480,-5,q),
(485,113,o),
(485,331,q),
(485,456,o),
(482,547,q),
(480,604,o),
(454,647,q),
(472,661,l),
(555,593,l),
(545,550,o)
);
}
);
width = 1000;
}
);
unicode = 101143;
}
{
glyphname = u18B1F;
layers = (
{
layerId = master01;
shapes = (
{
closed = 1;
nodes = (
(827,128,q),
(826,-148,l),
(814,-154,l),
(750,-86,l),
(749,-85,o),
(750,-79,o),
(750,-77,q),
(762,-50,o),
(764,-12,q),
(769,113,o),
(769,339,q),
(769,403,l),
(769,416,o),
(765,424,o),
(756,423,q),
(731,421,o),
(677,414,o),
(655,412,q),
(631,409,l),
(583,404,o),
(531,391,q),
(454,447,l),
(459,460,l),
(506,454,o),
(548,454,q),
(580,454,o),
(610,457,q),
(679,462,o),
(709,469,q),
(739,476,o),
(776,492,o),
(793,509,q),
(798,514,o),
(804,509,q),
(855,465,l),
(860,462,o),
(855,456,q),
(836,432,l),
(829,424,o),
(829,411,q),
(829,316,o)
);
},
{
closed = 1;
nodes = (
(175,23,q),
(99,77,l),
(104,90,l),
(150,85,o),
(202,85,q),
(222,85,o),
(262,87,q),
(410,98,o),
(479,105,q),
(488,106,o),
(549,112,o),
(591,125,o),
(607,135,q),
(612,138,o),
(616,135,q),
(707,87,l),
(704,72,l),
(596,67,o),
(372,48,o),
(342,46,q),
(298,42,l),
(251,38,o)
);
},
{
closed = 1;
nodes = (
(247,183,q),
(176,234,l),
(181,247,l),
(221,243,o),
(258,243,q),
(278,243,o),
(308,245,q),
(452,252,o),
(503,260,q),
(536,265,o),
(566,279,o),
(570,281,q),
(574,283,o),
(579,281,q),
(665,239,l),
(662,221,l),
(588,217,o),
(379,203,o),
(343,199,q),
(294,194,o)
);
},
{
closed = 1;
nodes = (
(163,577,q),
(84,635,l),
(89,648,l),
(136,643,o),
(190,643,q),
(231,643,o),
(251,644,q),
(459,659,l),
(644,673,o),
(709,679,q),
(754,683,o),
(814,697,o),
(839,710,q),
(843,712,o),
(848,709,q),
(942,656,l),
(939,642,l),
(631,624,o),
(288,595,q),
(221,588,o)
);
},
{
closed = 1;
nodes = (
(461,487,q),
(304,350,o),
(51,268,q),
(40,298,l),
(310,404,o),
(424,551,q),
(458,594,o),
(470,637,q),
(496,639,l),
(530,542,l),
(503,523,o)
);
},
{
closed = 1;
nodes = (
(430,280,q),
(427,54,o),
(426,-142,q),
(414,-149,l),
(355,-80,l),
(351,-76,o),
(355,-71,q),
(369,-44,o),
(370,-10,q),
(373,61,o),
(373,171,q),
(373,241,o),
(371,337,q),
(369,393,o),
(346,435,q),
(365,448,l),
(439,383,l),
(430,344,o)
);
}
);
width = 1000;
}
);
unicode = 101151;
}
{
glyphname = u18B20;
layers = (
{
layerId = master01;
shapes = (
{
closed = 1;
nodes = (
(710,608,l),
(698.667,596.667,o),
(688.667,584.667,o),
(680,572,cs),
(635.333,506,o),
(584,446,o),
(526,392,c),
(505,407,l),
(554.333,474.333,o),
(590.667,538.333,o),
(614,599,cs),
(628.667,637.667,o),
(638,667.667,o),
(634,693,c),
(655,701,l),
(655,701,l)
);
},
{
closed = 1;
nodes = (
(332,579.667,o),
(384,537.333,o),
(424,496,cs),
(426.667,493.333,o),
(427,490,o),
(425,486,cs),
(396,415,l),
(382,415,l),
(349.333,489.667,o),
(306.667,554,o),
(254,608,c),
(268,623,l),
(268,623,l)
);
},
{
closed = 1;
nodes = (
(563,431.333,o),
(700.333,442.667,o),
(717,446,cs),
(764.333,455.333,o),
(799.333,471.333,o),
(822,494,cs),
(825.333,497.333,o),
(828.667,497.333,o),
(832,494,cs),
(892,431,l),
(895.333,428.333,o),
(895.333,425.333,o),
(892,422,cs),
(867,399,ls),
(859,392.333,o),
(857,390,o),
(857,382,cs),
(857,251.333,o),
(855,155.167,o),
(851,93.5,cs),
(847,31.833,o),
(839.667,-22.667,o),
(829,-70,cs),
(821.667,-102,o),
(810,-125.667,o),
(794,-141,cs),
(792,-143,o),
(790,-144,o),
(788,-144,cs),
(786.667,-144,o),
(783.667,-142.333,o),
(779,-139,cs),
(731,-99,o),
(675.333,-61.667,o),
(612,-27,c),
(624,-5,l),
(751,-50,l),
(760,-52,l),
(763.333,-52,o),
(765.667,-48.333,o),
(767,-41,cs),
(783,17,o),
(791,119.333,o),
(791,266,cs),
(791,291.333,o),
(790.333,332.667,o),
(789,390,cs),
(789,399.333,o),
(785.667,402.333,o),
(779,401,cs),
(766.333,399.667,o),
(689,393.333,o),
(547,382,cs),
(362.333,367.333,o),
(246,357.333,o),
(198,352,c),
(194,404,l),
(305,412,l),
(305,412,l)
);
},
{
closed = 1;
nodes = (
(217.667,375,o),
(215,340.667,o),
(215,300,cs),
(215,-133,l),
(201,-139,l),
(138,-71,ls),
(136,-69,o),
(136,-66,o),
(138,-62,cs),
(148,-41.333,o),
(153,-19.667,o),
(153,3,cs),
(154.333,75,o),
(155,133,o),
(155,177,cs),
(155,223,o),
(154.333,280.667,o),
(153,350,cs),
(151.667,390,o),
(138,444,o),
(110,476,c),
(122,487,l),
(223,403,l),
(223,403,l)
);
},
{
closed = 1;
nodes = (
(439,261.667,o),
(526.667,220.667,o),
(610,172,cs),
(612.667,170,o),
(614.667,166.333,o),
(616,161,cs),
(637,55,l),
(622,46,l),
(542.667,130.667,o),
(447,206,o),
(335,272,c),
(347,295,l),
(347,295,l)
);
},
{
closed = 1;
nodes = (
(234.333,632.333,o),
(192.667,626.333,o),
(154,619,c),
(75,677,l),
(80,690,l),
(112,686.667,o),
(145.667,685,o),
(181,685,cs),
(208.333,685,o),
(228.667,685.333,o),
(242,686,cs),
(270.667,688.667,o),
(331.667,693.333,o),
(425,700,cs),
(434.333,700.667,o),
(460.333,702.667,o),
(503,706,cs),
(545.667,709.333,o),
(608.333,714.667,o),
(691,722,cs),
(753.667,727.333,o),
(787.667,734.667,o),
(821,752,cs),
(823.667,753.333,o),
(826.667,753,o),
(830,751,cs),
(924,698,l),
(921,684,l),
(736.333,672.667,o),
(522.333,657,o),
(279,637,cs)
);
}
);
width = 1000;
}
);
unicode = 101152;
}
{
glyphname = u18B21;
layers = (
{
layerId = master01;
shapes = (
{
closed = 1;
nodes = (
(718,461,q),
(789,475,o),
(823,509,q),
(828,514,o),
(833,509,q),
(893,446,l),
(898,442,o),
(893,437,q),
(868,414,l),
(862,409,o),
(858,403,o),
(858,397,q),
(858,192,o),
(846,3,o),
(830,-68,q),
(819,-116,o),
(795,-139,q),
(792,-142,o),
(789,-142,q),
(784,-142,o),
(780,-137,q),
(755,-106,o),
(702,-56,o),
(660,-26,q),
(672,-4,l),
(755,-41,l),
(761,-44,o),
(764,-44,q),
(769,-44,o),
(771,-33,q),
(793,48,o),
(793,248,q),
(793,321,o),
(790,405,q),
(790,412,o),
(785,417,o),
(780,416,q),
(624,402,o),
(565,398,q),
(508,393,o),
(256,371,o),
(191,364,q),
(187,416,l),
(672,453,o)
);
},
{
closed = 1;
nodes = (
(214,310,q),
(214,-133,l),
(200,-139,l),
(137,-71,l),
(134,-68,o),
(137,-62,q),
(152,-31,o),
(152,3,q),
(154,111,o),
(154,182,q),
(154,256,o),
(152,360,q),
(151,390,o),
(130,462,o),
(109,486,q),
(121,497,l),
(222,413,l),
(214,371,o)
);
},
{
closed = 1;
nodes = (
(421,-43,q),
(407,-49,l),
(346,19,l),
(344,21,o),
(346,28,q),
(358,55,o),
(360,93,q),
(364,190,o),
(366,402,q),
(366,407,l),
(423,414,l),
(421,106,o)
);
},
{
closed = 1;
nodes = (
(619,-43,q),
(605,-49,l),
(544,19,l),
(542,21,o),
(544,28,q),
(556,55,o),
(558,93,q),
(562,189,o),
(564,417,q),
(621,424,l),
(619,116,o)
);
},
{
closed = 1;
nodes = (
(445,581,q),
(472,626,o),
(474,660,q),
(504,661,l),
(540,581,l),
(533,576,o),
(507,547,q),
(460,493,o),
(401,433,o),
(359,403,q),
(319,408,l),
(399,495,o)
);
},
{
closed = 1;
nodes = (
(138,595,q),
(59,653,l),
(64,666,l),
(111,661,o),
(165,661,q),
(206,661,o),
(226,662,q),
(434,678,l),
(591,689,o),
(702,699,q),
(749,703,o),
(807,716,o),
(832,729,q),
(836,731,o),
(841,728,q),
(935,675,l),
(932,661,l),
(602,641,o),
(263,613,q),
(196,606,o)
);
}
);
width = 1000;
}
);
unicode = 101153;
}
{
glyphname = u18B23;
layers = (
{
layerId = master01;
shapes = (
{
closed = 1;
nodes = (
(117,217,q),
(38,274,l),
(43,287,l),
(84,283,o),
(126,283,q),
(167,283,o),
(205,286,q),
(487,307,o),
(710,329,q),
(760,334,o),
(817,346,o),
(841,360,q),
(845,362,o),
(850,359,q),
(944,307,l),
(941,292,l),
(656,272,o),
(292,239,q),
(242,235,l),
(175,228,o)
);
},
{
closed = 1;
nodes = (
(224,574,q),
(147,630,l),
(152,643,l),
(196,639,o),
(241,639,q),
(275,639,o),
(310,642,q),
(447,652,o),
(603,671,q),
(653,677,o),
(707,689,o),
(731,703,q),
(736,705,o),
(740,702,q),
(832,652,l),
(829,637,l),
(692,627,o),
(439,603,o),
(412,600,q),
(346,594,l),
(297,589,o)
);
},
{
closed = 1;
nodes = (
(498,463,q),
(498,-2,l),
(498,-33,o),
(511,-55,o),
(533,-56,q),
(586,-59,o),
(648,-59,q),
(708,-59,o),
(820,-54,o),
(848,-50,q),
(864,-48,o),
(874,-37,o),
(875,-21,q),
(884,130,l),
(908,130,l),
(913,80,o),
(936,-47,o),
(948,-81,q),
(949,-82,o),
(949,-85,q),
(949,-90,o),
(944,-92,q),
(901,-111,o),
(832,-115,q),
(729,-122,o),
(651,-122,q),
(610,-122,o),
(520,-118,q),
(474,-116,o),
(434,-68,o),
(434,-15,q),
(434,518,l),
(434,576,o),
(402,626,q),
(429,630,l),
(508,565,l),
(498,527,o)
);
}
);
width = 1000;
}
);
unicode = 101155;
}
{
glyphname = u18B25;
layers = (
{
layerId = master01;
shapes = (
{
closed = 1;
nodes = (
(651,-8,o),
(827,-68,q),
(836,-71,o),
(841,-71,q),
(845,-71,o),
(847,-66,o),
(847,-63,q),
(850,128,l),
(874,129,l),
(882,49,o),
(911,-100,o),
(927,-143,q),
(928,-144,o),
(928,-146,q),
(928,-151,o),
(921,-152,q),
(901,-153,l),
(796,-153,o),
(696,-80,q),
(603,-12,o),
(485,179,o),
(418,424,o),
(395,596,q),
(459,618,l),
(477,370,o)
);
},
{
closed = 1;
nodes = (
(661,320,o),
(763,457,q),
(796,501,o),
(793,560,q),
(808,562,l),
(858,448,l),
(844,435,o),
(808,395,q),
(780,364,l),
(651,220,o),
(281,-15,o),
(74,-71,q),
(62,-40,l),
(308,50,o)
);
},
{
closed = 1;
nodes = (
(159,500,q),
(73,546,l),
(76,560,l),
(143,562,o),
(237,578,q),
(379,610,o),
(595,660,q),
(633,669,l),
(677,679,o),
(734,700,o),
(757,716,q),
(760,719,o),
(766,717,q),
(867,677,l),
(866,663,l),
(695,629,o),
(407,564,q),
(280,535,l),
(220,520,o)
);
}
);
width = 1000;
}
);
unicode = 101157;
}
{
glyphname = u18B26;
layers = (
{
layerId = master01;
shapes = (
{
closed = 1;
nodes = (
(543,181,o),
(714,-30,o),
(843,-72,q),
(852,-75,o),
(857,-75,q),
(861,-75,o),
(863,-70,o),
(863,-67,q),
(867,125,l),
(891,126,l),
(898,47,o),
(926,-100,o),
(942,-142,q),
(943,-145,l),
(943,-151,o),
(933,-153,q),
(915,-154,l),
(822,-154,o),
(714,-87,q),
(567,5,o),
(413,337,o),
(382,587,q),
(446,609,l),
(457,457,o)
);
},
{
closed = 1;
nodes = (
(186,273,q),
(100,318,l),
(102,332,l),
(145,333,o),
(211,342,o),
(263,351,q),
(412,385,o),
(564,422,q),
(651,443,l),
(694,453,o),
(751,474,o),
(774,490,q),
(777,493,o),
(783,491,q),
(885,452,l),
(884,438,l),
(635,386,o),
(351,318,q),
(318,311,o),
(307,308,q),
(247,293,o)
);
},
{
closed = 1;
nodes = (
(226,523,q),
(202,515,l),
(119,561,l),
(122,575,l),
(215,579,o),
(279,593,q),
(456,630,o),
(556,654,q),
(607,667,o),
(657,685,o),
(679,702,q),
(683,704,o),
(688,702,q),
(785,663,l),
(784,648,l),
(599,611,o),
(321,550,q),
(287,542,o)
);
},
{
closed = 1;
nodes = (
(652,185,o),
(725,281,q),
(745,307,o),
(758,354,o),
(759,381,q),
(774,382,l),
(818,271,l),
(793,247,l),
(777,229,o),
(766,219,q),
(642,105,o),
(331,-72,o),
(116,-133,q),
(104,-101,l),
(338,-21,o)
);
}
);
width = 1000;
}
);
unicode = 101158;
}
{
glyphname = u18B27;
layers = (
{
layerId = master01;
shapes = (
{
closed = 1;
nodes = (
(203,516,q),
(121,560,l),
(125,574,l),
(202,576,o),
(275,592,q),
(378,615,o),
(423,626,q),
(461,638,o),
(502,655,o),
(523,671,q),
(528,674,o),
(532,673,q),
(631,633,l),
(630,618,l),
(561,605,o),
(392,567,q),
(316,550,l),
(245,531,o)
);
},
{
closed = 1;
nodes = (
(176,270,q),
(91,317,l),
(93,330,l),
(160,333,o),
(254,349,q),
(373,373,o),
(541,410,o),
(654,437,q),
(707,450,o),
(757,468,o),
(779,484,q),
(783,486,o),
(788,484,q),
(888,446,l),
(888,430,l),
(708,394,o),
(458,340,o),
(298,304,q),
(229,288,o)
);
},
{
closed = 1;
nodes = (
(813,654,q),
(818,649,o),
(817,643,q),
(800,549,l),
(784,545,l),
(713,675,o),
(643,740,q),
(658,757,l),
(746,707,o)
);
},
{
closed = 1;
nodes = (
(646,-9,o),
(843,-72,q),
(852,-75,o),
(857,-75,q),
(861,-75,o),
(863,-70,o),
(863,-67,q),
(867,125,l),
(891,126,l),
(898,47,o),
(926,-100,o),
(942,-142,q),
(943,-145,l),
(943,-151,o),
(933,-153,q),
(914,-154,l),
(819,-154,o),
(714,-89,q),
(559,8,o),
(394,341,o),
(362,587,q),
(426,609,l),
(448,367,o)
);
},
{
closed = 1;
nodes = (
(652,177,o),
(725,273,q),
(745,299,o),
(758,346,o),
(759,373,q),
(774,374,l),
(818,263,l),
(793,239,l),
(777,221,o),
(766,211,q),
(642,97,o),
(331,-80,o),
(116,-141,q),
(104,-109,l),
(338,-29,o)
);
}
);
width = 1000;
}
);
unicode = 101159;
}
{
glyphname = u18B28;
layers = (
{
layerId = master01;
shapes = (
{
closed = 1;
nodes = (
(414,216,q),
(361,285,l),
(357,291,o),
(361,295,q),
(388,324,o),
(406,374,o),
(411,421,q),
(414,450,l),
(425,545,o),
(427,593,q),
(430,641,o),
(408,668,q),
(417,675,l),
(495,611,l),
(475,550,o),
(452,311,q),
(451,305,l),
(451,295,o),
(463,296,q),
(508,299,o),
(646,312,o),
(678,318,q),
(751,332,o),
(783,364,q),
(788,369,o),
(792,364,q),
(854,304,l),
(859,300,o),
(854,295,q),
(829,270,l),
(824,265,o),
(820,259,o),
(819,254,o),
(819,253,q),
(815,232,l),
(793,112,o),
(759,-29,o),
(732,-87,q),
(722,-109,o),
(685,-150,o),
(667,-159,q),
(663,-161,o),
(661,-161,q),
(657,-161,o),
(654,-156,q),
(636,-123,o),
(570,-55,o),
(518,-11,q),
(532,7,l),
(655,-58,l),
(658,-59,o),
(662,-62,o),
(665,-62,q),
(669,-62,o),
(674,-52,q),
(701,1,o),
(737,155,o),
(755,265,q),
(755,267,l),
(755,276,o),
(744,275,q),
(476,248,l),
(464,247,o),
(455,239,q),
(425,216,l),
(419,211,o)
);
},
{
closed = 1;
nodes = (
(122,393,q),
(43,450,l),
(48,463,l),
(93,459,o),
(140,459,q),
(164,459,o),
(210,461,q),
(319,469,l),
(525,485,o),
(728,504,q),
(781,510,o),
(835,520,o),
(859,534,q),
(863,536,o),
(868,533,q),
(962,481,l),
(959,466,l),
(570,440,o),
(247,411,q),
(180,404,o)
);
},
{
closed = 1;
nodes = (
(257,610,q),
(180,666,l),
(185,679,l),
(229,675,o),
(274,675,q),
(309,675,o),
(343,678,q),
(510,690,o),
(581,700,q),
(631,706,o),
(685,718,o),
(709,732,q),
(714,734,o),
(718,731,q),
(810,681,l),
(807,666,l),
(606,651,o),
(379,630,q),
(330,625,o)
);
},
{
closed = 1;
nodes = (
(238,114,o),
(260,162,q),
(279,200,o),
(279,237,q),
(279,244,o),
(277,256,q),
(292,259,l),
(349,147,l),
(302,97,l),
(207,-2,o),
(90,-87,q),
(70,-63,l),
(135,-7,o)
);
},
{
closed = 1;
nodes = (
(609,112,q),
(614,112,o),
(614,102,q),
(607,3,l),
(591,-2,l),
(527,107,o),
(443,181,q),
(457,198,l),
(538,160,o)
);
}
);
width = 1000;
}
);
unicode = 101160;
}
{
glyphname = u18B2A;
layers = (
{
layerId = master01;
shapes = (
{
closed = 1;
nodes = (
(711,316,q),
(765,275,o),
(878,223,o),
(964,212,q),
(964,184,l),
(779,169,l),
(770,169,o),
(763,176,q),
(679,270,o),
(511,433,q),
(552,444,l),
(610,393,o)
);
},
{
closed = 1;
nodes = (
(541,530,q),
(468,409,o),
(222,164,o),
(76,83,q),
(60,109,l),
(201,201,o),
(432,457,o),
(488,584,q),
(502,620,o),
(498,661,q),
(526,668,l),
(583,594,l),
(551,546,o)
);
},
{
closed = 1;
nodes = (
(152,375,q),
(73,432,l),
(78,445,l),
(123,441,o),
(170,441,q),
(194,441,o),
(240,443,q),
(481,461,o),
(706,482,q),
(759,488,o),
(813,498,o),
(837,512,q),
(841,514,o),
(846,511,q),
(940,459,l),
(937,444,l),
(621,423,o),
(277,393,q),
(210,386,o)
);
},
{
closed = 1;
nodes = (
(411,118,o),
(445,199,q),
(460,235,o),
(460,271,q),
(460,278,o),
(458,294,q),
(471,299,l),
(533,183,l),
(524,174,o),
(506,150,q),
(496,136,o),
(490,129,q),
(424,45,o),
(272,-93,o),
(170,-159,q),
(151,-132,l),
(252,-60,o)
);
},
{
closed = 1;
nodes = (
(725,12,o),
(799,-44,q),
(804,-47,o),
(804,-53,q),
(796,-152,l),
(779,-155,l),
(720,-81,o),
(560,66,o),
(471,125,q),
(492,149,l),
(587,98,o)
);
},
{
closed = 1;
nodes = (
(247,616,q),
(180,670,l),
(185,682,l),
(221,678,o),
(253,678,q),
(273,678,o),
(307,680,q),
(389,685,o),
(593,703,o),
(646,710,q),
(690,717,o),
(723,733,q),
(727,735,o),
(732,732,q),
(815,687,l),
(812,670,l),
(760,667,o),
(372,634,o),
(340,630,q),
(287,625,o)
);
}
);
width = 1000;
}
);
unicode = 101162;
}
{
glyphname = u18B2B;
layers = (
{
layerId = master01;
shapes = (
{
closed = 1;
nodes = (
(711,313,q),
(768,270,o),
(890,219,o),
(965,209,q),
(965,181,l),
(779,166,l),
(770,166,o),
(763,173,q),
(674,268,o),
(504,428,q),
(552,441,l),
(610,390,o)
);
},
{
closed = 1;
nodes = (
(545,538,q),
(475,418,o),
(230,171,o),
(77,84,q),
(59,110,l),
(207,210,o),
(437,466,o),
(490,593,q),
(500,618,o),
(500,650,q),
(500,663,o),
(499,670,q),
(527,677,l),
(586,603,l),
(566,573,o)
);
},
{
closed = 1;
nodes = (
(320,618,q),
(246,673,l),
(251,686,l),
(297,681,o),
(345,681,q),
(363,681,o),
(403,683,q),
(488,688,o),
(530,693,q),
(566,698,o),
(613,709,o),
(637,723,q),
(642,725,o),
(646,722,q),
(737,670,l),
(734,655,l),
(644,650,o),
(477,637,q),
(438,634,l),
(372,629,o)
);
},
{
closed = 1;
nodes = (
(152,380,q),
(73,437,l),
(78,450,l),
(123,446,o),
(170,446,q),
(194,446,o),
(240,448,q),
(478,466,o),
(694,487,q),
(747,493,o),
(801,503,o),
(825,517,q),
(829,519,o),
(834,516,q),
(928,464,l),
(925,449,l),
(615,428,o),
(277,398,q),
(210,391,o)
);
},
{
closed = 1;
nodes = (
(904,649,q),
(906,648,o),
(909,641,o),
(908,638,q),
(896,546,l),
(880,542,l),
(856,591,o),
(784,689,o),
(741,728,q),
(756,745,l),
(836,702,o)
);
},
{
closed = 1;
nodes = (
(421,113,o),
(455,196,q),
(470,232,o),
(470,268,q),
(470,275,o),
(468,291,q),
(481,296,l),
(543,179,l),
(534,170,o),
(516,146,q),
(506,132,o),
(500,125,q),
(433,39,o),
(278,-102,o),
(175,-169,q),
(156,-142,l),
(258,-68,o)
);
},
{
closed = 1;
nodes = (
(718,9,o),
(790,-46,q),
(794,-49,o),
(794,-55,q),
(787,-154,l),
(770,-157,l),
(710,-83,o),
(551,65,o),
(463,124,q),
(483,148,l),
(582,94,o)
);
}
);
width = 1000;
}
);
unicode = 101163;
}
{
glyphname = u18B2C;
layers = (
{
layerId = master01;
shapes = (
{
closed = 1;
nodes = (
(276,-119,q),
(202,-64,l),
(207,-51,l),
(253,-56,o),
(301,-56,q),
(319,-56,o),
(359,-54,q),
(392,-52,l),
(473,-48,o),
(506,-44,q),
(542,-39,o),
(589,-28,o),
(613,-14,q),
(618,-12,o),
(622,-15,q),
(713,-67,l),
(710,-82,l),
(537,-92,o),
(394,-103,q),
(328,-108,o)
);
},
{
closed = 1;
nodes = (
(433,147,q),
(432,177,o),
(413,243,o),
(392,267,q),
(402,279,l),
(509,193,l),
(499,150,o),
(499,90,q),
(499,-79,l),
(437,-86,l),
(437,36,o)
);
},
{
closed = 1;
nodes = (
(176,-37,o),
(64,-158,q),
(40,-138,l),
(143,-6,o),
(287,304,o),
(313,462,q),
(316,479,o),
(316,498,q),
(316,539,o),
(298,574,q),
(311,584,l),
(406,493,l),
(398,478,o),
(382,431,o),
(373,397,q),
(330,248,o)
);
},
{
closed = 1;
nodes = (
(144,303,q),
(65,360,l),
(70,373,l),
(115,369,o),
(162,369,q),
(186,369,o),
(232,371,q),
(470,389,o),
(686,410,q),
(739,416,o),
(793,426,o),
(817,440,q),
(821,442,o),
(826,439,q),
(920,387,l),
(917,372,l),
(607,351,o),
(269,321,q),
(202,314,o)
);
},
{
closed = 1;
nodes = (
(268,617,q),
(201,671,l),
(206,683,l),
(242,679,o),
(274,679,q),
(294,679,o),
(328,681,q),
(499,691,o),
(613,707,q),
(657,714,o),
(690,730,q),
(694,732,o),
(699,729,q),
(782,684,l),
(779,667,l),
(732,664,o),
(433,638,o),
(361,631,q),
(308,626,o)
);
},
{
closed = 1;
nodes = (
(533,580,o),
(502,598,q),
(508,614,l),
(604,588,l),
(607,565,o),
(615,530,o),
(627,495,q),
(694,299,o),
(762,124,q),
(793,44,o),
(838,-38,o),
(895,-85,o),
(942,-101,q),
(940,-124,l),
(796,-134,l),
(792,-134,l),
(783,-134,o),
(779,-127,q),
(736,6,o),
(715,70,q),
(604,413,o),
(575,504,q),
(565,535,o)
);
}
);
width = 1000;
}
);
unicode = 101164;
}
{
glyphname = u18B2E;
layers = (
{
layerId = master01;
shapes = (
{
closed = 1;
nodes = (
(348,147.667,o),
(307.333,141.667,o),
(264,133,c),
(188,190,l),
(193,203,l),
(223.667,199.667,o),
(256.333,198,o),
(291,198,cs),
(304.333,198,o),
(324.333,198.667,o),
(351,200,cs),
(425.667,204.667,o),
(486.333,209.333,o),
(533,214,cs),
(583,218,ls),
(647,223.333,o),
(680,229.333,o),
(712,248,c),
(715.333,249.333,o),
(718.333,249,o),
(721,247,cs),
(812,195,l),
(809,180,l),
(693.667,173.333,o),
(552.667,163.667,o),
(386,151,cs)
);
},
{
closed = 1;
nodes = (
(340,360.667,o),
(299.333,354.667,o),
(256,346,c),
(180,403,l),
(185,416,l),
(215.667,412.667,o),
(248.333,411,o),
(283,411,cs),
(296.333,411,o),
(316.333,411.667,o),
(343,413,cs),
(417.667,417.667,o),
(478.333,422.333,o),
(525,427,cs),
(575,431,ls),
(639,436.333,o),
(672,442.333,o),
(704,461,c),
(707.333,462.333,o),
(710.333,462,o),
(713,460,cs),
(804,408,l),
(801,393,l),
(685.667,385.667,o),
(544.667,376,o),
(378,364,cs)
);
},
{
closed = 1;
nodes = (
(192.333,-69.667,o),
(151.333,-75.667,o),
(116,-83,c),
(41,-24,l),
(46,-11,l),
(86,-15,o),
(121.333,-17,o),
(152,-17,cs),
(164,-17,o),
(181.333,-16.333,o),
(204,-15,cs),
(458,-3,o),
(633.667,7.667,o),
(731,17,cs),
(796.333,21,o),
(829,27.333,o),
(861,46,cs),
(863.667,47.333,o),
(866.667,47,o),
(870,45,cs),
(961,-9,l),
(958,-23,l),
(667.333,-37.667,o),
(427.667,-51.667,o),
(239,-65,cs)
);
},
{
closed = 1;
nodes = (
(272.667,590.333,o),
(232,584.333,o),
(196,577,c),
(119,634,l),
(124,647,l),
(153.333,644.333,o),
(183,643,o),
(213,643,cs),
(228.333,643,o),
(251.333,643.667,o),
(282,645,cs),
(452,659,ls),
(517.333,663.667,o),
(581,668.667,o),
(643,674,cs),
(708.333,680.667,o),
(739,686.667,o),
(771,704,cs),
(774.333,705.333,o),
(777.333,705.333,o),
(780,704,cs),
(872,652,l),
(869,637,l),
(685,627,o),
(501.333,613,o),
(318,595,cs)
);
},
{
closed = 1;
nodes = (
(532,546.667,o),
(529,512.333,o),
(529,475,cs),
(529,-23,l),
(469,-30,l),
(469,257,ls),
(469,413,o),
(468.667,504.667,o),
(468,532,cs),
(466.667,562.667,o),
(457.333,598.667,o),
(440,628,c),
(464,639,l),
(538,578,l),
(538,578,l)
);
}
);
width = 1000;
}
);
unicode = 101166;
}
{
glyphname = u18B30;
layers = (
{
layerId = master01;
shapes = (
{
closed = 1;
nodes = (
(399,597,l),
(395,572.333,o),
(393,545.667,o),
(393,517,cs),
(393,476,ls),
(393,269.333,o),
(368,116.167,o),
(272,-8.5,cs),
(224,-70.833,o),
(155.667,-119,o),
(67,-153,c),
(54,-128,l),
(202,-52,o),
(279,67.167,o),
(307,202.5,cs),
(321,270.167,o),
(328,346.667,o),
(328,432,cs),
(327,492,ls),
(325.667,556,o),
(320.333,609.333,o),
(295,652,c),
(310,661,l),
(310,661,l)
);
},
{
closed = 1;
nodes = (
(589,578.667,o),
(575.667,637.333,o),
(557,668,c),
(567,675,l),
(660,601,l),
(655.333,582.333,o),
(653,545.333,o),
(653,490,cs),
(653,-2,ls),
(653,-43.333,o),
(658.667,-54.667,o),
(688,-56,cs),
(708,-58,o),
(727,-59,o),
(745,-59,cs),
(765.667,-59,o),
(785,-58,o),
(803,-56,cs),
(836.333,-53.333,o),
(862.333,-45.333,o),
(881,-32,cs),
(882.333,-30.667,o),
(884.333,-30,o),
(887,-30,cs),
(888.333,-30,o),
(889.833,-30.5,o),
(891.5,-31.5,cs),
(893.167,-32.5,o),
(894.667,-33.333,o),
(896,-34,cs),
(971,-85,ls),
(973,-86.333,o),
(974,-87.667,o),
(974,-89,cs),
(974,-92.333,o),
(971.667,-94.667,o),
(967,-96,cs),
(939,-105.333,o),
(885.667,-113.333,o),
(835,-116,cs),
(805,-118,o),
(770.333,-119,o),
(731,-119,cs),
(705.667,-119,o),
(687,-118.667,o),
(675,-118,cs),
(612.333,-112.667,o),
(589,-84.333,o),
(589,-15,cs),
(589,500,l),
(589,500,l)
);
},
{
closed = 1;
nodes = (
(205.333,278.333,o),
(164.333,270,o),
(127,262,c),
(50,319,l),
(55,332,l),
(97.667,329.333,o),
(126,328,o),
(140,328,cs),
(156.667,328,o),
(181,329.333,o),
(213,332,cs),
(392.333,344,o),
(562,358.667,o),
(722,376,cs),
(786,382.667,o),
(817,388.333,o),
(849,407,cs),
(851.667,408.333,o),
(853.667,408.5,o),
(855,407.5,cs),
(856.333,406.5,o),
(857.333,406,o),
(858,406,c),
(951,355,l),
(948,340,l),
(760,327.333,o),
(526.667,307.667,o),
(248,281,cs)
);
},
{
closed = 1;
nodes = (
(281,624.667,o),
(240.333,618.667,o),
(197,610,c),
(121,668,l),
(126,681,l),
(156.667,677.667,o),
(189.333,676,o),
(224,676,cs),
(237.333,676,o),
(257.333,676.667,o),
(284,678,cs),
(440,688,o),
(564.333,697.333,o),
(657,706,cs),
(721,711.333,o),
(754,717.333,o),
(786,736,cs),
(788.667,737.333,o),
(790.667,737.5,o),
(792,736.5,cs),
(793.333,735.5,o),
(794.333,735,o),
(795,735,c),
(886,684,l),
(883,669,l),
(801,664.333,o),
(654.667,654,o),
(444,638,cs),
(319,628,l),
(319,628,l)
);
}
);
width = 1000;
}
);
unicode = 101168;
}
{
glyphname = u18B33;
layers = (
{
layerId = master01;
shapes = (
{
closed = 1;
nodes = (
(194,321,q),
(149,383,l),
(146,388,o),
(146,391,q),
(146,397,o),
(151,399,q),
(171,411,o),
(188,447,o),
(191,469,q),
(193,485,o),
(193,492,q),
(193,536,o),
(163,570,q),
(175,582,l),
(268,509,l),
(258,493,o),
(247,447,o),
(242,417,q),
(241,411,l),
(241,401,o),
(253,402,q),
(376,410,o),
(675,443,q),
(706,446,o),
(762,471,o),
(781,490,q),
(786,495,o),
(791,490,q),
(850,425,l),
(855,421,o),
(850,416,q),
(826,395,l),
(819,389,o),
(817,385,o),
(816,378,q),
(803,259,o),
(747,-26,o),
(718,-88,q),
(708,-111,o),
(673,-151,o),
(655,-160,q),
(647,-163,o),
(644,-158,q),
(624,-124,o),
(518,-27,o),
(457,13,q),
(471,31,l),
(641,-59,l),
(644,-60,o),
(648,-63,o),
(651,-63,q),
(655,-63,o),
(660,-53,q),
(688,2,o),
(743,286,o),
(750,381,q),
(751,395,l),
(751,399,o),
(747,401,o),
(741,400,q),
(256,353,l),
(244,351,o),
(235,344,q),
(206,322,l),
(198,316,o)
);
},
{
closed = 1;
nodes = (
(194,598,q),
(117,654,l),
(122,667,l),
(167,664,o),
(202,664,q),
(242,664,o),
(280,667,q),
(425,679,l),
(617,694,o),
(665,699,q),
(712,704,o),
(770,717,o),
(794,731,q),
(799,733,o),
(803,731,q),
(895,681,l),
(892,666,l),
(620,646,o),
(316,617,q),
(267,613,o)
);
},
{
closed = 1;
nodes = (
(369,262,q),
(374,277,o),
(374,298,q),
(374,323,o),
(365,341,q),
(379,348,l),
(454,263,l),
(428,227,o),
(417,204,q),
(355,78,o),
(208,-86,o),
(87,-165,q),
(69,-142,l),
(302,35,o)
);
},
{
closed = 1;
nodes = (
(163,90,q),
(96,144,l),
(101,156,l),
(137,152,o),
(169,152,q),
(189,152,o),
(223,154,q),
(363,163,o),
(491,181,q),
(532,187,o),
(568,205,q),
(572,207,o),
(577,204,q),
(660,159,l),
(657,142,l),
(583,139,o),
(303,110,o),
(256,104,q),
(203,99,o)
);
}
);
width = 1000;
}
);
unicode = 101171;
}
{
glyphname = u18B34;
layers = (
{
layerId = master01;
shapes = (
{
closed = 1;
nodes = (
(883,-2,q),
(887,-5,o),
(887,-11,q),
(877,-110,l),
(860,-113,l),
(803,-38,o),
(590,168,o),
(503,230,q),
(524,253,l),
(668,171,o)
);
},
{
closed = 1;
nodes = (
(355,311,o),
(373,329,q),
(377,333,o),
(381,328,q),
(433,265,l),
(437,261,o),
(432,256,q),
(412,238,l),
(406,233,o),
(400,224,o),
(398,218,q),
(339,98,o),
(190,-59,o),
(76,-127,q),
(59,-101,l),
(154,-34,o),
(289,126,o),
(331,224,q),
(333,232,l),
(333,235,o),
(329,240,o),
(325,240,q),
(313,240,o),
(274,233,o),
(268,232,q),
(184,217,o),
(137,201,q),
(67,255,l),
(72,267,l),
(104,265,o),
(122,265,q),
(135,265,o),
(169,267,q),
(192,270,o),
(253,280,o),
(275,284,q),
(310,291,o)
);
},
{
closed = 1;
nodes = (
(144,398,q),
(66,455,l),
(71,468,l),
(116,465,o),
(153,465,q),
(194,465,o),
(231,468,q),
(355,476,o),
(577,496,o),
(697,508,q),
(749,514,o),
(803,525,o),
(827,539,q),
(831,541,o),
(836,538,q),
(929,486,l),
(926,471,l),
(688,456,o),
(267,417,q),
(206,412,o)
);
},
{
closed = 1;
nodes = (
(258,602,q),
(191,656,l),
(196,668,l),
(232,664,o),
(264,664,q),
(284,664,o),
(318,666,q),
(395,671,o),
(585,688,o),
(630,694,q),
(674,701,o),
(707,717,q),
(711,719,o),
(716,716,q),
(799,671,l),
(796,654,l),
(705,647,o),
(377,620,o),
(351,616,q),
(298,611,o)
);
},
{
closed = 1;
nodes = (
(536,522,o),
(535,485,q),
(534,339,l),
(534,114,o),
(540,-4,q),
(541,-30,o),
(535,-69,q),
(529,-101,o),
(512,-140,o),
(498,-160,q),
(491,-170,o),
(483,-162,q),
(392,-69,o),
(310,-15,q),
(323,10,l),
(451,-54,l),
(454,-56,o),
(459,-56,q),
(468,-56,o),
(471,-38,q),
(478,20,o),
(478,242,q),
(478,355,o),
(476,521,o),
(476,527,q),
(475,553,o),
(461,618,o),
(448,643,q),
(471,652,l),
(547,588,l),
(541,563,o)
);
},
{
closed = 1;
nodes = (
(746,343,q),
(758,359,o),
(779,407,o),
(780,431,q),
(796,432,l),
(829,318,l),
(822,313,o),
(801,297,q),
(780,281,o),
(773,276,q),
(684,216,o),
(602,175,q),
(578,196,l),
(693,276,o)
);
}
);
width = 1000;
}
);
unicode = 101172;
}
{
glyphname = u18B36;
layers = (
{
layerId = master01;
shapes = (
{
closed = 1;
nodes = (
(528,579,q),
(527,211,l),
(525,-39,o),
(525,-158,q),
(512,-164,l),
(447,-96,l),
(445,-94,o),
(447,-87,q),
(459,-60,o),
(461,-22,q),
(466,118,o),
(466,372,q),
(466,531,o),
(463,636,q),
(462,667,o),
(442,732,o),
(420,756,q),
(431,768,l),
(538,682,l),
(528,639,o)
);
},
{
closed = 1;
nodes = (
(130,301,q),
(54,361,l),
(59,374,l),
(108,370,o),
(156,370,q),
(197,370,o),
(217,372,q),
(495,388,o),
(714,411,q),
(763,415,o),
(819,427,o),
(843,442,q),
(847,444,o),
(852,441,q),
(944,388,l),
(941,373,l),
(656,357,o),
(252,320,q),
(194,314,o)
);
}
);
width = 1000;
}
);
unicode = 101174;
}
{
glyphname = u18B37;
layers = (
{
layerId = master01;
shapes = (
{
closed = 1;
nodes = (
(496,575,q),
(495,210,l),
(493,-38,o),
(493,-156,q),
(480,-162,l),
(415,-94,l),
(413,-92,o),
(415,-85,q),
(427,-58,o),
(429,-20,q),
(434,118,o),
(434,371,q),
(434,529,o),
(431,632,q),
(430,663,o),
(410,728,o),
(388,752,q),
(399,764,l),
(506,678,l),
(496,635,o)
);
},
{
closed = 1;
nodes = (
(824,104,q),
(828,102,o),
(831,93,q),
(857,-8,l),
(843,-18,l),
(724,96,o),
(544,192,q),
(554,215,l),
(695,170,o)
);
},
{
closed = 1;
nodes = (
(681,612,o),
(715,658,q),
(746,707,o),
(747,748,q),
(762,750,l),
(799,631,l),
(781,617,o),
(772,609,q),
(745,587,l),
(625,499,o),
(480,435,q),
(466,462,l),
(547,507,o)
);
},
{
closed = 1;
nodes = (
(115,281,q),
(37,336,l),
(42,349,l),
(87,345,o),
(132,345,q),
(168,345,o),
(202,348,q),
(513,370,o),
(731,390,q),
(783,396,o),
(837,406,o),
(861,420,q),
(865,422,o),
(870,420,q),
(962,372,l),
(959,357,l),
(498,323,o),
(237,299,q),
(169,292,o)
);
}
);
width = 1000;
}
);
unicode = 101175;
}
{
glyphname = u18B38;
layers = (
{
layerId = master01;
shapes = (
{
closed = 1;
nodes = (
(667,-20,q),
(718,-15,o),
(773,-5,o),
(797,9,q),
(801,11,o),
(806,8,q),
(898,-49,l),
(895,-64,l),
(829,-67,l),
(530,-82,o),
(300,-98,q),
(250,-102,o),
(237,-112,q),
(206,-135,l),
(199,-140,o),
(196,-135,q),
(151,-72,l),
(147,-66,o),
(151,-62,q),
(165,-52,o),
(184,-5,o),
(186,29,q),
(188,59,o),
(188,103,q),
(188,129,o),
(163,194,o),
(143,216,q),
(154,228,l),
(256,145,l),
(249,126,o),
(246,65,o),
(244,-31,q),
(244,-40,o),
(248,-46,o),
(255,-46,q),
(506,-32,o)
);
},
{
closed = 1;
nodes = (
(235,360,o),
(195,352,q),
(117,410,l),
(122,423,l),
(163,418,o),
(212,418,q),
(247,418,o),
(282,421,q),
(350,425,o),
(608,444,q),
(698,451,l),
(747,455,o),
(804,467,o),
(828,481,q),
(832,483,o),
(837,480,q),
(930,428,l),
(927,413,l),
(859,409,l),
(680,398,o),
(470,383,o),
(318,369,q),
(285,368,o)
);
},
{
closed = 1;
nodes = (
(491,344,l),
(491,502,o),
(488,631,q),
(487,660,o),
(465,727,o),
(443,751,q),
(454,763,l),
(561,677,l),
(552,630,o),
(552,574,q),
(552,158,o),
(553,-51,q),
(490,-58,l),
(490,28,l)
);
}
);
width = 1000;
}
);
unicode = 101176;
}
{
glyphname = u18B39;
layers = (
{
layerId = master01;
shapes = (
{
closed = 1;
nodes = (
(227,360,o),
(187,352,q),
(109,410,l),
(114,423,l),
(155,418,o),
(204,418,q),
(240,418,o),
(274,421,q),
(342,425,o),
(600,444,q),
(690,451,l),
(739,455,o),
(796,467,o),
(820,481,q),
(824,483,o),
(829,480,q),
(922,428,l),
(919,413,l),
(851,409,l),
(672,398,o),
(462,383,o),
(310,369,q),
(277,368,o)
);
},
{
closed = 1;
nodes = (
(471,344,l),
(471,502,o),
(468,631,q),
(467,660,o),
(445,727,o),
(423,751,q),
(434,763,l),
(541,677,l),
(532,630,o),
(532,574,q),
(532,158,o),
(533,-51,q),
(470,-58,l),
(470,28,l)
);
},
{
closed = 1;
nodes = (
(861,83,q),
(859,31,o),
(854,-37,o),
(847,-73,q),
(842,-97,o),
(821,-144,o),
(811,-154,q),
(805,-160,o),
(802,-154,q),
(750,-47,l),
(768,-52,o),
(783,-60,o),
(784,-60,q),
(786,-60,o),
(787,-53,o),
(787,-52,q),
(795,-6,o),
(799,64,o),
(799,119,q),
(799,148,o),
(776,215,o),
(754,239,q),
(765,251,l),
(871,162,l),
(863,129,o)
);
},
{
closed = 1;
nodes = (
(610,-39,q),
(661,-34,o),
(716,-24,o),
(740,-10,q),
(744,-8,o),
(749,-11,q),
(841,-64,l),
(838,-79,l),
(724,-85,l),
(686,-87,o),
(442,-100,o),
(276,-113,q),
(226,-117,o),
(213,-127,q),
(182,-150,l),
(175,-155,o),
(172,-150,q),
(127,-87,l),
(123,-81,o),
(127,-77,q),
(141,-67,o),
(160,-20,o),
(162,14,q),
(164,44,o),
(164,88,q),
(164,114,o),
(139,179,o),
(119,201,q),
(130,213,l),
(232,130,l),
(226,111,o),
(222,48,o),
(220,-50,q),
(220,-59,o),
(224,-65,o),
(231,-65,q),
(374,-57,o)
);
}
);
width = 1000;
}
);
unicode = 101177;
}
{
glyphname = u18B3A;
layers = (
{
layerId = master01;
shapes = (
{
closed = 1;
nodes = (
(527,575,q),
(526,210,l),
(524,-38,o),
(524,-156,q),
(511,-162,l),
(446,-94,l),
(444,-92,o),
(446,-85,q),
(458,-58,o),
(460,-20,q),
(465,118,o),
(465,371,q),
(465,529,o),
(462,632,q),
(461,663,o),
(441,728,o),
(419,752,q),
(430,764,l),
(537,678,l),
(527,635,o)
);
},
{
closed = 1;
nodes = (
(859,280,q),
(856,200,o),
(845,134,q),
(840,110,o),
(819,63,o),
(809,53,q),
(803,47,o),
(800,53,q),
(748,160,l),
(766,155,o),
(781,147,o),
(782,147,q),
(784,147,o),
(785,154,o),
(785,155,q),
(793,200,o),
(797,266,o),
(797,316,q),
(797,342,o),
(774,402,o),
(752,426,q),
(763,438,l),
(869,359,l),
(861,326,o)
);
},
{
closed = 1;
nodes = (
(603,168,q),
(654,173,o),
(709,183,o),
(733,197,q),
(737,199,o),
(742,196,q),
(834,143,l),
(831,128,l),
(720,122,l),
(495,111,o),
(270,94,q),
(220,90,o),
(207,80,q),
(176,57,l),
(169,52,o),
(166,57,q),
(121,120,l),
(117,126,o),
(121,130,q),
(134,140,o),
(154,182,o),
(156,211,q),
(158,241,o),
(158,285,q),
(158,308,o),
(133,366,o),
(113,388,q),
(124,400,l),
(226,327,l),
(220,308,o),
(216,248,o),
(214,157,q),
(214,148,o),
(218,142,o),
(225,142,q),
(364,150,o)
);
},
{
closed = 1;
nodes = (
(225,480,o),
(185,472,q),
(107,530,l),
(112,543,l),
(153,538,o),
(202,538,q),
(238,538,o),
(272,541,q),
(340,545,o),
(598,564,q),
(688,571,l),
(737,575,o),
(794,587,o),
(818,601,q),
(822,603,o),
(827,600,q),
(920,548,l),
(917,533,l),
(849,529,l),
(670,518,o),
(460,503,o),
(308,489,q),
(275,488,o)
);
}
);
width = 1000;
}
);
unicode = 101178;
}
{
glyphname = u18B3C;
layers = (
{
layerId = master01;
shapes = (
{
closed = 1;
nodes = (
(468,454,o),
(466.333,383.667,o),
(467,363,cs),
(467,353,o),
(470.667,348,o),
(478,348,cs),
(499.333,348,o),
(529.667,350.333,o),
(569,355,cs),
(613,359,o),
(648,374,o),
(674,400,cs),
(678,404,o),
(681.667,404,o),
(685,400,cs),
(740,338,l),
(744,334.667,o),
(744,331,o),
(740,327,cs),
(720,309,ls),
(712,302.333,o),
(708.667,297,o),
(706,289,c),
(654,171.667,o),
(527.333,46,o),
(350,-54,cs),
(261.333,-104,o),
(165,-143,o),
(61,-171,c),
(52,-140,l),
(332.043,-38.166,o),
(570.007,143.517,o),
(629,291,cs),
(631,297,o),
(632,301.333,o),
(632,304,cs),
(632,309.333,o),
(628,311.333,o),
(620,310,cs),
(475,298,ls),
(469,297.333,o),
(462,294.333,o),
(454,289,cs),
(424,268,ls),
(419.333,265.333,o),
(415.667,265.333,o),
(413,268,cs),
(363,330,ls),
(359.667,334,o),
(359.667,337.667,o),
(363,341,cs),
(385,363,o),
(399,388,o),
(405,416,cs),
(411,443.333,o),
(414,515.667,o),
(414,633,cs),
(414,673,o),
(401,722.667,o),
(373,756,c),
(384,767,l),
(485,679,l),
(478.333,653.667,o),
(474,618.667,o),
(472,574,cs)
);
},
{
closed = 1;
nodes = (
(201.333,489,o),
(160.667,482.667,o),
(118,474,c),
(42,532,l),
(47,545,l),
(79.667,542.333,o),
(112,541,o),
(144,541,cs),
(171.333,541,o),
(191.667,541.667,o),
(205,543,cs),
(253,546,ls),
(427,556,o),
(579.333,567.333,o),
(710,580,cs),
(775.333,585.333,o),
(807,591,o),
(839,611,cs),
(841.667,612.333,o),
(844.667,612,o),
(848,610,cs),
(940,557,l),
(937,542,l),
(721,530,o),
(488.667,513.667,o),
(240,493,cs)
);
},
{
closed = 1;
nodes = (
(293.333,237.667,o),
(335.333,209.333,o),
(420,152,cs),
(496.667,99.333,o),
(565.333,53.667,o),
(626,15,cs),
(739.333,-55.667,o),
(822.667,-84.667,o),
(932,-102,c),
(931,-128,l),
(720,-149,l),
(717,-149,ls),
(713.667,-149,o),
(709.667,-147.333,o),
(705,-144,c),
(613,-57.333,o),
(418.333,90.333,o),
(237,221,cs),
(205,243.667,o),
(166.333,252.667,o),
(113,250,c),
(107,264,l),
(209,307,l),
(236.333,279.667,o),
(264.667,256.333,o),
(294,237,cs)
);
}
);
width = 1000;
}
);
unicode = 101180;
}
{
glyphname = u18B3D;
layers = (
{
layerId = master01;
shapes = (
{
closed = 1;
nodes = (
(670,343,o),
(695,347,q),
(766,361,o),
(800,395,q),
(805,400,o),
(810,395,q),
(864,332,l),
(869,328,o),
(864,323,q),
(839,300,l),
(833,295,o),
(829,289,o),
(829,283,q),
(829,129,o),
(816,-26,o),
(802,-90,q),
(791,-138,o),
(767,-161,q),
(764,-164,o),
(761,-164,q),
(759,-164,o),
(752,-159,q),
(709,-120,o),
(638,-62,o),
(591,-32,q),
(603,-10,l),
(728,-68,l),
(732,-70,o),
(734,-70,q),
(741,-70,o),
(744,-59,q),
(754,-21,o),
(767,139,o),
(767,229,q),
(767,271,o),
(766,291,q),
(766,298,o),
(761,303,o),
(756,302,q),
(564,285,l),
(407,272,o),
(227,254,q),
(223,306,l),
(353,315,o)
);
},
{
closed = 1;
nodes = (
(474,591,o),
(473,632,q),
(472,661,o),
(450,728,o),
(428,752,q),
(439,764,l),
(543,678,l),
(534,631,o),
(534,575,q),
(534,311,l),
(474,304,l),
(474,474,l)
);
},
{
closed = 1;
nodes = (
(251,201,q),
(251,-151,l),
(237,-157,l),
(174,-89,l),
(171,-86,o),
(174,-80,q),
(189,-49,o),
(189,-15,q),
(189,5,o),
(190,15,q),
(191,122,l),
(191,151,o),
(189,233,q),
(189,258,l),
(188,288,o),
(168,354,o),
(147,378,q),
(157,390,l),
(259,304,l),
(251,262,o)
);
},
{
closed = 1;
nodes = (
(118,464,q),
(42,522,l),
(47,535,l),
(96,531,o),
(144,531,q),
(185,531,o),
(205,533,q),
(253,536,l),
(514,551,o),
(710,570,q),
(759,574,o),
(815,586,o),
(839,601,q),
(843,603,o),
(848,600,q),
(940,547,l),
(937,532,l),
(613,514,o),
(240,483,q),
(182,477,o)
);
}
);
width = 1000;
}
);
unicode = 101181;
}
{
glyphname = u18B3E;
layers = (
{
layerId = master01;
shapes = (
{
closed = 1;
nodes = (
(829,616,o),
(851,630,q),
(856,635,o),
(862,635,q),
(867,635,o),
(871,631,q),
(940,561,l),
(943,558,o),
(943,555,q),
(943,549,o),
(934,545,q),
(888,547,o),
(863,547,q),
(809,547,o),
(731,542,q),
(492,526,o),
(270,505,q),
(180,495,o),
(139,486,q),
(133,482,o),
(127,482,q),
(123,482,o),
(115,486,q),
(46,532,l),
(41,535,o),
(41,540,q),
(41,546,o),
(49,549,q),
(99,548,o),
(240,556,q),
(352,562,o),
(623,584,o),
(711,594,q),
(761,600,o)
);
},
{
closed = 1;
nodes = (
(670,383,o),
(695,387,q),
(766,401,o),
(800,435,q),
(805,440,o),
(810,435,q),
(864,372,l),
(869,368,o),
(864,363,q),
(839,340,l),
(833,335,o),
(829,329,o),
(829,323,q),
(829,133,o),
(820,-29,o),
(800,-102,q),
(793,-128,o),
(778,-163,o),
(767,-173,q),
(764,-176,o),
(761,-176,q),
(759,-176,o),
(752,-171,q),
(709,-132,o),
(638,-74,o),
(591,-44,q),
(603,-22,l),
(728,-80,l),
(732,-82,o),
(734,-82,q),
(740,-82,o),
(743,-71,q),
(768,13,o),
(768,199,q),
(768,247,o),
(766,331,q),
(766,338,o),
(761,343,o),
(756,342,q),
(564,325,l),
(407,312,o),
(227,294,q),
(223,346,l),
(353,355,o)
);
},
{
closed = 1;
nodes = (
(474,591,o),
(473,632,q),
(472,661,o),
(450,728,o),
(428,752,q),
(439,764,l),
(543,678,l),
(534,631,o),
(534,575,q),
(534,339,l),
(474,332,l),
(474,488,l)
);
},
{
closed = 1;
nodes = (
(251,239,q),
(251,-172,l),
(237,-178,l),
(174,-110,l),
(171,-107,o),
(174,-101,q),
(189,-70,o),
(189,-36,q),
(189,-13,o),
(190,-2,q),
(191,131,l),
(190,262,l),
(189,273,o),
(189,296,q),
(188,326,o),
(168,392,o),
(147,416,q),
(157,428,l),
(259,342,l),
(251,300,o)
);
},
{
closed = 1;
nodes = (
(118,484,q),
(42,542,l),
(47,555,l),
(96,551,o),
(144,551,q),
(185,551,o),
(205,553,q),
(253,556,l),
(514,571,o),
(710,590,q),
(759,594,o),
(815,606,o),
(839,621,q),
(843,623,o),
(848,620,q),
(940,567,l),
(937,552,l),
(613,534,o),
(240,503,q),
(182,497,o)
);
},
{
closed = 1;
nodes = (
(568,159,o),
(618,133,q),
(624,129,o),
(625,123,q),
(640,36,l),
(625,25,l),
(563,80,o),
(448,161,o),
(360,211,q),
(368,234,l),
(431,215,o)
);
}
);
width = 1000;
}
);
unicode = 101182;
}
{
glyphname = u18B3F;
layers = (
{
layerId = master01;
shapes = (
{
closed = 1;
nodes = (
(537,581,q),
(536,211,l),
(534,-41,o),
(534,-160,q),
(521,-166,l),
(459,-98,l),
(457,-96,o),
(459,-89,q),
(471,-62,o),
(473,-24,q),
(478,114,o),
(478,365,q),
(478,523,o),
(475,638,q),
(474,669,o),
(454,734,o),
(432,758,q),
(443,770,l),
(547,684,l),
(537,641,o)
);
},
{
closed = 1;
nodes = (
(211,306,o),
(191,371,o),
(169,395,q),
(180,407,l),
(284,321,l),
(274,278,o),
(274,218,q),
(274,118,l),
(215,114,l),
(212,275,l)
);
},
{
closed = 1;
nodes = (
(120,72,q),
(44,130,l),
(49,143,l),
(95,138,o),
(147,138,q),
(167,138,o),
(207,140,q),
(375,149,o),
(676,176,q),
(713,179,l),
(763,183,o),
(818,194,o),
(842,208,q),
(846,210,o),
(850,207,o),
(851,207,q),
(942,154,l),
(939,139,l),
(744,129,o),
(330,96,o),
(286,93,q),
(270,91,o),
(242,89,q),
(186,86,o)
);
},
{
closed = 1;
nodes = (
(181,452,q),
(105,510,l),
(110,523,l),
(156,518,o),
(208,518,q),
(228,518,o),
(268,520,q),
(358,526,l),
(399,529,o),
(534,538,o),
(620,545,q),
(668,549,o),
(725,561,o),
(749,575,q),
(753,577,o),
(757,574,o),
(758,574,q),
(849,523,l),
(846,508,l),
(659,498,o),
(303,470,q),
(246,465,o)
);
}
);
width = 1000;
}
);
unicode = 101183;
}
{
glyphname = u18B40;
layers = (
{
layerId = master01;
shapes = (
{
closed = 1;
nodes = (
(629,373,o),
(679,382,q),
(749,396,o),
(783,430,q),
(788,435,o),
(793,430,q),
(851,367,l),
(856,363,o),
(851,358,q),
(826,335,l),
(820,330,o),
(816,323,o),
(816,318,q),
(813,215,o),
(802,102,o),
(788,45,q),
(783,23,o),
(765,-21,o),
(757,-32,q),
(751,-39,o),
(745,-33,q),
(714,0,o),
(644,55,o),
(590,88,q),
(602,107,l),
(711,64,l),
(717,61,o),
(720,61,q),
(724,61,o),
(727,73,q),
(740,122,o),
(750,235,o),
(752,325,q),
(752,337,o),
(742,336,q),
(659,327,o),
(423,307,q),
(255,293,o),
(234,290,q),
(228,343,l),
(295,346,o)
);
},
{
closed = 1;
nodes = (
(524,581,q),
(523,211,l),
(521,-41,o),
(521,-160,q),
(508,-166,l),
(446,-98,l),
(444,-96,o),
(446,-89,q),
(458,-62,o),
(460,-24,q),
(465,114,o),
(465,365,q),
(465,523,o),
(462,638,q),
(461,669,o),
(441,734,o),
(419,758,q),
(430,770,l),
(534,684,l),
(524,641,o)
);
},
{
closed = 1;
nodes = (
(114,498,q),
(38,556,l),
(43,569,l),
(89,564,o),
(141,564,q),
(161,564,o),
(201,566,q),
(415,578,o),
(728,604,q),
(778,608,o),
(833,619,o),
(857,633,q),
(861,635,o),
(865,632,o),
(866,632,q),
(957,579,l),
(954,564,l),
(651,547,o),
(236,515,q),
(180,512,o)
);
},
{
closed = 1;
nodes = (
(254,225,q),
(254,-33,l),
(241,-39,l),
(179,29,l),
(176,32,o),
(179,38,q),
(194,70,o),
(194,103,q),
(194,155,l),
(194,242,o),
(193,282,q),
(192,312,o),
(173,378,o),
(152,402,q),
(162,414,l),
(263,328,l),
(254,289,o)
);
}
);
width = 1000;
}
);
unicode = 101184;
}
{
glyphname = u18B42;
layers = (
{
layerId = master01;
shapes = (
{
closed = 1;
nodes = (
(103,-126,q),
(28,-67,l),
(33,-54,l),
(93,-60,o),
(139,-60,q),
(157,-60,o),
(191,-58,q),
(401,-49,o),
(744,-25,q),
(794,-22,o),
(850,-11,o),
(873,3,q),
(877,5,o),
(881,2,o),
(882,2,q),
(973,-52,l),
(970,-67,l),
(603,-83,o),
(225,-109,q),
(160,-114,o)
);
},
{
closed = 1;
nodes = (
(472,591,o),
(471,632,q),
(470,661,o),
(448,728,o),
(426,752,q),
(437,764,l),
(541,678,l),
(532,631,o),
(532,575,q),
(532,-64,l),
(472,-71,l),
(472,287,l)
);
},
{
closed = 1;
nodes = (
(691,231,o),
(720,284,q),
(739,324,o),
(739,361,q),
(739,372,o),
(738,377,q),
(753,381,l),
(807,269,l),
(796,259,o),
(784,244,q),
(768,226,o),
(759,218,q),
(704,163,o),
(590,64,o),
(520,21,q),
(502,46,l),
(573,100,o)
);
},
{
closed = 1;
nodes = (
(351,151,q),
(355,147,o),
(352,139,q),
(330,46,l),
(308,44,l),
(279,118,o),
(213,245,o),
(159,321,q),
(180,337,l),
(299,218,o)
);
},
{
closed = 1;
nodes = (
(182,420,q),
(106,478,l),
(111,491,l),
(157,486,o),
(209,486,q),
(229,486,o),
(269,488,q),
(509,503,o),
(693,520,q),
(743,524,o),
(798,535,o),
(822,549,q),
(826,551,o),
(830,548,o),
(831,548,q),
(922,495,l),
(919,480,l),
(620,463,o),
(304,437,q),
(248,434,o)
);
}
);
width = 1000;
}
);
unicode = 101186;
}
{
glyphname = u18B43;
layers = (
{
layerId = master01;
shapes = (
{
closed = 1;
nodes = (
(470,591,o),
(469,632,q),
(468,661,o),
(446,728,o),
(424,752,q),
(435,764,l),
(539,678,l),
(530,631,o),
(530,575,q),
(530,-54,l),
(470,-61,l),
(470,292,l)
);
},
{
closed = 1;
nodes = (
(188,452,q),
(111,510,l),
(116,523,l),
(162,518,o),
(215,518,q),
(236,518,o),
(276,520,q),
(380,525,o),
(655,545,q),
(691,548,l),
(742,553,o),
(797,563,o),
(821,577,q),
(825,579,o),
(830,576,q),
(922,523,l),
(919,508,l),
(712,497,o),
(485,483,o),
(311,469,q),
(256,466,o)
);
},
{
closed = 1;
nodes = (
(206,207,q),
(205,237,o),
(186,303,o),
(165,327,q),
(175,339,l),
(278,253,l),
(268,210,o),
(268,150,q),
(268,-74,l),
(210,-81,l),
(210,96,o)
);
},
{
closed = 1;
nodes = (
(675,305,o),
(695,309,q),
(738,318,o),
(760,341,q),
(766,345,o),
(771,341,q),
(823,298,l),
(828,295,o),
(823,289,q),
(809,270,l),
(804,263,o),
(802,255,q),
(798,239,o),
(785,-18,o),
(785,-46,q),
(723,-55,l),
(727,17,o),
(736,205,o),
(737,249,q),
(737,253,l),
(737,257,o),
(730,257,q),
(648,250,o),
(280,215,o),
(238,209,q),
(239,261,l),
(353,273,l)
);
},
{
closed = 1;
nodes = (
(103,-126,q),
(28,-67,l),
(33,-54,l),
(93,-60,o),
(139,-60,q),
(157,-60,o),
(191,-58,q),
(401,-49,o),
(744,-25,q),
(794,-22,o),
(850,-11,o),
(873,3,q),
(877,5,o),
(881,2,o),
(882,2,q),
(973,-52,l),
(970,-67,l),
(603,-83,o),
(225,-109,q),
(160,-114,o)
);
}
);
width = 1000;
}
);
unicode = 101187;
}
{
glyphname = u18B44;
layers = (
{
layerId = master01;
shapes = (
{
closed = 1;
nodes = (
(697,410,o),
(711,413,q),
(754,422,o),
(776,445,q),
(782,449,o),
(787,445,q),
(839,402,l),
(843,399,o),
(839,393,q),
(825,374,l),
(820,367,o),
(818,359,q),
(814,337,o),
(798,207,o),
(794,166,q),
(732,157,l),
(739,211,o),
(751,326,o),
(753,353,q),
(753,357,l),
(753,361,o),
(746,361,q),
(663,354,o),
(294,319,o),
(252,314,q),
(253,366,l),
(383,379,l)
);
},
{
closed = 1;
nodes = (
(281,260,q),
(280,50,l),
(267,44,l),
(205,112,l),
(202,115,o),
(205,121,q),
(220,153,o),
(220,186,q),
(220,317,l),
(220,346,o),
(200,413,o),
(179,437,q),
(189,449,l),
(290,363,l),
(281,324,o)
);
},
{
closed = 1;
nodes = (
(468,591,o),
(467,632,q),
(466,661,o),
(444,728,o),
(422,752,q),
(433,764,l),
(537,678,l),
(528,631,o),
(528,575,q),
(528,-54,l),
(468,-61,l),
(468,292,l)
);
},
{
closed = 1;
nodes = (
(622,185,q),
(670,190,o),
(727,203,o),
(751,217,q),
(755,219,o),
(760,216,q),
(853,167,l),
(850,152,l),
(670,139,o),
(433,120,o),
(252,102,q),
(248,152,l),
(429,167,o)
);
},
{
closed = 1;
nodes = (
(103,-126,q),
(28,-67,l),
(33,-54,l),
(93,-60,o),
(139,-60,q),
(157,-60,o),
(191,-58,q),
(401,-49,o),
(744,-25,q),
(794,-22,o),
(850,-11,o),
(873,3,q),
(877,5,o),
(881,2,o),
(882,2,q),
(973,-52,l),
(970,-67,l),
(603,-83,o),
(225,-109,q),
(160,-114,o)
);
},
{
closed = 1;
nodes = (
(194,507,q),
(117,564,l),
(122,577,l),
(167,574,o),
(202,574,q),
(242,574,o),
(280,577,q),
(504,594,o),
(647,609,q),
(693,613,o),
(751,626,o),
(775,641,q),
(779,643,o),
(783,640,o),
(784,640,q),
(876,590,l),
(873,575,l),
(683,562,o),
(316,527,q),
(253,521,o)
);
}
);
width = 1000;
}
);
unicode = 101188;
}
{
glyphname = u18B45;
layers = (
{
layerId = master01;
shapes = (
{
closed = 1;
nodes = (
(469,501.333,o),
(468.667,614.667,o),
(468,642,cs),
(466.667,680.667,o),
(452.333,730,o),
(423,762,c),
(434,774,l),
(538,688,l),
(532,656.667,o),
(529,622.333,o),
(529,585,cs),
(529,-44,l),
(469,-51,l),
(469,302,l),
(469,302,l)
);
},
{
closed = 1;
nodes = (
(292.333,225.667,o),
(342.333,192.667,o),
(397,152,c),
(401,148,o),
(403,144,o),
(403,140,cs),
(407,46,l),
(388,38,l),
(350.667,98,o),
(293.333,170.667,o),
(232,232,c),
(247,251,l),
(247,251,l)
);
},
{
closed = 1;
nodes = (
(770,254.667,o),
(835.333,207,o),
(878,175,c),
(882,171,o),
(884,167,o),
(884,163,cs),
(888,69,l),
(869,61,l),
(833,119.667,o),
(767,201,o),
(703,265,c),
(718,284,l),
(718,284,l)
);
},
{
closed = 1;
nodes = (
(151,130,o),
(244,289,o),
(264,365,c),
(267.333,383.667,o),
(269,398.667,o),
(269,410,cs),
(269,428.667,o),
(266,445,o),
(260,459,c),
(274,467,l),
(352,370,l),
(344.667,359.333,o),
(339,349.333,o),
(335,340,c),
(317,309,ls),
(262.333,219.667,o),
(172.667,91.333,o),
(82,-2,c),
(59,18,l),
(59,18,l)
);
},
{
closed = 1;
nodes = (
(621.333,166.667,o),
(689.333,314,o),
(704,394,cs),
(705.333,404.667,o),
(706,415.333,o),
(706,426,cs),
(706,451.333,o),
(702,472,o),
(694,488,c),
(707,496,l),
(792,405,l),
(777,375,ls),
(770.333,360.333,o),
(765,349.333,o),
(761,342,cs),
(705,234,o),
(646.667,131.667,o),
(564,33,c),
(540,52,l),
(540,52,l)
);
},
{
closed = 1;
nodes = (
(181.667,-92.333,o),
(141,-98,o),
(103,-106,c),
(28,-47,l),
(33,-34,l),
(73,-38,o),
(108.333,-40,o),
(139,-40,cs),
(151,-40,o),
(168.333,-39.333,o),
(191,-38,cs),
(331,-32,o),
(515.333,-21,o),
(744,-5,cs),
(810.667,-1,o),
(842.333,4.333,o),
(873,23,cs),
(875.667,24.333,o),
(877.667,24.5,o),
(879,23.5,cs),
(880.333,22.5,o),
(881.333,22,o),
(882,22,c),
(973,-32,l),
(970,-47,l),
(725.333,-57.667,o),
(477,-71.667,o),
(225,-89,cs)
);
},
{
closed = 1;
nodes = (
(239.667,510.667,o),
(198.667,504.667,o),
(154,496,c),
(77,553,l),
(82,566,l),
(114,563.333,o),
(146,562,o),
(178,562,cs),
(192.667,562,o),
(214,562.667,o),
(242,564,cs),
(360,570.667,o),
(507.333,581.333,o),
(684,596,cs),
(749.333,601.333,o),
(782,607.333,o),
(814,626,cs),
(816.667,627.333,o),
(819.667,627,o),
(823,625,cs),
(915,573,l),
(912,558,l),
(685.333,544.667,o),
(502.333,532.667,o),
(277,514,cs)
);
}
);
width = 1000;
}
);
unicode = 101189;
}
{
glyphname = u18B48;
layers = (
{
layerId = master01;
shapes = (
{
closed = 1;
nodes = (
(736,296,q),
(793,230,o),
(897,156,o),
(968,147,q),
(968,124,l),
(806,112,l),
(801,112,l),
(789,112,o),
(786,118,q),
(730,208,o),
(608,378,o),
(514,503,q),
(538,536,l),
(662,383,o)
);
},
{
closed = 1;
nodes = (
(471,489,l),
(317,225,o),
(42,53,q),
(27,78,l),
(286,270,o),
(401,507,q),
(471,524,l)
);
},
{
closed = 1;
nodes = (
(466,582,o),
(464,635,q),
(463,665,o),
(444,731,o),
(423,755,q),
(433,767,l),
(539,681,l),
(529,638,o),
(529,578,q),
(529,-66,l),
(468,-73,l),
(468,68,o)
);
},
{
closed = 1;
nodes = (
(239,-127,q),
(170,-71,l),
(175,-59,l),
(217,-64,o),
(260,-64,q),
(287,-64,o),
(299,-63,q),
(347,-60,l),
(574,-46,o),
(651,-35,q),
(695,-28,o),
(728,-12,q),
(732,-10,o),
(737,-13,q),
(820,-58,l),
(817,-75,l),
(763,-78,o),
(416,-105,o),
(332,-113,q),
(279,-118,o)
);
},
{
closed = 1;
nodes = (
(349,111,q),
(278,162,l),
(283,174,l),
(322,171,o),
(351,171,q),
(376,171,o),
(410,173,q),
(512,181,o),
(558,188,q),
(591,193,o),
(621,207,o),
(625,209,q),
(629,211,o),
(634,209,q),
(720,167,l),
(717,150,l),
(659,147,o),
(486,132,o),
(445,127,q),
(396,122,o)
);
},
{
closed = 1;
nodes = (
(144,450,q),
(66,507,l),
(71,520,l),
(119,517,o),
(157,517,q),
(183,517,o),
(231,519,q),
(507,540,o),
(691,556,q),
(737,560,o),
(796,574,o),
(821,589,q),
(825,591,o),
(830,588,q),
(923,536,l),
(920,521,l),
(764,509,o),
(742,507,q),
(627,498,o),
(398,480,o),
(266,469,q),
(196,462,o)
);
}
);
width = 1000;
}
);
unicode = 101192;
}
{
glyphname = u18B49;
layers = (
{
layerId = master01;
shapes = (
{
closed = 1;
nodes = (
(298,-121,q),
(224,-66,l),
(229,-53,l),
(275,-58,o),
(323,-58,q),
(341,-58,o),
(381,-56,q),
(414,-54,l),
(495,-50,o),
(528,-46,q),
(564,-41,o),
(611,-30,o),
(635,-16,q),
(640,-14,o),
(644,-17,q),
(735,-69,l),
(732,-84,l),
(559,-94,o),
(416,-105,q),
(350,-110,o)
);
},
{
closed = 1;
nodes = (
(598,608,o),
(566,627,q),
(572,643,l),
(683,614,l),
(684,590,o),
(688,558,o),
(697,523,q),
(743,336,o),
(803,135,q),
(830,46,o),
(871,-41,o),
(924,-85,o),
(973,-102,q),
(971,-125,l),
(827,-135,l),
(823,-135,l),
(812,-135,o),
(810,-128,q),
(720,206,o),
(639,533,q),
(632,562,o)
);
},
{
closed = 1;
nodes = (
(167,-29,o),
(64,-150,q),
(41,-133,l),
(136,3,o),
(272,358,o),
(294,512,q),
(296,526,o),
(296,535,q),
(296,561,o),
(281,618,o),
(267,639,q),
(280,650,l),
(382,546,l),
(374,529,o),
(360,483,o),
(352,449,q),
(315,295,o)
);
},
{
closed = 1;
nodes = (
(456,582,o),
(454,635,q),
(453,665,o),
(434,731,o),
(413,755,q),
(423,767,l),
(529,681,l),
(519,638,o),
(519,578,q),
(519,-66,l),
(458,-73,l),
(458,68,o)
);
},
{
closed = 1;
nodes = (
(144,320,q),
(66,377,l),
(71,390,l),
(119,387,o),
(157,387,q),
(183,387,o),
(231,389,q),
(301,395,o),
(355,398,q),
(509,409,o),
(702,426,q),
(748,430,o),
(807,444,o),
(832,459,q),
(836,461,o),
(841,458,q),
(934,406,l),
(931,391,l),
(874,386,o),
(705,374,q),
(375,349,o),
(266,339,q),
(196,332,o)
);
}
);
width = 1000;
}
);
unicode = 101193;
}
{
glyphname = u18B4A;
layers = (
{
layerId = master01;
shapes = (
{
closed = 1;
nodes = (
(190,204,o),
(55,144,q),
(40,170,l),
(344,349,o),
(484,558,q),
(503,548,l),
(506,480,l),
(420,376,o)
);
},
{
closed = 1;
nodes = (
(870,-77,q),
(873,-80,o),
(872,-88,q),
(858,-176,l),
(844,-178,l),
(735,-45,o),
(542,86,q),
(558,110,l),
(757,6,o)
);
},
{
closed = 1;
nodes = (
(411,85,o),
(470,315,o),
(470,511,q),
(470,575,o),
(469,609,q),
(467,703,o),
(425,750,q),
(436,762,l),
(547,676,l),
(538,646,o),
(538,605,q),
(538,552,l),
(538,325,o),
(474,65,o),
(275,-111,o),
(72,-171,q),
(60,-141,l),
(236,-76,o)
);
},
{
closed = 1;
nodes = (
(915,299,q),
(920,296,o),
(920,291,q),
(925,190,l),
(912,184,l),
(750,346,o),
(515,457,q),
(527,486,l),
(719,421,o)
);
},
{
closed = 1;
nodes = (
(155,498,q),
(78,556,l),
(83,569,l),
(129,564,o),
(182,564,q),
(203,564,o),
(243,566,q),
(480,582,o),
(692,600,q),
(741,604,o),
(798,616,o),
(822,630,q),
(826,632,o),
(831,629,q),
(923,577,l),
(920,562,l),
(643,544,o),
(300,517,q),
(278,515,l),
(214,510,o)
);
},
{
closed = 1;
nodes = (
(279,116,q),
(203,173,l),
(208,186,l),
(254,181,o),
(306,181,q),
(326,181,o),
(366,183,q),
(457,188,o),
(523,194,q),
(566,197,l),
(614,201,o),
(671,213,o),
(695,227,q),
(700,229,o),
(704,226,q),
(795,174,l),
(792,159,l),
(711,155,o),
(453,138,q),
(401,134,l),
(344,129,o)
);
}
);
width = 1000;
}
);
unicode = 101194;
}
{
glyphname = u18B4B;
layers = (
{
layerId = master01;
shapes = (
{
closed = 1;
nodes = (
(181,86,o),
(49,-16,q),
(30,5,l),
(160,128,o),
(337,363,o),
(399,498,q),
(440,438,l),
(381,321,o)
);
},
{
closed = 1;
nodes = (
(627,244,o),
(699,192,q),
(703,189,o),
(703,184,q),
(693,78,l),
(677,74,l),
(572,221,o),
(416,342,q),
(432,369,l),
(502,329,o)
);
},
{
closed = 1;
nodes = (
(170,434,q),
(103,486,l),
(108,498,l),
(139,494,o),
(170,494,q),
(179,494,o),
(230,497,q),
(417,506,o),
(541,525,q),
(585,532,o),
(618,548,q),
(622,550,o),
(627,547,q),
(710,503,l),
(707,486,l),
(657,483,o),
(340,456,o),
(263,448,q),
(210,443,o)
);
},
{
closed = 1;
nodes = (
(451,581,q),
(450,211,l),
(448,-41,o),
(448,-160,q),
(435,-166,l),
(372,-98,l),
(370,-96,o),
(372,-89,q),
(384,-62,o),
(386,-24,q),
(391,114,o),
(391,365,q),
(391,523,o),
(388,638,q),
(387,669,o),
(367,734,o),
(345,758,q),
(356,770,l),
(461,684,l),
(451,641,o)
);
},
{
closed = 1;
nodes = (
(876,581,q),
(875,211,l),
(873,-41,o),
(873,-160,q),
(860,-166,l),
(797,-98,l),
(795,-96,o),
(797,-89,q),
(809,-62,o),
(811,-24,q),
(816,114,o),
(816,365,q),
(816,523,o),
(813,638,q),
(812,669,o),
(792,734,o),
(770,758,q),
(781,770,l),
(886,684,l),
(876,641,o)
);
}
);
width = 1000;
}
);
unicode = 101195;
}
{
glyphname = u18B4D;
layers = (
{
layerId = master01;
shapes = (
{
closed = 1;
nodes = (
(200,276,o),
(175,268,q),
(97,325,l),
(102,337,l),
(134,334,o),
(165,334,q),
(200,334,o),
(260,338,q),
(306,342,l),
(386,349,o),
(406,352,q),
(447,360,o),
(470,385,q),
(475,390,o),
(481,385,q),
(534,347,l),
(539,344,o),
(535,338,q),
(520,316,l),
(515,309,o),
(513,301,q),
(508,281,o),
(488,139,o),
(488,121,q),
(427,112,l),
(432,166,o),
(440,222,q),
(448,296,o),
(448,295,q),
(448,299,l),
(448,303,o),
(441,303,q),
(372,297,l),
(358,296,o),
(321,292,o),
(297,290,q),
(256,286,o)
);
},
{
closed = 1;
nodes = (
(752,88,o),
(755,11,q),
(757,-25,o),
(752,-54,q),
(746,-87,o),
(732,-123,o),
(720,-141,q),
(713,-153,o),
(707,-153,q),
(702,-153,o),
(695,-146,q),
(610,-62,o),
(479,14,q),
(492,39,l),
(668,-40,l),
(674,-42,o),
(675,-42,q),
(685,-42,o),
(687,-23,q),
(691,22,o),
(691,183,q),
(691,310,o),
(688,581,o),
(686,627,q),
(685,659,o),
(663,738,o),
(642,762,q),
(654,774,l),
(757,688,l),
(748,641,o),
(748,586,q),
(748,453,o)
);
},
{
closed = 1;
nodes = (
(134,476,q),
(57,534,l),
(62,547,l),
(108,542,o),
(161,542,q),
(182,542,o),
(222,544,q),
(414,556,o),
(714,583,q),
(765,588,o),
(820,598,o),
(844,612,q),
(848,614,o),
(853,611,q),
(945,558,l),
(942,543,l),
(721,530,o),
(428,506,q),
(257,493,l),
(202,490,o)
);
},
{
closed = 1;
nodes = (
(200,61,q),
(129,116,l),
(134,128,l),
(171,124,o),
(208,124,q),
(228,124,o),
(256,126,q),
(318,130,o),
(380,138,q),
(401,141,o),
(424,150,o),
(440,159,o),
(444,161,q),
(449,164,o),
(453,161,q),
(537,114,l),
(534,98,l),
(447,93,o),
(291,77,q),
(233,71,o)
);
}
);
width = 1000;
}
);
unicode = 101197;
}
{
glyphname = u18B4E;
layers = (
{
layerId = master01;
shapes = (
{
closed = 1;
nodes = (
(443,265,o),
(444,294,q),
(444,301,o),
(438,301,q),
(398,298,o),
(277,285,o),
(235,280,q),
(220,329,l),
(366,344,o),
(400,350,q),
(439,358,o),
(463,382,q),
(468,387,o),
(473,382,q),
(526,337,l),
(530,333,o),
(526,328,q),
(514,313,l),
(513,312,o),
(508,305,o),
(506,298,q),
(502,279,o),
(483,123,o),
(483,106,q),
(428,96,l),
(432,130,o)
);
},
{
closed = 1;
nodes = (
(749,85,o),
(752,7,q),
(754,-29,o),
(749,-58,q),
(743,-91,o),
(729,-127,o),
(717,-145,q),
(710,-157,o),
(704,-157,q),
(699,-157,o),
(692,-150,q),
(611,-68,o),
(500,-1,q),
(513,24,l),
(665,-44,l),
(671,-46,o),
(672,-46,q),
(682,-46,o),
(684,-27,q),
(688,18,o),
(688,180,q),
(688,309,o),
(685,580,o),
(683,627,q),
(682,659,o),
(660,738,o),
(639,762,q),
(651,774,l),
(754,688,l),
(745,641,o),
(745,586,q),
(745,452,o)
);
},
{
closed = 1;
nodes = (
(258,222,q),
(257,-28,l),
(244,-34,l),
(184,34,l),
(181,37,o),
(184,43,q),
(197,71,o),
(199,108,q),
(199,146,l),
(199,205,o),
(197,279,q),
(196,309,o),
(177,375,o),
(156,399,q),
(166,411,l),
(267,325,l),
(258,286,o)
);
},
{
closed = 1;
nodes = (
(385,127,q),
(417,131,o),
(446,146,o),
(449,147,q),
(453,149,o),
(458,146,q),
(540,101,l),
(537,84,l),
(473,81,o),
(303,69,o),
(236,63,q),
(237,114,l),
(359,123,o)
);
},
{
closed = 1;
nodes = (
(137,472,q),
(60,530,l),
(65,543,l),
(111,538,o),
(164,538,q),
(185,538,o),
(225,540,q),
(445,555,o),
(651,573,q),
(712,578,l),
(763,583,o),
(818,593,o),
(842,607,q),
(846,609,o),
(851,606,q),
(943,553,l),
(940,538,l),
(813,531,o),
(542,511,o),
(413,501,q),
(260,489,l),
(205,486,o)
);
}
);
width = 1000;
}
);
unicode = 101198;
}
{
glyphname = u18B50;
layers = (
{
layerId = master01;
shapes = (
{
closed = 1;
nodes = (
(806,-115,l),
(805,-115,o),
(802,-116,o),
(800,-115,q),
(788,-115,o),
(777,-103,q),
(639,84,o),
(523,198,q),
(551,228,l),
(574,206,o),
(679,104,q),
(724,59,o),
(724,59,q),
(775,11,o),
(841,-39,o),
(911,-67,o),
(959,-72,q),
(958,-98,l)
);
},
{
closed = 1;
nodes = (
(644,438,o),
(682,445,q),
(749,458,o),
(784,493,q),
(788,497,o),
(790,497,q),
(793,497,o),
(798,492,q),
(854,433,l),
(857,430,o),
(857,427,q),
(857,423,o),
(853,419,q),
(850,416,o),
(828,400,o),
(812,381,q),
(765,326,o),
(673,255,o),
(577,205,o),
(491,168,q),
(474,199,l),
(582,253,o),
(693,331,o),
(742,387,q),
(749,395,o),
(749,399,q),
(749,404,o),
(736,402,q),
(494,371,l),
(472,424,l),
(506,424,o)
);
},
{
closed = 1;
nodes = (
(239,59,o),
(137,-60,o),
(51,-117,q),
(34,-94,l),
(139,-14,o),
(237,176,o),
(252,300,q),
(254,312,o),
(254,333,q),
(254,379,o),
(231,433,q),
(245,443,l),
(334,357,l),
(323,328,o),
(315,288,q),
(295,193,o)
);
},
{
closed = 1;
nodes = (
(520,85,o),
(523,8,q),
(525,-28,o),
(520,-57,q),
(514,-90,o),
(500,-126,o),
(488,-144,q),
(481,-156,o),
(475,-156,q),
(470,-156,o),
(463,-149,q),
(366,-48,o),
(287,12,q),
(301,36,l),
(436,-47,l),
(439,-49,o),
(443,-49,q),
(453,-49,o),
(455,-30,q),
(459,15,o),
(459,177,q),
(459,306,o),
(456,578,o),
(454,625,q),
(453,657,o),
(431,736,o),
(410,760,q),
(421,772,l),
(525,686,l),
(516,639,o),
(516,583,q),
(516,450,o)
);
},
{
closed = 1;
nodes = (
(141,512,q),
(64,570,l),
(69,583,l),
(115,578,o),
(168,578,q),
(189,578,o),
(229,580,q),
(286,584,l),
(471,596,o),
(652,611,q),
(698,615,o),
(757,629,o),
(782,643,q),
(786,645,o),
(791,642,q),
(883,590,l),
(880,575,l),
(661,562,o),
(389,539,q),
(264,529,l),
(200,524,o)
);
}
);
width = 1000;
}
);
unicode = 101200;
}
{
glyphname = u18B51;
layers = (
{
layerId = master01;
shapes = (
{
closed = 1;
nodes = (
(385,179.667,o),
(353.667,190,o),
(317,190,cs),
(311.667,190,o),
(301.667,189.333,o),
(287,188,c),
(281,202,l),
(383,245,l),
(401,225.667,o),
(421.333,207.667,o),
(444,191,cs),
(476.667,167.667,o),
(530,130.333,o),
(604,79,cs),
(610.667,74.333,o),
(617.333,69.667,o),
(624,65,cs),
(630.667,60.333,o),
(637,56,o),
(643,52,cs),
(767,-33.333,o),
(823.333,-65.167,o),
(878,-80.5,cs),
(905.333,-88.167,o),
(940,-94,o),
(982,-98,c),
(982,-124,l),
(811,-144,l),
(807,-144,ls),
(800.333,-144,o),
(794.333,-142,o),
(789,-138,cs),
(651.667,-24.667,o),
(568.333,40.333,o),
(411,159,cs)
);
},
{
closed = 1;
nodes = (
(317.667,498.333,o),
(277,492.333,o),
(241,485,c),
(165,542,l),
(170,555,l),
(200.667,551.667,o),
(233.333,550,o),
(268,550,cs),
(281.333,550,o),
(301.333,550.667,o),
(328,552,cs),
(411.333,557.333,o),
(503,565,o),
(603,575,cs),
(623,577,ls),
(685.667,583.667,o),
(720,590.333,o),
(752,609,c),
(754.667,609.667,o),
(757.667,609.333,o),
(761,608,cs),
(852,559,l),
(849,544,l),
(662.333,530.667,o),
(539,520.333,o),
(363,503,cs)
);
},
{
closed = 1;
nodes = (
(561,454,o),
(559.333,383.667,o),
(560,363,cs),
(560,353,o),
(563.667,348,o),
(571,348,cs),
(593.667,348,o),
(614.333,349.667,o),
(633,353,cs),
(679,360.333,o),
(714,376,o),
(738,400,cs),
(742,404,o),
(745.667,404,o),
(749,400,cs),
(804,338,l),
(808,334.667,o),
(808,331,o),
(804,327,cs),
(784,309,ls),
(776,302.333,o),
(772.667,297,o),
(770,289,c),
(718,171.667,o),
(611,50.667,o),
(455,-48,cs),
(377,-97.333,o),
(290.333,-137,o),
(195,-167,c),
(183,-136,l),
(424.207,-42.308,o),
(628.34,129.351,o),
(693,291,cs),
(695,297,o),
(696,301.333,o),
(696,304,cs),
(696,309.333,o),
(692,311.333,o),
(684,310,cs),
(570,298,ls),
(564,297.333,o),
(557,294.333,o),
(549,289,cs),
(519,268,ls),
(514.333,265.333,o),
(510.667,265.333,o),
(508,268,cs),
(458,330,ls),
(454.667,334,o),
(454.667,337.667,o),
(458,341,cs),
(480,363,o),
(494,388,o),
(500,416,cs),
(506,443.333,o),
(509,515.667,o),
(509,633,cs),
(509,673,o),
(496,722.667,o),
(468,756,c),
(479,767,l),
(578,679,l),
(571.333,653.667,o),
(567,618.667,o),
(565,574,cs)
);
},
{
closed = 1;
nodes = (
(250.333,161,o),
(228.5,82.833,o),
(174.5,11.5,cs),
(147.5,-24.167,o),
(110.667,-57.667,o),
(64,-89,c),
(47,-68,l),
(156.333,20,o),
(199,133.667,o),
(203,291,cs),
(204.333,347,o),
(195.333,384,o),
(166,424,c),
(178,436,l),
(279,352,l),
(273.667,336,o),
(269,312.333,o),
(265,281,cs)
);
}
);
width = 1000;
}
);
unicode = 101201;
}
{
glyphname = u18B54;
layers = (
{
layerId = master01;
shapes = (
{
closed = 1;
nodes = (
(185,285,q),
(109,340,l),
(114,353,l),
(160,348,o),
(212,348,q),
(232,348,o),
(272,350,q),
(415,359,l),
(601,371,o),
(663,377,q),
(713,381,o),
(768,392,o),
(792,406,q),
(797,408,o),
(801,406,q),
(892,356,l),
(889,341,l),
(509,319,o),
(307,303,q),
(250,298,o)
);
},
{
closed = 1;
nodes = (
(465,552,o),
(463,624,q),
(462,653,o),
(439,720,o),
(417,744,q),
(428,756,l),
(536,670,l),
(526,627,o),
(526,567,q),
(526,-38,l),
(464,-45,l),
(465,357,l)
);
},
{
closed = 1;
nodes = (
(106,-109,q),
(29,-51,l),
(34,-38,l),
(80,-43,o),
(133,-43,q),
(154,-43,o),
(194,-41,q),
(532,-23,o),
(743,-4,q),
(794,1,o),
(849,11,o),
(873,25,q),
(877,27,o),
(882,24,q),
(974,-29,l),
(971,-44,l),
(584,-63,o),
(229,-92,q),
(174,-95,o)
);
}
);
width = 1000;
}
);
unicode = 101204;
}
{
glyphname = u18B55;
layers = (
{
layerId = master01;
shapes = (
{
closed = 1;
nodes = (
(116,-60,q),
(40,-5,l),
(45,8,l),
(86,4,o),
(131,4,q),
(154,4,o),
(202,6,q),
(308,13,o),
(506,25,o),
(603,32,q),
(756,43,l),
(824,47,o),
(885,75,q),
(892,78,o),
(895,75,q),
(958,14,l),
(962,11,o),
(958,7,q),
(943,-11,o),
(797,-149,o),
(769,-171,q),
(745,-147,l),
(779,-112,o),
(853,-24,o),
(862,-9,q),
(867,-1,o),
(859,-1,q),
(529,-19,o),
(238,-43,q),
(173,-48,o)
);
},
{
closed = 1;
nodes = (
(185,305,q),
(109,360,l),
(114,373,l),
(160,368,o),
(212,368,q),
(232,368,o),
(272,370,q),
(415,379,l),
(601,391,o),
(663,397,q),
(713,401,o),
(768,412,o),
(792,426,q),
(797,428,o),
(801,426,q),
(892,376,l),
(889,361,l),
(509,339,o),
(307,323,q),
(250,318,o)
);
},
{
closed = 1;
nodes = (
(465,552,o),
(463,624,q),
(462,653,o),
(439,720,o),
(417,744,q),
(428,756,l),
(536,670,l),
(526,627,o),
(526,567,q),
(526,4,l),
(464,-3,l),
(465,374,l)
);
}
);
width = 1000;
}
);
unicode = 101205;
}
{
glyphname = u18B56;
layers = (
{
layerId = master01;
shapes = (
{
closed = 1;
nodes = (
(428,354,q),
(433,359,o),
(437,354,q),
(499,293,l),
(504,289,o),
(499,284,q),
(471,259,l),
(465,254,o),
(458,238,q),
(411,106,o),
(189,-101,o),
(41,-155,q),
(28,-129,l),
(167,-65,o),
(360,138,o),
(391,255,q),
(392,259,l),
(392,267,o),
(383,265,q),
(271,255,o),
(210,245,q),
(203,244,o),
(150,234,o),
(133,229,q),
(64,278,l),
(69,291,l),
(85,289,o),
(117,289,q),
(153,289,o),
(182,292,q),
(259,300,l),
(321,305,o),
(360,313,q),
(395,321,o)
);
},
{
closed = 1;
nodes = (
(568,712,o),
(547,738,q),
(558,750,l),
(664,663,l),
(654,625,o),
(654,561,q),
(654,-3,l),
(654,-34,o),
(667,-56,o),
(689,-57,q),
(707,-58,o),
(746,-58,q),
(825,-58,o),
(875,-51,q),
(891,-50,o),
(901,-38,o),
(902,-22,q),
(910,135,l),
(934,135,l),
(939,74,o),
(961,-40,o),
(975,-82,q),
(976,-83,o),
(976,-86,q),
(976,-91,o),
(971,-93,q),
(934,-109,o),
(859,-116,q),
(815,-121,o),
(754,-121,q),
(730,-121,o),
(676,-119,q),
(630,-117,o),
(590,-69,o),
(590,-16,q),
(590,616,l),
(590,649,o)
);
},
{
closed = 1;
nodes = (
(880,310,q),
(885,308,o),
(885,301,q),
(887,204,l),
(872,197,l),
(823,247,o),
(684,355,o),
(611,393,q),
(617,423,l),
(741,379,o)
);
},
{
closed = 1;
nodes = (
(107,464,q),
(40,517,l),
(45,529,l),
(81,525,o),
(114,525,q),
(137,525,o),
(167,527,q),
(199,528,o),
(352,541,o),
(397,545,q),
(417,547,o),
(441,555,o),
(457,563,o),
(461,565,q),
(465,567,o),
(470,564,q),
(552,518,l),
(549,501,l),
(491,499,o),
(234,482,o),
(200,478,q),
(160,475,o)
);
},
{
closed = 1;
nodes = (
(254,631,q),
(253,662,o),
(233,727,o),
(211,751,q),
(222,763,l),
(330,677,l),
(320,634,o),
(320,574,q),
(320,289,l),
(258,282,l),
(258,520,o)
);
}
);
width = 1000;
}
);
unicode = 101206;
}
{
glyphname = u18B59;
layers = (
{
layerId = master01;
shapes = (
{
closed = 1;
nodes = (
(660,-17,q),
(663,-23,o),
(661,-30,q),
(631,-131,l),
(608,-131,l),
(598,-77,o),
(559,47,o),
(532,105,q),
(553,117,l),
(606,62,o)
);
},
{
closed = 1;
nodes = (
(134,227,q),
(58,285,l),
(63,298,l),
(109,293,o),
(161,293,q),
(181,293,o),
(221,295,q),
(524,312,o),
(734,331,q),
(784,335,o),
(839,346,o),
(863,360,q),
(867,362,o),
(871,359,o),
(872,359,q),
(963,306,l),
(960,291,l),
(613,273,o),
(256,244,q),
(200,241,o)
);
},
{
closed = 1;
nodes = (
(479,631,q),
(478,662,o),
(458,727,o),
(436,751,q),
(447,763,l),
(561,677,l),
(551,634,o),
(551,574,q),
(551,291,l),
(483,284,l),
(483,520,o)
);
},
{
closed = 1;
nodes = (
(207,474,q),
(131,529,l),
(136,542,l),
(182,537,o),
(234,537,q),
(254,537,o),
(294,539,q),
(431,548,l),
(602,559,o),
(643,563,q),
(691,567,o),
(748,579,o),
(772,593,q),
(776,595,o),
(780,592,o),
(781,592,q),
(872,542,l),
(869,527,l),
(574,512,o),
(329,492,q),
(272,487,o)
);
},
{
closed = 1;
nodes = (
(881,-12,q),
(886,-20,o),
(885,-26,q),
(874,-128,l),
(852,-135,l),
(774,21,o),
(682,148,q),
(700,164,l),
(813,65,o)
);
},
{
closed = 1;
nodes = (
(463,-16,q),
(472,-34,l),
(472,-37,l),
(472,-41,o),
(470,-47,q),
(420,-141,l),
(397,-138,l),
(398,-84,o),
(383,45,o),
(368,107,q),
(390,116,l),
(425,65,o)
);
},
{
closed = 1;
nodes = (
(180,-130,o),
(151,-165,q),
(133,-163,l),
(101,-73,l),
(100,-67,o),
(104,-66,q),
(128,-60,o),
(148,-43,q),
(188,-7,o),
(239,101,o),
(234,158,q),
(260,161,l),
(271,108,o),
(271,76,q),
(271,49,o),
(264,28,q),
(252,-10,o)
);
}
);
width = 1000;
}
);
unicode = 101209;
}
{
glyphname = u18B5A;
layers = (
{
layerId = master01;
shapes = (
{
closed = 1;
nodes = (
(234,281,o),
(200.333,275.667,o),
(167,269,c),
(91,324,l),
(96,337,l),
(127.333,333.667,o),
(155,332,o),
(179,332,cs),
(186.333,332,o),
(211,333,o),
(253,335,cs),
(444,347,ls),
(606.667,357,o),
(695,363,o),
(709,365,cs),
(767.667,371.667,o),
(802,380.333,o),
(834,407,cs),
(837.333,410.333,o),
(840.333,410.333,o),
(843,407,cs),
(899,351,ls),
(901.667,348.333,o),
(901.333,345.333,o),
(898,342,cs),
(874,321,ls),
(864.667,313,o),
(865.333,313.333,o),
(864,304,cs),
(851.333,118,o),
(834.333,-12.333,o),
(813,-87,cs),
(801,-126.333,o),
(790.667,-152,o),
(782,-164,cs),
(778.667,-168,o),
(774.333,-168,o),
(769,-164,c),
(713.667,-111.333,o),
(641.333,-61.667,o),
(552,-15,c),
(562,7,l),
(739,-61,ls),
(740.333,-61.667,o),
(742.333,-62,o),
(745,-62,cs),
(751,-62,o),
(754.333,-58.667,o),
(755,-52,c),
(775,26.667,o),
(796.667,199.333,o),
(798,314,cs),
(798,320,o),
(795.667,323,o),
(791,323,cs),
(552.333,308.333,o),
(378,295.667,o),
(268,285,cs)
);
},
{
closed = 1;
nodes = (
(306,485.667,o),
(265.333,479.667,o),
(222,471,c),
(146,526,l),
(151,539,l),
(181.667,535.667,o),
(214.333,534,o),
(249,534,cs),
(262.333,534,o),
(282.333,534.667,o),
(309,536,cs),
(397.667,542,o),
(467,547.667,o),
(517,553,cs),
(593,559,ls),
(657,564.333,o),
(690,570.333,o),
(722,589,c),
(725.333,590.333,o),
(728.333,590,o),
(731,588,cs),
(822,538,l),
(819,523,l),
(659.667,514.333,o),
(501.333,503,o),
(344,489,cs)
);
},
{
closed = 1;
nodes = (
(191.667,8.667,o),
(280,95.333,o),
(320,162,cs),
(334.667,186,o),
(346.667,222,o),
(344,254,c),
(359,257,l),
(406,142,l),
(395.333,132.667,o),
(378.667,116.667,o),
(356,94,cs),
(291.333,30.667,o),
(209.333,-29.333,o),
(110,-86,c),
(93,-58,l),
(93,-58,l)
);
},
{
closed = 1;
nodes = (
(589,199.333,o),
(638.333,164.333,o),
(671,135,c),
(673.667,133.667,o),
(675.333,127,o),
(674,123,cs),
(653,32,l),
(630,26,l),
(602,91.333,o),
(557.667,162.667,o),
(507,224,c),
(523,240,l),
(523,240,l)
);
},
{
closed = 1;
nodes = (
(448,472,o),
(447,575.667,o),
(445,631,cs),
(443.667,672.333,o),
(431.333,719,o),
(402,751,c),
(413,763,l),
(522,677,l),
(515.333,648.333,o),
(512,614,o),
(512,574,cs),
(512,327,l),
(448,320,l),
(448,320,l)
);
}
);
width = 1000;
}
);
unicode = 101210;
}
{
glyphname = u18B5D;
layers = (
{
layerId = master01;
shapes = (
{
closed = 1;
nodes = (
(118,-84,q),
(38,-25,l),
(43,-12,l),
(100,-19,o),
(151,-19,q),
(170,-19,o),
(208,-17,q),
(354,-8,o),
(594,9,o),
(720,18,q),
(774,22,o),
(834,34,o),
(860,48,q),
(863,50,o),
(868,47,q),
(964,-7,l),
(961,-21,l),
(546,-42,o),
(245,-66,q),
(199,-71,o)
);
},
{
closed = 1;
nodes = (
(205,481,q),
(129,536,l),
(134,549,l),
(180,544,o),
(232,544,q),
(252,544,o),
(292,546,q),
(455,558,o),
(596,571,q),
(641,575,l),
(689,579,o),
(746,591,o),
(770,605,q),
(774,607,o),
(778,604,o),
(779,604,q),
(870,554,l),
(867,539,l),
(593,525,o),
(327,499,q),
(259,492,o)
);
},
{
closed = 1;
nodes = (
(272,213,q),
(196,268,l),
(201,281,l),
(259,276,o),
(293,276,q),
(326,276,o),
(359,279,q),
(496,289,o),
(580,297,q),
(628,301,o),
(685,313,o),
(708,328,q),
(713,330,o),
(717,327,q),
(809,278,l),
(806,263,l),
(669,253,l),
(500,241,o),
(394,232,q),
(345,228,o)
);
},
{
closed = 1;
nodes = (
(444,719,o),
(423,744,q),
(434,756,l),
(540,670,l),
(530,632,o),
(530,568,q),
(530,-24,l),
(466,-30,l),
(466,623,l),
(466,656,o)
);
}
);
width = 1000;
}
);
unicode = 101213;
}
{
glyphname = u18B5F;
layers = (
{
layerId = master01;
shapes = (
{
closed = 1;
nodes = (
(522,70,l),
(259,-70,l),
(191,-106,o),
(158,-130,q),
(63,-96,l),
(63,-83,l),
(137,-62,o),
(197,-36,q),
(509,98,l)
);
},
{
closed = 1;
nodes = (
(538,711,o),
(517,737,q),
(528,749,l),
(634,662,l),
(624,624,o),
(624,560,q),
(624,-8,l),
(624,-39,o),
(637,-61,o),
(659,-62,q),
(709,-64,o),
(737,-64,q),
(819,-64,o),
(867,-56,q),
(883,-55,o),
(893,-43,o),
(894,-27,q),
(902,160,l),
(926,160,l),
(932,91,o),
(954,-48,o),
(967,-87,q),
(968,-88,o),
(968,-91,q),
(968,-96,o),
(963,-98,q),
(926,-114,o),
(851,-121,q),
(797,-127,o),
(742,-127,q),
(696,-127,o),
(646,-124,q),
(600,-122,o),
(560,-74,o),
(560,-21,q),
(560,615,l),
(560,648,o)
);
},
{
closed = 1;
nodes = (
(144,277,q),
(76,324,l),
(81,336,l),
(113,333,o),
(138,333,q),
(149,333,o),
(203,336,q),
(238,339,o),
(244,340,q),
(333,346,o),
(355,351,q),
(377,356,o),
(406,370,o),
(410,372,q),
(414,374,o),
(419,372,q),
(502,333,l),
(499,316,l),
(449,313,o),
(285,298,o),
(237,293,q),
(190,288,o)
);
},
{
closed = 1;
nodes = (
(249,638,o),
(228,664,q),
(239,676,l),
(343,589,l),
(333,551,o),
(333,487,q),
(333,3,l),
(271,-29,l),
(271,542,l),
(271,575,o)
);
},
{
closed = 1;
nodes = (
(805,337,o),
(857,311,q),
(862,309,o),
(862,302,q),
(863,206,l),
(848,199,l),
(803,245,o),
(663,351,o),
(588,393,q),
(594,421,l),
(662,397,o)
);
}
);
width = 1000;
}
);
unicode = 101215;
}
{
glyphname = u18B63;
layers = (
{
layerId = master01;
shapes = (
{
closed = 1;
nodes = (
(337,530,q),
(349,33,l),
(353,-152,l),
(341,-158,l),
(277,-92,l),
(275,-90,o),
(277,-83,q),
(289,-52,o),
(289,-17,q),
(290,79,o),
(279,453,o),
(272,585,q),
(270,616,o),
(248,681,o),
(226,704,q),
(237,716,l),
(345,633,l),
(336,593,o)
);
},
{
closed = 1;
nodes = (
(729,573,q),
(691,-146,l),
(678,-151,l),
(620,-80,l),
(618,-78,o),
(620,-71,q),
(635,-41,o),
(638,-7,q),
(647,91,o),
(665,479,o),
(669,633,q),
(669,665,o),
(652,731,o),
(632,755,q),
(644,766,l),
(745,675,l),
(733,637,o)
);
},
{
closed = 1;
nodes = (
(494,-6,o),
(552,7,o),
(577,21,q),
(581,23,o),
(585,20,o),
(586,20,q),
(677,-33,l),
(674,-48,l),
(325,-69,l),
(325,-18,l),
(448,-9,l)
);
},
{
closed = 1;
nodes = (
(110,356,q),
(34,414,l),
(39,427,l),
(85,422,o),
(137,422,q),
(157,422,o),
(197,424,q),
(368,434,o),
(684,462,q),
(748,468,l),
(798,472,o),
(853,483,o),
(877,497,q),
(881,499,o),
(885,496,o),
(886,496,q),
(977,443,l),
(974,428,l),
(796,419,o),
(404,387,o),
(362,384,q),
(232,373,l),
(176,370,o)
);
}
);
width = 1000;
}
);
unicode = 101219;
}
{
glyphname = u18B64;
layers = (
{
layerId = master01;
shapes = (
{
closed = 1;
nodes = (
(213,287,q),
(135,340,l),
(140,353,l),
(159,351,o),
(199,351,q),
(249,351,o),
(305,355,q),
(429,365,o),
(651,387,o),
(672,391,q),
(709,397,o),
(756,415,o),
(779,432,q),
(784,436,o),
(788,432,q),
(844,379,l),
(849,374,o),
(844,369,q),
(819,344,l),
(818,343,o),
(811,336,o),
(809,331,o),
(809,327,q),
(797,158,o),
(763,40,q),
(745,-19,o),
(732,-37,q),
(726,-43,o),
(720,-37,q),
(690,-3,o),
(610,64,o),
(546,110,q),
(558,131,l),
(688,64,l),
(693,61,o),
(695,61,q),
(700,61,o),
(704,73,q),
(721,118,o),
(742,265,o),
(743,329,q),
(743,341,l),
(743,346,o),
(739,349,o),
(733,348,q),
(589,333,l),
(425,318,o),
(320,305,q),
(276,300,o)
);
},
{
closed = 1;
nodes = (
(112,482,q),
(34,538,l),
(39,551,l),
(81,548,o),
(114,548,q),
(143,548,o),
(197,552,q),
(392,567,o),
(742,602,q),
(789,607,o),
(847,620,o),
(871,634,q),
(876,637,o),
(880,634,q),
(972,583,l),
(969,567,l),
(702,549,o),
(233,502,q),
(169,495,o)
);
},
{
closed = 1;
nodes = (
(597,638,q),
(596,669,o),
(576,734,o),
(554,758,q),
(565,770,l),
(671,684,l),
(661,641,o),
(661,581,q),
(660,358,l),
(600,351,l),
(600,558,o)
);
},
{
closed = 1;
nodes = (
(306,631,q),
(305,662,o),
(285,727,o),
(263,751,q),
(274,763,l),
(380,677,l),
(370,634,o),
(370,574,q),
(369,340,l),
(309,333,l),
(309,548,o)
);
},
{
closed = 1;
nodes = (
(471,187,q),
(465,-157,l),
(452,-163,l),
(391,-94,l),
(389,-92,o),
(391,-85,q),
(404,-57,o),
(406,-21,q),
(409,32,o),
(409,143,q),
(408,244,l),
(408,294,o),
(388,335,q),
(420,341,l),
(482,289,l),
(471,243,o)
);
}
);
width = 1000;
}
);
unicode = 101220;
}
{
glyphname = u18B65;
layers = (
{
layerId = master01;
shapes = (
{
closed = 1;
nodes = (
(849,26,o),
(930,-56,q),
(934,-61,o),
(932,-69,q),
(916,-151,l),
(900,-156,l),
(786,20,o),
(616,176,q),
(633,206,l),
(716,146,o)
);
},
{
closed = 1;
nodes = (
(596,718,o),
(573,747,q),
(584,759,l),
(695,673,l),
(688,650,o),
(686,602,q),
(684,561,o),
(684,460,q),
(684,305,o),
(641,90,o),
(526,-88,o),
(418,-169,q),
(397,-145,l),
(495,-60,o),
(592,128,o),
(619,316,o),
(619,445,q),
(620,537,l),
(620,554,o),
(618,606,q),
(615,651,o)
);
},
{
closed = 1;
nodes = (
(107,338,q),
(29,396,l),
(34,409,l),
(59,407,o),
(103,407,q),
(148,407,o),
(192,410,q),
(305,418,o),
(585,442,q),
(614,445,o),
(687,451,o),
(731,455,q),
(776,459,o),
(835,473,o),
(860,487,q),
(865,490,o),
(869,487,q),
(961,434,l),
(958,418,l),
(833,409,o),
(593,391,o),
(348,370,o),
(228,358,q),
(164,351,o)
);
},
{
closed = 1;
nodes = (
(337,559,q),
(336,257,l),
(334,51,o),
(334,-46,q),
(321,-52,l),
(259,16,l),
(257,18,o),
(259,25,q),
(271,52,o),
(273,90,q),
(276,177,o),
(276,352,q),
(276,505,o),
(273,616,q),
(272,647,o),
(252,712,o),
(230,736,q),
(241,748,l),
(347,662,l),
(337,619,o)
);
}
);
width = 1000;
}
);
unicode = 101221;
}
{
glyphname = u18B66;
layers = (
{
layerId = master01;
shapes = (
{
closed = 1;
nodes = (
(678,39,l),
(769,-31,o),
(882,-90,o),
(954,-97,q),
(953,-123,l),
(785,-134,l),
(773,-134,o),
(769,-130,q),
(622,7,o),
(510,104,q),
(539,145,l),
(575,117,l)
);
},
{
closed = 1;
nodes = (
(342,571,q),
(337,391,o),
(335,185,q),
(334,101,l),
(322,94,l),
(259,164,l),
(256,167,o),
(260,173,q),
(268,187,o),
(273,209,o),
(274,226,q),
(280,364,o),
(280,538,q),
(279,628,l),
(278,659,o),
(259,725,o),
(237,749,q),
(248,761,l),
(353,674,l),
(345,638,o)
);
},
{
closed = 1;
nodes = (
(117,337,q),
(39,395,l),
(44,408,l),
(69,406,o),
(113,406,q),
(158,406,o),
(202,409,q),
(341,419,o),
(579,440,q),
(685,450,o),
(731,454,q),
(776,458,o),
(835,472,o),
(860,486,q),
(865,489,o),
(869,486,q),
(961,433,l),
(958,417,l),
(888,412,l),
(457,380,o),
(238,357,q),
(174,350,o)
);
},
{
closed = 1;
nodes = (
(515,145,o),
(592,400,o),
(603,612,q),
(605,646,o),
(584,725,o),
(559,753,q),
(570,765,l),
(679,679,l),
(672,656,o),
(670,607,q),
(658,366,o),
(546,79,o),
(302,-102,o),
(78,-171,q),
(68,-139,l),
(292,-56,o)
);
}
);
width = 1000;
}
);
unicode = 101222;
}
{
glyphname = u18B67;
layers = (
{
layerId = master01;
shapes = (
{
closed = 1;
nodes = (
(560,97,o),
(667,27,q),
(759,-34,o),
(879,-85,o),
(954,-89,q),
(954,-115,l),
(786,-138,l),
(782,-138,l),
(774,-138,o),
(770,-135,q),
(667,-52,o),
(393,163,o),
(295,236,q),
(295,293,l),
(386,221,o)
);
},
{
closed = 1;
nodes = (
(118,407,q),
(40,465,l),
(45,478,l),
(87,475,o),
(120,475,q),
(149,475,o),
(203,479,q),
(339,490,l),
(590,509,o),
(731,524,q),
(778,529,o),
(836,542,o),
(860,556,q),
(865,559,o),
(869,556,q),
(961,503,l),
(958,487,l),
(893,482,l),
(462,450,o),
(239,427,q),
(175,420,o)
);
},
{
closed = 1;
nodes = (
(345,607,o),
(345,573,q),
(338,322,l),
(332,148,o),
(330,70,q),
(317,64,l),
(256,135,l),
(253,138,o),
(256,144,q),
(270,170,o),
(272,208,q),
(276,267,o),
(281,495,o),
(281,591,q),
(281,641,l),
(281,669,o),
(262,731,o),
(242,753,q),
(254,765,l),
(358,676,l),
(352,652,o)
);
},
{
closed = 1;
nodes = (
(531,144,o),
(614,402,o),
(629,618,q),
(632,651,o),
(610,731,o),
(585,759,q),
(596,771,l),
(706,685,l),
(701,669,o),
(698,620,o),
(697,613,q),
(681,366,o),
(562,77,o),
(310,-101,o),
(78,-172,q),
(68,-140,l),
(299,-59,o)
);
}
);
width = 1000;
}
);
unicode = 101223;
}
{
glyphname = u18B69;
layers = (
{
layerId = master01;
shapes = (
{
closed = 1;
nodes = (
(669,-19,q),
(756,-39,o),
(813,-41,q),
(847,-42,l),
(907,-42,o),
(973,-33,q),
(978,-53,l),
(804,-130,l),
(798,-133,o),
(791,-133,q),
(784,-133,o),
(778,-130,q),
(568,-45,o),
(323,5,q),
(270,15,o),
(232,15,q),
(206,15,o),
(183,11,q),
(127,1,o),
(89,-21,q),
(28,20,l),
(33,34,l),
(110,50,o),
(140,54,q),
(196,61,o),
(224,61,q),
(259,61,o),
(301,54,q),
(431,33,o)
);
},
{
closed = 1;
nodes = (
(264,681,o),
(243,706,q),
(254,718,l),
(360,632,l),
(350,594,o),
(350,530,q),
(347,24,l),
(286,35,l),
(286,585,l),
(286,618,o)
);
},
{
closed = 1;
nodes = (
(604,728,o),
(583,753,q),
(594,765,l),
(700,679,l),
(690,641,o),
(690,577,q),
(686,-55,l),
(626,-44,l),
(626,632,l),
(626,665,o)
);
},
{
closed = 1;
nodes = (
(109,360,q),
(34,418,l),
(39,431,l),
(84,426,o),
(136,426,q),
(157,426,o),
(195,428,q),
(365,438,o),
(671,466,q),
(739,472,l),
(788,476,o),
(843,487,o),
(867,501,q),
(869,502,o),
(873,501,o),
(875,500,q),
(965,447,l),
(962,432,l),
(728,419,o),
(362,388,q),
(230,377,l),
(176,374,o)
);
}
);
width = 1000;
}
);
unicode = 101225;
}
{
glyphname = u18B6A;
layers = (
{
layerId = master01;
shapes = (
{
closed = 1;
nodes = (
(659.333,369.333,o),
(656,335,o),
(656,291,cs),
(650,-154,l),
(638,-161,l),
(577,-91,ls),
(574.333,-88.333,o),
(574.333,-85.333,o),
(577,-82,c),
(585.667,-66.667,o),
(590.667,-46.667,o),
(592,-22,cs),
(594.667,54,o),
(596,128,o),
(596,200,cs),
(596,241.333,o),
(595.333,290.667,o),
(594,348,cs),
(594,388,o),
(582,435.667,o),
(554,469,c),
(565,481,l),
(666,394,l),
(666,394,l)
);
},
{
closed = 1;
nodes = (
(244,487.333,o),
(203.333,481.333,o),
(162,472,c),
(86,530,l),
(91,543,l),
(120.333,540.333,o),
(150,539,o),
(180,539,cs),
(195.333,539,o),
(218.333,539.667,o),
(249,541,cs),
(392.333,550.333,o),
(547.333,562.667,o),
(714,578,cs),
(783.333,586,o),
(811,589.333,o),
(843,608,cs),
(845,609.333,o),
(848,609,o),
(852,607,cs),
(943,555,l),
(940,540,l),
(746.667,528,o),
(528,511.333,o),
(284,490,cs)
);
},
{
closed = 1;
nodes = (
(476.667,164.667,o),
(445.667,160,o),
(419,154,c),
(352,206,l),
(357,218,l),
(377.667,215.333,o),
(398.333,214,o),
(419,214,cs),
(425,214,o),
(445,215,o),
(479,217,cs),
(579,223.667,o),
(665.333,231.333,o),
(738,240,cs),
(765.333,243.333,o),
(791,251,o),
(815,263,cs),
(817.667,264.333,o),
(820.667,264,o),
(824,262,cs),
(907,218,l),
(904,201,l),
(836,197,o),
(604,177.333,o),
(512,168,cs)
);
},
{
closed = 1;
nodes = (
(379,327,o),
(264,127.333,o),
(64,-50,c),
(42,-28,l),
(224.667,164,o),
(343.667,378,o),
(425,638,cs),
(433,666,o),
(437,692,o),
(437,716,cs),
(437,732.667,o),
(435,748,o),
(431,762,c),
(447,770,l),
(523,658,l),
(509.667,638,o),
(496.333,609.667,o),
(479,567,cs)
);
}
);
width = 1000;
}
);
unicode = 101226;
}
{
glyphname = u18B6B;
layers = (
{
layerId = master01;
shapes = (
{
closed = 1;
nodes = (
(647,248,q),
(641,-155,l),
(629,-162,l),
(567,-92,l),
(563,-88,o),
(567,-83,q),
(580,-60,o),
(582,-23,q),
(586,95,o),
(586,210,q),
(586,277,o),
(585,305,q),
(585,335,o),
(566,401,o),
(545,426,q),
(556,438,l),
(657,351,l),
(647,314,o)
);
},
{
closed = 1;
nodes = (
(162,472,q),
(86,530,l),
(91,543,l),
(135,539,o),
(180,539,q),
(203,539,o),
(249,541,q),
(464,555,o),
(714,578,q),
(766,584,o),
(819,594,o),
(843,608,q),
(846,610,o),
(852,607,q),
(943,555,l),
(940,540,l),
(650,522,o),
(284,490,q),
(224,486,o)
);
},
{
closed = 1;
nodes = (
(416,124,q),
(349,176,l),
(354,188,l),
(385,184,o),
(416,184,q),
(425,184,o),
(476,187,q),
(626,197,o),
(735,210,q),
(776,215,o),
(812,233,q),
(816,235,o),
(821,232,q),
(904,188,l),
(901,171,l),
(850,168,o),
(578,145,o),
(509,138,q),
(456,133,o)
);
},
{
closed = 1;
nodes = (
(870,406,o),
(905,390,q),
(910,387,o),
(912,379,q),
(931,279,l),
(912,266,l),
(877,307,o),
(774,399,o),
(720,435,q),
(730,456,l),
(774,443,o)
);
},
{
closed = 1;
nodes = (
(214,83,o),
(64,-50,q),
(42,-28,l),
(179,116,o),
(364,443,o),
(425,638,q),
(437,680,o),
(437,716,q),
(437,741,o),
(431,762,q),
(447,770,l),
(523,658,l),
(513,643,o),
(492,599,o),
(479,567,q),
(404,387,o)
);
}
);
width = 1000;
}
);
unicode = 101227;
}
{
glyphname = u18B6C;
layers = (
{
layerId = master01;
shapes = (
{
closed = 1;
nodes = (
(214,83,o),
(64,-50,q),
(42,-28,l),
(179,116,o),
(361,442,o),
(423,638,q),
(435,680,o),
(435,716,q),
(435,741,o),
(429,762,q),
(445,770,l),
(523,658,l),
(513,643,o),
(492,599,o),
(479,567,q),
(404,387,o)
);
},
{
closed = 1;
nodes = (
(162,472,q),
(86,530,l),
(91,543,l),
(135,539,o),
(180,539,q),
(203,539,o),
(249,541,q),
(464,555,o),
(714,578,q),
(766,584,o),
(819,594,o),
(843,608,q),
(846,610,o),
(852,607,q),
(943,555,l),
(940,540,l),
(650,522,o),
(284,490,q),
(224,486,o)
);
},
{
closed = 1;
nodes = (
(562,210,o),
(600,333,q),
(605,348,o),
(605,369,q),
(605,394,o),
(596,412,q),
(610,419,l),
(690,323,l),
(668,293,o),
(653,264,q),
(587,131,o),
(396,-74,o),
(263,-160,q),
(245,-137,l),
(375,-36,o)
);
},
{
closed = 1;
nodes = (
(872,-49,q),
(875,-52,o),
(874,-60,q),
(862,-150,l),
(848,-152,l),
(744,-9,o),
(552,140,q),
(570,166,l),
(744,60,o)
);
}
);
width = 1000;
}
);
unicode = 101228;
}
{
glyphname = u18B6D;
layers = (
{
layerId = master01;
shapes = (
{
closed = 1;
nodes = (
(212,83,o),
(62,-50,q),
(42,-28,l),
(300,242,o),
(425,638,q),
(437,680,o),
(437,716,q),
(437,741,o),
(431,762,q),
(447,770,l),
(521,658,l),
(511,643,o),
(490,599,o),
(477,567,q),
(402,387,o)
);
},
{
closed = 1;
nodes = (
(162,472,q),
(86,530,l),
(91,543,l),
(135,539,o),
(180,539,q),
(203,539,o),
(249,541,q),
(464,555,o),
(714,578,q),
(766,584,o),
(819,594,o),
(843,608,q),
(846,610,o),
(852,607,q),
(943,555,l),
(940,540,l),
(650,522,o),
(284,490,q),
(224,486,o)
);
},
{
closed = 1;
nodes = (
(540,209,o),
(572,324,q),
(577,339,o),
(577,360,q),
(577,385,o),
(568,403,q),
(582,410,l),
(660,319,l),
(634,283,o),
(623,260,q),
(560,129,o),
(380,-80,o),
(256,-165,q),
(238,-142,l),
(360,-45,o)
);
},
{
closed = 1;
nodes = (
(872,-52,q),
(875,-55,o),
(874,-63,q),
(864,-155,l),
(850,-157,l),
(740,-6,o),
(547,141,q),
(563,167,l),
(735,63,o)
);
},
{
closed = 1;
nodes = (
(872,306,o),
(904,286,q),
(910,280,o),
(910,274,q),
(919,173,l),
(899,162,l),
(868,206,o),
(775,308,o),
(725,349,q),
(737,369,l),
(780,352,o)
);
}
);
width = 1000;
}
);
unicode = 101229;
}
{
glyphname = u18B6E;
layers = (
{
layerId = master01;
shapes = (
{
closed = 1;
nodes = (
(215,116,o),
(64,-10,q),
(44,12,l),
(182,147,o),
(370,454,o),
(426,636,q),
(438,678,o),
(438,714,q),
(438,739,o),
(432,760,q),
(448,768,l),
(520,658,l),
(510,643,o),
(489,599,o),
(476,567,q),
(409,405,o)
);
},
{
closed = 1;
nodes = (
(162,462,q),
(86,520,l),
(91,533,l),
(135,529,o),
(180,529,q),
(203,529,o),
(249,531,q),
(464,545,o),
(714,568,q),
(766,574,o),
(819,584,o),
(843,598,q),
(846,600,o),
(852,597,q),
(943,545,l),
(940,530,l),
(650,512,o),
(284,480,q),
(224,476,o)
);
},
{
closed = 1;
nodes = (
(527,167,o),
(552,121,q),
(553,120,o),
(556,114,o),
(554,111,q),
(508,9,l),
(497,12,l),
(485,76,o),
(424,249,o),
(392,308,q),
(410,321,l),
(449,277,o)
);
},
{
closed = 1;
nodes = (
(725,225,o),
(739,301,q),
(741,315,o),
(741,329,q),
(741,367,o),
(728,396,q),
(741,404,l),
(831,308,l),
(822,292,o),
(801,245,q),
(764,164,o),
(679,19,o),
(615,-53,q),
(591,-34,l),
(647,50,o)
);
},
{
closed = 1;
nodes = (
(291,-109,q),
(214,-55,l),
(219,-42,l),
(267,-46,o),
(313,-46,q),
(335,-46,o),
(377,-44,q),
(408,-42,o),
(459,-38,o),
(479,-37,q),
(632,-28,o),
(697,-21,q),
(745,-17,o),
(802,-5,o),
(826,10,q),
(831,12,o),
(835,9,q),
(926,-41,l),
(923,-56,l),
(895,-58,o),
(881,-58,q),
(576,-76,o),
(412,-90,q),
(352,-96,o)
);
}
);
width = 1000;
}
);
unicode = 101230;
}
{
glyphname = u18B70;
layers = (
{
layerId = master01;
shapes = (
{
closed = 1;
nodes = (
(397,146,o),
(445,386,o),
(449,609,q),
(450,644,o),
(430,722,o),
(405,750,q),
(416,762,l),
(527,676,l),
(520,653,o),
(518,605,q),
(512,376,o),
(451,115,o),
(269,-72,o),
(82,-139,q),
(70,-109,l),
(239,-33,o)
);
},
{
closed = 1;
nodes = (
(175,212,q),
(99,267,l),
(104,280,l),
(151,275,o),
(187,275,q),
(198,275,o),
(261,278,q),
(412,288,l),
(687,308,l),
(731,313,o),
(788,330,o),
(812,350,q),
(817,355,o),
(821,350,q),
(877,294,l),
(881,290,o),
(876,285,q),
(852,264,l),
(845,258,o),
(843,254,o),
(842,247,q),
(837,172,o),
(797,-19,o),
(773,-75,q),
(749,-129,o),
(730,-148,q),
(726,-152,o),
(721,-151,o),
(717,-148,q),
(635,-71,o),
(510,-5,q),
(520,17,l),
(701,-51,l),
(703,-52,o),
(706,-52,q),
(713,-52,o),
(717,-42,q),
(737,3,o),
(775,190,o),
(776,257,q),
(776,266,o),
(769,266,q),
(488,249,o),
(276,228,q),
(225,222,o)
);
},
{
closed = 1;
nodes = (
(259,451,q),
(183,506,l),
(188,519,l),
(234,514,o),
(286,514,q),
(306,514,o),
(346,516,q),
(440,523,o),
(544,532,q),
(618,538,l),
(665,542,o),
(722,555,o),
(747,569,q),
(752,571,o),
(756,568,q),
(847,518,l),
(844,503,l),
(713,496,o),
(526,482,o),
(381,469,q),
(324,464,o)
);
}
);
width = 1000;
}
);
unicode = 101232;
}
{
glyphname = u18B72;
layers = (
{
layerId = master01;
shapes = (
{
closed = 1;
nodes = (
(291,118,o),
(322,355,o),
(323,592,q),
(323,629,o),
(303,705,o),
(279,733,q),
(290,745,l),
(398,659,l),
(389,629,o),
(389,587,q),
(386,339,o),
(338,81,o),
(208,-78,o),
(70,-150,q),
(55,-122,l),
(180,-49,o)
);
},
{
closed = 1;
nodes = (
(109,282,q),
(34,343,l),
(39,356,l),
(84,351,o),
(136,351,q),
(157,351,o),
(195,353,q),
(365,363,o),
(671,391,q),
(739,397,l),
(788,401,o),
(843,412,o),
(867,426,q),
(869,427,o),
(873,426,o),
(875,425,q),
(965,369,l),
(962,354,l),
(728,341,o),
(362,310,q),
(230,299,l),
(176,296,o)
);
},
{
closed = 1;
nodes = (
(700,571,q),
(700,454,o),
(698,206,q),
(695,19,o),
(695,-160,q),
(682,-166,l),
(616,-98,l),
(614,-96,o),
(616,-89,q),
(628,-62,o),
(630,-24,q),
(637,188,o),
(637,409,q),
(637,534,o),
(634,628,q),
(633,659,o),
(613,724,o),
(591,748,q),
(602,760,l),
(710,674,l),
(700,631,o)
);
}
);
width = 1000;
}
);
unicode = 101234;
}
{
glyphname = u18B74;
layers = (
{
layerId = master01;
shapes = (
{
closed = 1;
nodes = (
(513,676,l),
(504,630,o),
(496,562,q),
(477,383,o),
(404,133,o),
(225,-82,o),
(62,-163,q),
(47,-138,l),
(199,-45,o),
(356,171,o),
(413,405,o),
(426,578,q),
(428,608,o),
(428,620,q),
(428,659,o),
(412,723,o),
(394,754,q),
(407,764,l)
);
},
{
closed = 1;
nodes = (
(162,356,q),
(87,414,l),
(92,427,l),
(137,422,o),
(189,422,q),
(210,422,o),
(248,424,q),
(419,434,o),
(698,460,q),
(747,464,o),
(802,475,o),
(826,489,q),
(828,490,o),
(832,489,o),
(834,488,q),
(924,435,l),
(921,420,l),
(633,403,o),
(283,373,q),
(229,370,o)
);
},
{
closed = 1;
nodes = (
(621,255,q),
(621,-5,l),
(621,-36,o),
(634,-58,o),
(656,-59,q),
(698,-61,o),
(723,-61,q),
(794,-61,o),
(852,-53,q),
(868,-52,o),
(878,-40,o),
(879,-24,q),
(887,163,l),
(911,163,l),
(923,4,o),
(952,-82,q),
(953,-83,o),
(953,-86,q),
(953,-91,o),
(948,-93,q),
(911,-109,o),
(836,-116,q),
(793,-121,o),
(733,-121,q),
(705,-121,o),
(645,-119,q),
(598,-117,o),
(559,-70,o),
(559,-18,q),
(559,310,l),
(559,371,o),
(525,420,q),
(552,423,l),
(631,357,l),
(621,319,o)
);
}
);
width = 1000;
}
);
unicode = 101236;
}
{
glyphname = u18B75;
layers = (
{
layerId = master01;
shapes = (
{
closed = 1;
nodes = (
(554,670,l),
(547,634,o),
(542,584,q),
(539,554,l),
(521,378,o),
(439,120,o),
(244,-93,o),
(71,-158,q),
(58,-133,l),
(220,-56,o),
(389,157,o),
(452,392,o),
(471,570,q),
(473,586,o),
(473,615,q),
(473,652,o),
(457,715,o),
(439,746,q),
(452,756,l)
);
},
{
closed = 1;
nodes = (
(194,210,q),
(149,272,l),
(146,277,o),
(146,280,q),
(146,286,o),
(151,288,q),
(171,300,o),
(188,336,o),
(191,358,q),
(193,374,o),
(193,381,q),
(193,425,o),
(163,459,q),
(175,471,l),
(268,398,l),
(258,382,o),
(247,336,o),
(242,306,q),
(241,300,l),
(241,290,o),
(253,291,q),
(376,299,o),
(675,332,q),
(706,335,o),
(762,360,o),
(781,379,q),
(786,384,o),
(791,379,q),
(850,314,l),
(855,310,o),
(850,305,q),
(826,284,l),
(819,278,o),
(817,274,o),
(816,267,q),
(807,186,o),
(749,-25,o),
(716,-89,q),
(704,-112,o),
(671,-153,o),
(653,-161,q),
(645,-164,o),
(642,-159,q),
(622,-125,o),
(517,-29,o),
(456,11,q),
(469,30,l),
(640,-60,l),
(643,-61,o),
(647,-64,o),
(650,-64,q),
(654,-64,o),
(659,-54,q),
(690,3,o),
(745,205,o),
(750,270,q),
(751,284,l),
(751,288,o),
(747,290,o),
(741,289,q),
(256,242,l),
(244,240,o),
(235,233,q),
(206,211,l),
(198,205,o)
);
},
{
closed = 1;
nodes = (
(190,491,q),
(114,550,l),
(119,563,l),
(165,558,o),
(217,558,q),
(237,558,o),
(277,560,q),
(410,569,l),
(595,581,o),
(662,587,q),
(710,591,o),
(767,603,o),
(791,617,q),
(795,619,o),
(799,616,o),
(800,616,q),
(891,562,l),
(888,547,l),
(598,532,o),
(312,509,q),
(255,504,o)
);
}
);
width = 1000;
}
);
unicode = 101237;
}
{
glyphname = u18B76;
layers = (
{
layerId = master01;
shapes = (
{
closed = 1;
nodes = (
(147,345,q),
(71,403,l),
(76,416,l),
(120,412,o),
(165,412,q),
(188,412,o),
(234,414,q),
(498,431,o),
(707,451,q),
(759,457,o),
(812,467,o),
(836,481,q),
(839,483,o),
(845,480,q),
(936,428,l),
(933,413,l),
(640,395,o),
(269,363,q),
(209,359,o)
);
},
{
closed = 1;
nodes = (
(753,34,q),
(795,-22,o),
(879,-72,o),
(953,-89,q),
(952,-116,l),
(758,-125,l),
(747,-125,o),
(744,-118,q),
(673,31,o),
(496,338,q),
(509,402,l),
(654,165,o)
);
},
{
closed = 1;
nodes = (
(376,134,o),
(459,397,o),
(459,580,q),
(459,583,o),
(460,650,o),
(439,727,o),
(419,750,q),
(430,762,l),
(545,676,l),
(533,637,o),
(532,605,q),
(525,399,o),
(434,114,o),
(233,-93,o),
(58,-170,q),
(44,-141,l),
(195,-61,o)
);
}
);
width = 1000;
}
);
unicode = 101238;
}
{
glyphname = u18B77;
layers = (
{
layerId = master01;
shapes = (
{
closed = 1;
nodes = (
(361,151,o),
(450,423,o),
(456,603,q),
(457,642,o),
(440,723,o),
(416,750,q),
(427,762,l),
(542,676,l),
(532,644,o),
(529,605,q),
(513,410,o),
(415,125,o),
(219,-92,o),
(58,-170,q),
(44,-141,l),
(184,-58,o)
);
},
{
closed = 1;
nodes = (
(147,358,q),
(71,416,l),
(76,429,l),
(120,425,o),
(165,425,q),
(188,425,o),
(234,427,q),
(498,444,o),
(707,464,q),
(759,470,o),
(812,480,o),
(836,494,q),
(839,496,o),
(845,493,q),
(936,441,l),
(933,426,l),
(640,408,o),
(269,376,q),
(209,372,o)
);
},
{
closed = 1;
nodes = (
(763,34,q),
(805,-22,o),
(889,-72,o),
(963,-89,q),
(962,-116,l),
(768,-125,l),
(757,-125,o),
(754,-118,q),
(686,24,o),
(491,363,q),
(504,427,l),
(665,163,o)
);
},
{
closed = 1;
nodes = (
(500,35,o),
(531,11,q),
(535,6,o),
(535,-2,q),
(532,-104,l),
(511,-112,l),
(485,-63,o),
(406,49,o),
(361,96,q),
(375,113,l),
(415,92,o)
);
}
);
width = 1000;
}
);
unicode = 101239;
}
{
glyphname = u18B79;
layers = (
{
layerId = master01;
shapes = (
{
closed = 1;
nodes = (
(546,720,o),
(515,738,q),
(521,754,l),
(632,725,l),
(631,709,l),
(631,696,o),
(639,660,o),
(646,634,q),
(685,501,o),
(767,304,q),
(794,239,o),
(837,158,o),
(907,92,o),
(957,82,q),
(958,60,l),
(808,47,l),
(806,47,l),
(800,47,o),
(791,54,o),
(789,58,q),
(690,337,o),
(588,644,q),
(578,675,o)
);
},
{
closed = 1;
nodes = (
(189,114,o),
(80,9,q),
(59,29,l),
(164,153,o),
(321,469,o),
(359,617,q),
(364,639,o),
(364,663,q),
(364,711,o),
(347,746,q),
(361,755,l),
(453,638,l),
(443,622,o),
(424,578,o),
(412,545,q),
(361,404,o)
);
},
{
closed = 1;
nodes = (
(144,418,q),
(66,475,l),
(71,488,l),
(119,485,o),
(157,485,q),
(183,485,o),
(231,487,q),
(301,493,o),
(355,496,q),
(509,507,o),
(702,524,q),
(748,528,o),
(807,542,o),
(832,557,q),
(836,559,o),
(841,556,q),
(934,504,l),
(931,489,l),
(874,484,o),
(705,472,q),
(375,447,o),
(266,437,q),
(196,430,o)
);
},
{
closed = 1;
nodes = (
(407,117,o),
(444,213,q),
(453,238,o),
(453,267,q),
(453,292,o),
(448,309,q),
(461,315,l),
(533,210,l),
(514,187,o),
(494,153,q),
(440,62,o),
(287,-105,o),
(193,-171,q),
(172,-146,l),
(264,-70,o)
);
},
{
closed = 1;
nodes = (
(661,2,o),
(722,-56,q),
(727,-59,o),
(725,-65,q),
(709,-164,l),
(691,-166,l),
(645,-92,o),
(514,61,o),
(439,125,q),
(461,147,l),
(544,91,o)
);
}
);
width = 1000;
}
);
unicode = 101241;
}
{
glyphname = u18B7B;
layers = (
{
layerId = master01;
shapes = (
{
closed = 1;
nodes = (
(386.333,346.667,o),
(242.333,111.333,o),
(61,-50,c),
(40,-27,l),
(217.333,161,o),
(351,407.667,o),
(411,633,cs),
(415.667,649.667,o),
(418,667.333,o),
(418,686,cs),
(418,715.333,o),
(412.667,740.667,o),
(402,762,c),
(416,771,l),
(507,653,l),
(493.667,633,o),
(482.333,604,o),
(465,560,cs)
);
},
{
closed = 1;
nodes = (
(219.333,462.333,o),
(178.667,456,o),
(144,448,c),
(66,505,l),
(71,518,l),
(103,516,o),
(131.667,515,o),
(157,515,cs),
(174.333,515,o),
(199,515.667,o),
(231,517,cs),
(421,531,ls),
(496.333,536.333,o),
(573.333,542.333,o),
(652,549,cs),
(713.333,554.333,o),
(748.667,562,o),
(782,582,cs),
(784.667,583.333,o),
(787.667,583,o),
(791,581,cs),
(884,529,l),
(881,514,l),
(791.667,507.333,o),
(722,502.333,o),
(672,499,cs),
(466,483.667,o),
(330.667,473,o),
(266,467,cs)
);
},
{
closed = 1;
nodes = (
(616.667,443.667,o),
(694,310.333,o),
(742,237,cs),
(812.667,127.667,o),
(869.333,71.333,o),
(968,58,c),
(968,36,l),
(808,14,l),
(806,14,ls),
(799.333,14,o),
(793.667,17.667,o),
(789,25,cs),
(725,131.667,o),
(612,346.333,o),
(528,513,c),
(582,517,l),
(582,517,l)
);
},
{
closed = 1;
nodes = (
(379,-106.333,o),
(339.667,-111.667,o),
(305,-119,c),
(231,-64,l),
(236,-51,l),
(266.667,-54.333,o),
(298,-56,o),
(330,-56,cs),
(342,-56,o),
(361.333,-55.333,o),
(388,-54,cs),
(421,-52,ls),
(475,-49.333,o),
(513,-46.667,o),
(535,-44,cs),
(583,-37.333,o),
(610,-32.667,o),
(642,-14,c),
(645.333,-12.667,o),
(648.333,-13,o),
(651,-15,cs),
(742,-67,l),
(739,-82,l),
(623.667,-88.667,o),
(518.333,-95.667,o),
(423,-103,cs)
);
},
{
closed = 1;
nodes = (
(442.333,48.333,o),
(443,91.333,o),
(443,112,cs),
(443,128,o),
(442.333,158.667,o),
(441,204,cs),
(439.667,244,o),
(427,292,o),
(399,324,c),
(409,336,l),
(516,250,l),
(510,224.667,o),
(506.667,190.333,o),
(506,147,cs),
(504,79,ls),
(502.667,15,o),
(502,-33.333,o),
(502,-66,c),
(439,-73,l),
(441,-17,l),
(441,-17,l)
);
}
);
width = 1000;
}
);
unicode = 101243;
}
{
glyphname = u18B7C;
layers = (
{
layerId = master01;
shapes = (
{
closed = 1;
nodes = (
(312,-119,q),
(238,-64,l),
(243,-51,l),
(289,-56,o),
(337,-56,q),
(355,-56,o),
(395,-54,q),
(428,-52,l),
(509,-48,o),
(542,-44,q),
(578,-39,o),
(625,-28,o),
(649,-14,q),
(654,-12,o),
(658,-15,q),
(749,-67,l),
(746,-82,l),
(573,-92,o),
(430,-103,q),
(364,-108,o)
);
},
{
closed = 1;
nodes = (
(450,86,o),
(450,117,q),
(450,141,o),
(448,211,q),
(447,241,o),
(427,307,o),
(406,331,q),
(416,343,l),
(523,257,l),
(514,219,o),
(513,154,q),
(511,84,l),
(509,-16,o),
(509,-66,q),
(446,-73,l),
(448,-16,l)
);
},
{
closed = 1;
nodes = (
(546,720,o),
(515,738,q),
(521,754,l),
(632,725,l),
(631,709,l),
(631,696,o),
(639,660,o),
(646,634,q),
(685,501,o),
(767,304,q),
(792,243,o),
(836,163,o),
(907,99,o),
(957,89,q),
(957,67,l),
(808,54,l),
(806,54,l),
(800,54,o),
(791,61,o),
(789,65,q),
(756,157,l),
(742,196,o),
(633,507,o),
(588,644,q),
(578,675,o)
);
},
{
closed = 1;
nodes = (
(198,118,o),
(80,9,q),
(59,29,l),
(276,275,o),
(353,617,q),
(360,647,o),
(360,680,q),
(360,720,o),
(347,746,q),
(361,755,l),
(450,638,l),
(438,618,o),
(420,581,o),
(408,545,q),
(353,379,o)
);
},
{
closed = 1;
nodes = (
(144,418,q),
(66,475,l),
(71,488,l),
(119,485,o),
(157,485,q),
(183,485,o),
(231,487,q),
(301,493,o),
(355,496,q),
(509,507,o),
(702,524,q),
(748,528,o),
(807,542,o),
(832,557,q),
(836,559,o),
(841,556,q),
(934,504,l),
(931,489,l),
(874,484,o),
(705,472,q),
(375,447,o),
(266,437,q),
(196,430,o)
);
}
);
width = 1000;
}
);
unicode = 101244;
}
{
glyphname = u18B7F;
layers = (
{
layerId = master01;
shapes = (
{
closed = 1;
nodes = (
(199,222,o),
(59,134,q),
(39,159,l),
(168,253,o),
(382,502,o),
(444,635,q),
(467,683,o),
(467,735,q),
(467,742,o),
(465,760,q),
(482,765,l),
(537,646,l),
(525,633,o),
(498,592,o),
(480,562,q),
(410,444,o)
);
},
{
closed = 1;
nodes = (
(148,476,q),
(72,534,l),
(77,547,l),
(121,543,o),
(166,543,q),
(189,543,o),
(235,545,q),
(450,559,o),
(700,582,q),
(752,588,o),
(805,598,o),
(829,612,q),
(832,614,o),
(838,611,q),
(929,559,l),
(926,544,l),
(636,526,o),
(270,494,q),
(210,490,o)
);
},
{
closed = 1;
nodes = (
(791,203,l),
(784,203,o),
(778,211,q),
(726,279,o),
(566,461,o),
(502,528,q),
(535,554,l),
(610,478,l),
(683,403,o),
(719,371,q),
(771,324,o),
(840,275,o),
(915,247,o),
(968,241,q),
(968,215,l)
);
},
{
closed = 1;
nodes = (
(757,111,q),
(755,98,o),
(745,35,q),
(741,9,o),
(720,-36,o),
(709,-46,q),
(703,-52,o),
(700,-46,q),
(659,40,l),
(685,56,l),
(696,108,o),
(696,157,q),
(696,209,o),
(663,247,q),
(674,259,l),
(768,190,l),
(764,172,o)
);
},
{
closed = 1;
nodes = (
(518,8,o),
(327,-5,q),
(277,-9,o),
(264,-19,q),
(240,-37,l),
(233,-42,o),
(230,-37,q),
(183,21,l),
(179,27,o),
(183,31,q),
(197,41,o),
(211,68,o),
(213,97,q),
(214,132,l),
(214,156,o),
(189,212,o),
(169,235,q),
(180,247,l),
(279,174,l),
(273,160,o),
(269,116,o),
(268,58,q),
(268,49,o),
(272,43,o),
(279,43,q),
(395,46,o),
(579,61,q),
(630,66,o),
(687,75,o),
(709,86,q),
(716,90,o),
(718,89,q),
(724,86,l),
(708,16,l),
(685,15,l)
);
},
{
closed = 1;
nodes = (
(507,192,q),
(501,-163,l),
(489,-170,l),
(428,-100,l),
(424,-96,o),
(428,-91,q),
(441,-68,o),
(443,-31,q),
(446,38,o),
(446,149,q),
(446,220,o),
(445,249,q),
(445,279,o),
(426,345,o),
(405,370,q),
(416,382,l),
(517,295,l),
(507,258,o)
);
}
);
width = 1000;
}
);
unicode = 101247;
}
{
glyphname = u18B80;
layers = (
{
layerId = master01;
shapes = (
{
closed = 1;
nodes = (
(545,-30,o),
(670,-20,q),
(721,-15,o),
(776,-5,o),
(800,9,q),
(804,11,o),
(809,8,q),
(901,-49,l),
(898,-64,l),
(776,-70,l),
(651,-75,o),
(416,-88,o),
(280,-98,q),
(230,-102,o),
(217,-112,q),
(186,-135,l),
(179,-140,o),
(176,-135,q),
(130,-72,l),
(126,-66,o),
(130,-62,q),
(144,-52,o),
(163,-5,o),
(165,29,q),
(168,70,o),
(168,153,q),
(168,210,l),
(168,236,o),
(143,301,o),
(123,323,q),
(134,335,l),
(237,252,l),
(230,233,o),
(226,144,o),
(224,-31,q),
(224,-40,o),
(228,-46,o),
(235,-46,q),
(260,-45,l)
);
},
{
closed = 1;
nodes = (
(529,250,o),
(405,99,o),
(293,38,q),
(276,65,l),
(377,131,o),
(486,293,o),
(527,489,o),
(527,624,q),
(527,655,o),
(509,722,o),
(489,746,q),
(502,759,l),
(605,677,l),
(595,641,o),
(591,574,q),
(582,438,o)
);
},
{
closed = 1;
nodes = (
(748,235,o),
(811,185,q),
(814,182,o),
(814,177,q),
(813,62,l),
(796,59,l),
(747,132,o),
(610,277,o),
(531,339,q),
(552,362,l),
(630,315,o)
);
},
{
closed = 1;
nodes = (
(283,406,q),
(207,462,l),
(212,475,l),
(256,471,o),
(301,471,q),
(335,471,o),
(370,474,q),
(482,482,o),
(605,495,q),
(626,496,o),
(661,500,q),
(706,504,o),
(764,518,o),
(789,532,q),
(794,534,o),
(798,531,q),
(890,480,l),
(887,465,l),
(650,450,o),
(405,425,q),
(356,421,o)
);
}
);
width = 1000;
}
);
unicode = 101248;
}
{
glyphname = u18B81;
layers = (
{
layerId = master01;
shapes = (
{
closed = 1;
nodes = (
(405,138,o),
(479,398,o),
(489,599,q),
(491,636,o),
(472,722,o),
(448,750,q),
(459,762,l),
(574,676,l),
(567,653,o),
(563,605,q),
(543,375,o),
(459,101,o),
(258,-99,o),
(64,-175,q),
(50,-146,l),
(222,-62,o)
);
},
{
closed = 1;
nodes = (
(195,463,q),
(119,521,l),
(124,534,l),
(168,530,o),
(213,530,q),
(236,530,o),
(282,532,q),
(475,544,o),
(690,565,q),
(742,571,o),
(795,581,o),
(819,595,q),
(822,597,o),
(828,594,q),
(919,542,l),
(916,527,l),
(667,511,o),
(317,481,q),
(257,477,o)
);
},
{
closed = 1;
nodes = (
(756,10,q),
(800,-44,o),
(883,-89,o),
(962,-107,q),
(961,-134,l),
(770,-143,l),
(760,-143,o),
(756,-136,q),
(714,-60,o),
(569,172,o),
(556,192,q),
(499,283,l),
(512,347,l),
(613,189,o)
);
},
{
closed = 1;
nodes = (
(289,262,o),
(318,225,q),
(321,221,o),
(321,217,q),
(321,212,o),
(318,203,q),
(289,132,l),
(274,134,l),
(253,189,o),
(178,320,o),
(140,365,q),
(159,381,l),
(213,334,o)
);
},
{
closed = 1;
nodes = (
(751,320,o),
(767,358,q),
(788,405,o),
(785,441,q),
(800,445,l),
(856,345,l),
(838,326,l),
(799,284,o),
(800,285,q),
(711,198,o),
(635,149,q),
(617,171,l),
(666,215,o)
);
}
);
width = 1000;
}
);
unicode = 101249;
}
{
glyphname = u18B86;
layers = (
{
layerId = master01;
shapes = (
{
closed = 1;
nodes = (
(278,192.667,o),
(274.333,192.667,o),
(271,196,c),
(218,265,ls),
(215.333,269,o),
(215.333,272.333,o),
(218,275,cs),
(246,299,o),
(251.667,309.333,o),
(277,368,cs),
(306.333,434.667,o),
(384,635.333,o),
(388,674,cs),
(390.667,696.667,o),
(384,728.667,o),
(368,750,c),
(379,761,l),
(469,679,l),
(458.333,665.667,o),
(445,638.667,o),
(429,598,cs),
(406,540,ls),
(352,408,o),
(319.667,325,o),
(309,291,cs),
(308.333,289.667,o),
(308,287.667,o),
(308,285,cs),
(308,278.333,o),
(312,275.333,o),
(320,276,cs),
(416,282.667,o),
(661.333,305,o),
(704,313,cs),
(752.667,322.333,o),
(787.667,337.667,o),
(809,359,cs),
(812.333,362.333,o),
(815.333,362.333,o),
(818,359,cs),
(880,299,ls),
(883.333,296.333,o),
(883.333,293.333,o),
(880,290,cs),
(855,265,ls),
(847.266,257.266,o),
(845,252.351,o),
(845,248,c),
(819.667,110.667,o),
(786.667,-1.667,o),
(746,-89,cs),
(732.667,-118.333,o),
(705,-149,o),
(681,-161,cs),
(678.333,-162.333,o),
(676.333,-163,o),
(675,-163,cs),
(672.333,-163,o),
(670,-161.333,o),
(668,-158,cs),
(636,-115.333,o),
(566.667,-48,o),
(504,4,c),
(517,23,l),
(669,-62,ls),
(674.333,-64.667,o),
(677.667,-66,o),
(679,-66,cs),
(682.333,-66,o),
(686.333,-62,o),
(691,-54,cs),
(727,12,o),
(757,116.667,o),
(781,260,cs),
(781,262,ls),
(781,268,o),
(777.333,270.667,o),
(770,270,cs),
(333,228,ls),
(325,227.333,o),
(318,224.333,o),
(312,219,cs),
(282,196,l),
(282,196,l)
);
},
{
closed = 1;
nodes = (
(203,502.333,o),
(162.333,496.333,o),
(121,487,c),
(45,545,l),
(50,558,l),
(79.333,555.333,o),
(109,554,o),
(139,554,cs),
(154.333,554,o),
(177.333,554.667,o),
(208,556,cs),
(404.667,568,o),
(579.667,582,o),
(733,598,cs),
(802.333,606,o),
(830,609.333,o),
(862,628,cs),
(864,629.333,o),
(867,629,o),
(871,627,cs),
(962,575,l),
(959,560,l),
(715.667,543.333,o),
(477,525,o),
(243,505,cs)
);
},
{
closed = 1;
nodes = (
(531.333,60.667,o),
(341,-91,o),
(69,-159,c),
(57,-129,l),
(234.333,-66.333,o),
(356.833,6.167,o),
(445.5,133.5,cs),
(489.833,197.167,o),
(521.667,276.333,o),
(541,371,cs),
(544.333,385.667,o),
(546,401,o),
(546,417,cs),
(546,448.333,o),
(539.667,475.333,o),
(527,498,c),
(542,508,l),
(631,408,l),
(620.333,386.667,o),
(610,352.667,o),
(598,310,cs)
);
}
);
width = 1000;
}
);
unicode = 101254;
}
{
glyphname = u18B88;
layers = (
{
layerId = master01;
shapes = (
{
closed = 1;
nodes = (
(202,490.333,o),
(161.333,484.333,o),
(120,475,c),
(44,533,l),
(49,546,l),
(78.333,543.333,o),
(108,542,o),
(138,542,cs),
(153.333,542,o),
(176.333,542.667,o),
(207,544,cs),
(391.667,555.333,o),
(567.667,569.667,o),
(735,587,cs),
(804.333,595,o),
(832,598.333,o),
(864,617,cs),
(866,618.333,o),
(869,618,o),
(873,616,cs),
(964,564,l),
(961,549,l),
(744.333,534.333,o),
(504.667,515.667,o),
(242,493,cs)
);
},
{
closed = 1;
nodes = (
(340,261.667,o),
(336.333,261.667,o),
(333,265,c),
(280,334,ls),
(277.333,338,o),
(277.333,341.333,o),
(280,344,cs),
(310.667,372,o),
(316.333,398,o),
(331,470,cs),
(344.333,536.667,o),
(359,637,o),
(359,689,cs),
(359,717.667,o),
(352.667,740,o),
(340,756,c),
(352,767,l),
(436,692,l),
(428,676.667,o),
(422,655.667,o),
(418,629,cs),
(400.667,525,o),
(386.667,436.333,o),
(376,363,cs),
(375,357,ls),
(375,350.333,o),
(379,347.333,o),
(387,348,cs),
(532.333,358,o),
(644.333,368,o),
(723,378,cs),
(761,382.667,o),
(793,398,o),
(819,424,cs),
(822.333,427.333,o),
(825.333,427.333,o),
(828,424,c),
(892,364,ls),
(895.333,361.333,o),
(895.333,358.333,o),
(892,355,cs),
(867,330,ls),
(862.149,325.149,o),
(857,322.398,o),
(857,313,cs),
(847.667,167.667,o),
(803.667,-5,o),
(761,-93,cs),
(743.667,-126.333,o),
(719.333,-157.333,o),
(702,-168,cs),
(700.667,-168.667,o),
(699,-169,o),
(697,-169,cs),
(693.667,-169,o),
(690.333,-167.333,o),
(687,-164,cs),
(635,-114.667,o),
(545,-53.333,o),
(461,-8,c),
(472,16,l),
(679,-61,l),
(684.333,-62.333,o),
(687.667,-63,o),
(689,-63,cs),
(694.333,-63,o),
(698.667,-59.667,o),
(702,-53,cs),
(748.667,44.333,o),
(784,199.667,o),
(788,321,cs),
(788,328.333,o),
(784.333,331.667,o),
(777,331,cs),
(395,297,ls),
(387,296.333,o),
(380,293.333,o),
(374,288,cs),
(344,265,l),
(344,265,l)
);
},
{
closed = 1;
nodes = (
(217.333,83.333,o),
(176.667,77,o),
(128,67,c),
(52,123,l),
(57,136,l),
(86.333,133.333,o),
(116,132,o),
(146,132,cs),
(169.333,132,o),
(192.333,133,o),
(215,135,cs),
(295,141,o),
(373.333,148.333,o),
(450,157,cs),
(512.667,163.667,o),
(546,170.333,o),
(578,189,c),
(581.333,190.333,o),
(584.333,190,o),
(587,188,cs),
(679,137,l),
(676,122,l),
(536.667,112.667,o),
(394.667,100.667,o),
(250,86,cs)
);
}
);
width = 1000;
}
);
unicode = 101256;
}
{
glyphname = u18B8A;
layers = (
{
layerId = master01;
shapes = (
{
closed = 1;
nodes = (
(239,239,q),
(186,308,l),
(182,314,o),
(186,318,q),
(209,339,o),
(226,390,o),
(237,444,q),
(246,490,o),
(265,635,o),
(265,674,q),
(265,717,o),
(246,741,q),
(258,752,l),
(342,677,l),
(330,654,o),
(324,614,q),
(307,510,o),
(285,356,q),
(282,334,l),
(281,328,l),
(281,318,o),
(293,319,q),
(299,320,o),
(330,322,o),
(349,326,q),
(406,337,o),
(441,372,q),
(446,377,o),
(450,372,q),
(512,312,l),
(517,308,o),
(512,303,q),
(487,278,l),
(486,277,o),
(479,270,o),
(477,265,o),
(477,261,q),
(469,138,o),
(443,-31,o),
(419,-96,q),
(410,-121,o),
(374,-158,o),
(354,-168,q),
(350,-170,o),
(348,-170,q),
(344,-170,o),
(341,-165,q),
(319,-129,o),
(233,-39,o),
(188,-4,q),
(201,15,l),
(342,-67,l),
(349,-72,o),
(353,-72,q),
(358,-72,o),
(362,-61,q),
(384,-3,o),
(410,177,o),
(413,273,q),
(413,284,o),
(402,283,q),
(301,271,l),
(289,270,o),
(280,262,q),
(250,239,l),
(244,234,o)
);
},
{
closed = 1;
nodes = (
(116,475,q),
(39,533,l),
(44,546,l),
(90,541,o),
(143,541,q),
(164,541,o),
(204,543,q),
(427,556,o),
(731,582,q),
(782,587,o),
(837,597,o),
(861,611,q),
(865,613,o),
(870,610,q),
(962,557,l),
(959,542,l),
(570,522,o),
(239,492,q),
(175,487,o)
);
},
{
closed = 1;
nodes = (
(607,238,q),
(554,307,l),
(550,313,o),
(554,317,q),
(577,338,o),
(594,389,o),
(605,443,q),
(614,489,o),
(633,634,o),
(633,673,q),
(633,716,o),
(614,740,q),
(626,751,l),
(710,676,l),
(698,653,o),
(692,613,q),
(675,509,o),
(653,355,q),
(650,333,l),
(649,327,l),
(649,317,o),
(661,318,q),
(690,321,o),
(717,325,q),
(777,335,o),
(813,371,q),
(818,376,o),
(822,371,q),
(884,311,l),
(889,307,o),
(884,302,q),
(859,277,l),
(858,276,o),
(851,269,o),
(849,264,o),
(849,260,q),
(841,137,o),
(815,-32,o),
(791,-97,q),
(782,-122,o),
(746,-159,o),
(726,-169,q),
(722,-171,o),
(720,-171,q),
(716,-171,o),
(713,-166,q),
(692,-132,o),
(603,-41,o),
(556,-5,q),
(569,14,l),
(714,-68,l),
(721,-73,o),
(725,-73,q),
(730,-73,o),
(734,-62,q),
(756,-4,o),
(782,176,o),
(785,272,q),
(785,283,o),
(774,282,q),
(669,270,l),
(657,269,o),
(648,261,q),
(618,238,l),
(612,233,o)
);
}
);
width = 1000;
}
);
unicode = 101258;
}
{
glyphname = u18B8E;
layers = (
{
layerId = master01;
shapes = (
{
closed = 1;
nodes = (
(119,56,q),
(43,112,l),
(48,125,l),
(92,121,o),
(137,121,q),
(172,121,o),
(206,124,q),
(309,132,o),
(404,143,q),
(449,149,o),
(507,164,o),
(532,178,q),
(537,180,o),
(541,177,q),
(633,126,l),
(630,111,l),
(535,104,o),
(358,87,o),
(265,77,q),
(257,77,o),
(241,75,q),
(192,71,o)
);
},
{
closed = 1;
nodes = (
(183,255,q),
(130,324,l),
(126,330,o),
(130,334,q),
(153,355,o),
(170,406,o),
(181,460,q),
(191,510,o),
(209,640,o),
(209,679,q),
(209,722,o),
(190,746,q),
(202,757,l),
(286,682,l),
(274,659,o),
(268,619,q),
(242,463,o),
(226,353,q),
(225,347,l),
(225,337,o),
(237,338,q),
(588,364,o),
(706,378,q),
(763,385,o),
(802,424,q),
(807,429,o),
(811,424,q),
(875,364,l),
(880,360,o),
(875,355,q),
(850,330,l),
(849,329,o),
(842,322,o),
(840,317,o),
(840,313,q),
(834,202,o),
(779,-27,o),
(746,-86,q),
(717,-141,o),
(681,-158,q),
(677,-160,o),
(674,-160,q),
(669,-160,o),
(664,-155,q),
(624,-112,o),
(523,-25,o),
(474,9,q),
(487,32,l),
(665,-58,l),
(671,-61,o),
(675,-61,q),
(680,-61,o),
(686,-51,q),
(716,2,o),
(771,231,o),
(774,321,q),
(774,332,o),
(763,331,q),
(245,287,l),
(233,286,o),
(224,278,q),
(194,255,l),
(188,250,o)
);
},
{
closed = 1;
nodes = (
(296,488,q),
(220,544,l),
(225,557,l),
(269,553,o),
(314,553,q),
(349,553,o),
(383,556,q),
(559,569,o),
(642,579,q),
(689,584,o),
(746,597,o),
(770,611,q),
(775,613,o),
(779,610,q),
(871,559,l),
(868,544,l),
(637,529,o),
(418,507,q),
(369,503,o)
);
},
{
closed = 1;
nodes = (
(375,141,q),
(374,6,o),
(371,-152,q),
(359,-159,l),
(295,-89,l),
(291,-85,o),
(295,-80,q),
(308,-57,o),
(310,-20,q),
(314,66,o),
(314,149,q),
(313,198,l),
(313,228,o),
(294,294,o),
(273,319,q),
(284,331,l),
(385,244,l),
(375,207,o)
);
}
);
width = 1000;
}
);
unicode = 101262;
}
{
glyphname = u18B8F;
layers = (
{
layerId = master01;
shapes = (
{
closed = 1;
nodes = (
(447,521,q),
(375,333,o),
(371,316,q),
(370,312,l),
(370,307,o),
(376,299,o),
(382,299,q),
(419,299,o),
(556,307,o),
(586,310,q),
(652,316,o),
(691,355,q),
(697,361,o),
(702,355,q),
(757,293,l),
(762,287,o),
(757,282,q),
(737,264,l),
(730,258,o),
(725,247,o),
(723,244,q),
(647,107,o),
(316,-104,o),
(58,-161,q),
(49,-130,l),
(280,-61,o),
(586,134,o),
(644,246,q),
(648,254,o),
(648,259,q),
(648,267,o),
(637,265,q),
(384,249,l),
(375,248,o),
(363,240,q),
(333,219,l),
(327,214,o),
(322,219,q),
(272,281,l),
(266,287,o),
(272,292,q),
(290,309,o),
(309,332,o),
(322,357,q),
(336,385,o),
(392,528,o),
(420,625,q),
(429,656,o),
(429,692,q),
(429,727,o),
(418,754,q),
(431,761,l),
(502,647,l),
(482,618,o),
(458,551,q),
(458,550,o)
);
},
{
closed = 1;
nodes = (
(137,460,q),
(61,518,l),
(66,531,l),
(110,527,o),
(155,527,q),
(178,527,o),
(224,529,q),
(475,545,o),
(722,570,q),
(774,576,o),
(827,586,o),
(851,600,q),
(854,602,o),
(860,599,q),
(951,547,l),
(948,532,l),
(655,512,o),
(259,478,q),
(199,474,o)
);
},
{
closed = 1;
nodes = (
(849,11,o),
(905,-27,q),
(910,-32,o),
(911,-37,q),
(929,-153,l),
(909,-164,l),
(762,1,o),
(584,104,q),
(598,128,l),
(682,95,o)
);
}
);
width = 1000;
}
);
unicode = 101263;
}
{
glyphname = u18B91;
layers = (
{
layerId = master01;
shapes = (
{
closed = 1;
nodes = (
(147,478,q),
(71,536,l),
(76,549,l),
(120,545,o),
(165,545,q),
(188,545,o),
(234,547,q),
(444,561,o),
(709,589,q),
(761,595,o),
(814,605,o),
(838,619,q),
(841,621,o),
(847,618,q),
(938,566,l),
(935,551,l),
(806,543,o),
(517,518,o),
(473,514,q),
(269,496,l),
(209,492,o)
);
},
{
closed = 1;
nodes = (
(329,158,o),
(49,120,q),
(43,152,l),
(290,199,o),
(595,392,o),
(639,558,q),
(715,561,l),
(665,370,o)
);
},
{
closed = 1;
nodes = (
(725,267,o),
(878,215,q),
(890,211,o),
(893,200,q),
(913,107,l),
(900,100,l),
(774,170,o),
(519,271,o),
(356,322,q),
(329,331,o),
(262,347,o),
(244,348,q),
(242,385,l),
(255,385,o),
(285,403,o),
(294,417,q),
(329,472,o),
(394,598,o),
(413,648,q),
(431,695,o),
(431,729,q),
(431,750,o),
(426,762,q),
(442,768,l),
(507,655,l),
(492,639,o),
(467,606,o),
(446,572,q),
(392,484,l),
(326,375,l),
(471,342,o)
);
},
{
closed = 1;
nodes = (
(750,-16,o),
(810,-46,q),
(815,-49,o),
(817,-55,q),
(850,-161,l),
(832,-175,l),
(663,-37,o),
(468,38,q),
(478,64,l),
(567,44,o)
);
},
{
closed = 1;
nodes = (
(422,43,o),
(472,110,q),
(484,126,o),
(504,174,o),
(505,199,q),
(520,200,l),
(555,81,l),
(539,70,o),
(501,38,q),
(426,-22,o),
(240,-122,o),
(110,-160,q),
(97,-131,l),
(224,-86,o)
);
}
);
width = 1000;
}
);
unicode = 101265;
}
{
glyphname = u18B93;
layers = (
{
layerId = master01;
shapes = (
{
closed = 1;
nodes = (
(386,721,o),
(365,747,q),
(376,759,l),
(482,672,l),
(472,634,o),
(472,570,q),
(472,-17,l),
(472,-48,o),
(485,-70,o),
(507,-71,q),
(582,-76,o),
(651,-76,q),
(768,-76,o),
(849,-63,q),
(865,-62,o),
(875,-50,o),
(876,-34,q),
(884,164,l),
(908,164,l),
(914,92,o),
(936,-56,o),
(949,-94,q),
(950,-95,o),
(950,-98,q),
(950,-103,o),
(945,-105,q),
(908,-121,o),
(833,-128,q),
(737,-137,o),
(639,-137,q),
(561,-137,o),
(494,-133,q),
(448,-131,o),
(408,-83,o),
(408,-30,q),
(408,625,l),
(408,658,o)
);
},
{
closed = 1;
nodes = (
(171,408,q),
(95,466,l),
(100,479,l),
(158,474,o),
(192,474,q),
(225,474,o),
(258,477,q),
(381,487,l),
(514,497,o),
(634,509,q),
(683,514,o),
(739,526,o),
(763,540,q),
(766,542,o),
(772,539,q),
(863,487,l),
(860,472,l),
(648,457,o),
(409,436,q),
(293,426,l),
(233,422,o)
);
},
{
closed = 1;
nodes = (
(694,257,o),
(721,316,q),
(736,350,o),
(736,386,q),
(736,402,o),
(734,410,q),
(749,415,l),
(819,296,l),
(806,287,o),
(777,256,o),
(770,249,q),
(712,185,o),
(593,74,o),
(543,38,q),
(522,64,l),
(589,124,o)
);
},
{
closed = 1;
nodes = (
(291,123,q),
(295,119,o),
(292,111,q),
(261,-3,l),
(248,-4,l),
(219,76,o),
(152,211,o),
(99,293,q),
(120,309,l),
(239,191,o)
);
}
);
width = 1000;
}
);
unicode = 101267;
}
{
glyphname = u18B94;
layers = (
{
layerId = master01;
shapes = (
{
closed = 1;
nodes = (
(531,581,q),
(531,463,o),
(529,209,q),
(526,20,o),
(526,-163,q),
(513,-169,l),
(447,-101,l),
(445,-99,o),
(447,-92,q),
(459,-65,o),
(461,-27,q),
(468,188,o),
(468,415,q),
(468,542,o),
(465,638,q),
(464,669,o),
(444,734,o),
(422,758,q),
(433,770,l),
(541,684,l),
(531,641,o)
);
}
);
width = 1000;
}
);
unicode = 101268;
}
{
glyphname = u18B95;
layers = (
{
layerId = master01;
shapes = (
{
closed = 1;
nodes = (
(590,596,o),
(589,624,q),
(588,652,o),
(568,717,o),
(549,740,q),
(560,752,l),
(662,670,l),
(652,627,o),
(652,567,q),
(651,-38,l),
(589,-45,l),
(590,436,l)
);
},
{
closed = 1;
nodes = (
(119,-109,q),
(42,-51,l),
(47,-38,l),
(93,-43,o),
(146,-43,q),
(167,-43,o),
(207,-41,q),
(453,-28,o),
(731,-4,q),
(782,1,o),
(837,11,o),
(861,25,q),
(865,27,o),
(870,24,q),
(962,-29,l),
(959,-44,l),
(636,-61,o),
(242,-92,q),
(187,-95,o)
);
},
{
closed = 1;
nodes = (
(387,368,q),
(387,516,o),
(385,574,q),
(384,602,o),
(364,667,o),
(345,690,q),
(356,702,l),
(458,620,l),
(448,577,o),
(448,517,q),
(447,-54,l),
(385,-58,l),
(387,124,o)
);
},
{
closed = 1;
nodes = (
(297,277,q),
(302,272,o),
(301,263,q),
(280,132,l),
(267,130,l),
(206,285,o),
(116,420,q),
(135,435,l),
(231,350,o)
);
}
);
width = 1000;
}
);
unicode = 101269;
}
{
glyphname = u18B96;
layers = (
{
layerId = master01;
shapes = (
{
closed = 1;
nodes = (
(667,73,o),
(670,-4,q),
(672,-40,o),
(667,-69,q),
(661,-102,o),
(647,-138,o),
(635,-156,q),
(628,-168,o),
(621,-168,q),
(616,-168,o),
(609,-161,q),
(508,-68,o),
(393,-1,q),
(406,24,l),
(582,-55,l),
(588,-57,o),
(589,-57,q),
(599,-57,o),
(601,-38,q),
(605,7,o),
(605,169,q),
(605,298,o),
(602,569,o),
(600,616,q),
(599,648,o),
(577,727,o),
(556,751,q),
(568,763,l),
(672,677,l),
(663,630,o),
(663,575,q),
(663,441,o)
);
},
{
closed = 1;
nodes = (
(400,424,q),
(394,115,l),
(382,108,l),
(321,178,l),
(317,182,o),
(321,187,q),
(334,210,o),
(336,247,q),
(340,339,o),
(340,428,q),
(339,481,l),
(339,511,o),
(320,577,o),
(299,602,q),
(310,614,l),
(410,527,l),
(400,490,o)
);
}
);
width = 1000;
}
);
unicode = 101270;
}
{
glyphname = u18B97;
layers = (
{
layerId = master01;
shapes = (
{
closed = 1;
nodes = (
(640,572,q),
(640,454,o),
(638,206,q),
(635,19,o),
(635,-161,q),
(622,-167,l),
(557,-98,l),
(555,-96,o),
(557,-89,q),
(569,-62,o),
(571,-24,q),
(578,188,o),
(578,409,q),
(578,535,o),
(575,629,q),
(574,660,o),
(554,725,o),
(532,749,q),
(543,761,l),
(650,675,l),
(640,632,o)
);
},
{
closed = 1;
nodes = (
(440,563,q),
(440,447,o),
(438,201,q),
(435,17,o),
(435,-161,q),
(422,-167,l),
(357,-98,l),
(355,-96,o),
(357,-89,q),
(369,-62,o),
(371,-24,q),
(378,186,o),
(378,404,q),
(378,527,o),
(375,620,q),
(374,651,o),
(354,716,o),
(332,740,q),
(343,752,l),
(450,666,l),
(440,623,o)
);
},
{
closed = 1;
nodes = (
(297,398,q),
(302,393,o),
(301,384,q),
(288,255,l),
(273,252,l),
(218,400,o),
(127,538,q),
(146,553,l),
(221,483,o)
);
},
{
closed = 1;
nodes = (
(762,521,o),
(783,568,q),
(798,611,o),
(798,639,q),
(798,646,o),
(796,662,q),
(811,667,l),
(874,554,l),
(825,504,l),
(735,409,o),
(622,329,q),
(602,353,l),
(663,404,o)
);
},
{
closed = 1;
nodes = (
(861,95,o),
(908,42,q),
(912,38,o),
(911,31,q),
(892,-87,l),
(878,-89,l),
(772,104,o),
(605,269,q),
(625,291,l),
(710,226,o)
);
},
{
closed = 1;
nodes = (
(536,298,l),
(232,60,l),
(169,11,o),
(142,-16,q),
(43,17,l),
(41,30,l),
(112,58,o),
(170,95,q),
(519,324,l)
);
}
);
width = 1000;
}
);
unicode = 101271;
}
{
glyphname = u18B99;
layers = (
{
layerId = master01;
shapes = (
{
closed = 1;
nodes = (
(640,572,q),
(640,454,o),
(638,206,q),
(635,19,o),
(635,-161,q),
(622,-167,l),
(557,-98,l),
(555,-96,o),
(557,-89,q),
(569,-62,o),
(571,-24,q),
(578,188,o),
(578,409,q),
(578,535,o),
(575,629,q),
(574,660,o),
(554,725,o),
(532,749,q),
(543,761,l),
(650,675,l),
(640,632,o)
);
},
{
closed = 1;
nodes = (
(430,563,q),
(430,447,o),
(428,201,q),
(425,17,o),
(425,-161,q),
(412,-167,l),
(347,-98,l),
(345,-96,o),
(347,-89,q),
(359,-62,o),
(361,-24,q),
(368,186,o),
(368,404,q),
(368,527,o),
(365,620,q),
(364,651,o),
(344,716,o),
(322,740,q),
(333,752,l),
(440,666,l),
(430,623,o)
);
},
{
closed = 1;
nodes = (
(306,416,q),
(314,409,o),
(313,400,q),
(298,296,l),
(282,292,l),
(203,433,o),
(107,534,q),
(122,553,l),
(209,494,o)
);
},
{
closed = 1;
nodes = (
(503,272,l),
(233,62,l),
(160,5,o),
(143,-14,q),
(43,17,l),
(41,30,l),
(112,58,o),
(170,95,q),
(486,298,l)
);
},
{
closed = 1;
nodes = (
(782,161,o),
(837,173,o),
(861,187,q),
(865,189,o),
(870,186,q),
(961,136,l),
(958,121,l),
(833,113,o),
(603,95,q),
(603,144,l),
(734,156,l)
);
},
{
closed = 1;
nodes = (
(735,351,o),
(790,363,o),
(814,377,q),
(818,379,o),
(823,376,q),
(906,326,l),
(903,311,l),
(832,307,o),
(711,297,q),
(605,289,l),
(605,338,l),
(687,346,l)
);
},
{
closed = 1;
nodes = (
(654,523,o),
(686,525,o),
(707,528,q),
(758,534,o),
(811,545,o),
(835,559,q),
(840,562,o),
(844,559,q),
(926,507,l),
(924,492,l),
(798,484,o),
(607,469,q),
(607,519,l),
(643,522,l)
);
}
);
width = 1000;
}
);
unicode = 101273;
}
{
glyphname = u18B9A;
layers = (
{
layerId = master01;
shapes = (
{
closed = 1;
nodes = (
(640,572,q),
(640,454,o),
(638,206,q),
(635,19,o),
(635,-161,q),
(622,-167,l),
(557,-98,l),
(555,-96,o),
(557,-89,q),
(569,-62,o),
(571,-24,q),
(578,188,o),
(578,409,q),
(578,535,o),
(575,629,q),
(574,660,o),
(554,725,o),
(532,749,q),
(543,761,l),
(650,675,l),
(640,632,o)
);
},
{
closed = 1;
nodes = (
(430,563,q),
(430,447,o),
(428,201,q),
(425,17,o),
(425,-161,q),
(412,-167,l),
(347,-98,l),
(345,-96,o),
(347,-89,q),
(359,-62,o),
(361,-24,q),
(368,186,o),
(368,404,q),
(368,527,o),
(365,620,q),
(364,651,o),
(344,716,o),
(322,740,q),
(333,752,l),
(440,666,l),
(430,623,o)
);
},
{
closed = 1;
nodes = (
(527,188,l),
(238,42,l),
(164,5,o),
(135,-18,q),
(40,29,l),
(41,42,l),
(117,56,o),
(180,81,q),
(515,216,l)
);
},
{
closed = 1;
nodes = (
(782,161,o),
(837,173,o),
(861,187,q),
(865,189,o),
(870,186,q),
(961,136,l),
(958,121,l),
(833,113,o),
(603,95,q),
(603,144,l),
(734,156,l)
);
},
{
closed = 1;
nodes = (
(735,351,o),
(790,363,o),
(814,377,q),
(818,379,o),
(823,376,q),
(906,326,l),
(903,311,l),
(832,307,o),
(711,297,q),
(605,289,l),
(605,338,l),
(687,346,l)
);
},
{
closed = 1;
nodes = (
(654,523,o),
(686,525,o),
(707,528,q),
(758,534,o),
(811,545,o),
(835,559,q),
(840,562,o),
(844,559,q),
(926,507,l),
(924,492,l),
(798,484,o),
(607,469,q),
(607,519,l),
(643,522,l)
);
},
{
closed = 1;
nodes = (
(144,252,q),
(83,298,l),
(87,310,l),
(121,308,o),
(132,308,q),
(148,308,o),
(192,312,q),
(242,318,o),
(269,323,q),
(290,327,o),
(318,338,o),
(332,347,q),
(337,350,o),
(341,347,q),
(416,309,l),
(414,293,l),
(340,286,o),
(237,270,q),
(182,262,o)
);
},
{
closed = 1;
nodes = (
(129,434,q),
(70,482,l),
(74,494,l),
(107,490,o),
(136,490,q),
(147,490,o),
(179,492,q),
(229,495,o),
(266,500,q),
(302,506,o),
(329,522,q),
(333,524,o),
(338,521,q),
(412,481,l),
(409,465,l),
(298,457,o),
(223,448,q),
(160,441,o)
);
}
);
width = 1000;
}
);
unicode = 101274;
}
{
glyphname = u18B9D;
layers = (
{
layerId = master01;
shapes = (
{
closed = 1;
nodes = (
(478,598,o),
(477,626,q),
(476,654,o),
(456,719,o),
(437,742,q),
(448,754,l),
(550,672,l),
(540,629,o),
(540,569,q),
(539,-32,l),
(477,-39,l),
(478,439,l)
);
},
{
closed = 1;
nodes = (
(878,344,q),
(876,275,o),
(856,8,o),
(846,-36,q),
(840,-62,o),
(822,-109,o),
(812,-118,q),
(809,-121,o),
(804,-120,o),
(802,-117,q),
(750,-10,l),
(764,-14,o),
(779,-20,o),
(780,-20,q),
(781,-20,o),
(781,-15,o),
(782,-11,q),
(797,41,o),
(816,302,o),
(816,380,q),
(816,409,o),
(793,476,o),
(771,500,q),
(782,512,l),
(888,423,l),
(880,390,o)
);
},
{
closed = 1;
nodes = (
(439,-65,o),
(292,-76,q),
(242,-80,o),
(229,-90,q),
(198,-113,l),
(191,-118,o),
(188,-113,q),
(143,-50,l),
(139,-44,o),
(143,-40,q),
(178,-13,o),
(178,51,q),
(178,70,o),
(164,267,o),
(158,339,q),
(156,364,o),
(127,428,o),
(105,448,q),
(116,461,l),
(227,385,l),
(223,357,o),
(223,329,q),
(223,308,o),
(224,296,q),
(241,-13,l),
(242,-22,o),
(246,-28,o),
(252,-28,q),
(387,-22,o),
(619,-2,q),
(670,3,o),
(725,13,o),
(749,27,q),
(753,29,o),
(758,26,q),
(816,-10,l),
(809,-44,l),
(668,-51,o)
);
}
);
width = 1000;
}
);
unicode = 101277;
}
{
glyphname = u18B9F;
layers = (
{
layerId = master01;
shapes = (
{
closed = 1;
nodes = (
(494,598,o),
(493,626,q),
(492,654,o),
(472,719,o),
(453,742,q),
(464,754,l),
(566,672,l),
(556,629,o),
(556,569,q),
(555,-36,l),
(493,-43,l),
(494,438,l)
);
},
{
closed = 1;
nodes = (
(106,-109,q),
(29,-51,l),
(34,-38,l),
(80,-43,o),
(133,-43,q),
(154,-43,o),
(194,-41,q),
(513,-25,o),
(745,-4,q),
(796,1,o),
(851,11,o),
(875,25,q),
(879,27,o),
(884,24,q),
(976,-29,l),
(973,-44,l),
(588,-63,o),
(229,-92,q),
(174,-95,o)
);
},
{
closed = 1;
nodes = (
(757,455,q),
(775,457,o),
(821,473,o),
(840,489,q),
(845,493,o),
(849,489,q),
(916,422,l),
(919,419,o),
(917,415,o),
(915,413,q),
(877,382,l),
(871,378,o),
(815,291,o),
(806,277,q),
(748,187,o),
(720,145,q),
(698,157,l),
(750,268,o),
(800,393,q),
(801,395,o),
(804,404,o),
(801,406,o),
(797,406,q),
(251,364,l),
(262,413,l),
(564,433,o)
);
},
{
closed = 1;
nodes = (
(209,184,o),
(126,108,q),
(108,127,l),
(153,186,o),
(208,288,o),
(241,417,o),
(244,503,q),
(246,544,o),
(229,606,o),
(207,636,q),
(219,648,l),
(323,563,l),
(312,532,o),
(309,492,q),
(297,362,o)
);
}
);
width = 1000;
}
);
unicode = 101279;
}
{
glyphname = u18BA1;
layers = (
{
layerId = master01;
shapes = (
{
closed = 1;
nodes = (
(289,71,o),
(323,139,q),
(336,165,o),
(336,196,q),
(336,210,o),
(333,220,q),
(349,226,l),
(415,94,l),
(382,68,o),
(339,29,q),
(273,-30,o),
(139,-122,o),
(46,-174,q),
(29,-147,l),
(130,-82,o)
);
},
{
closed = 1;
nodes = (
(818,13,q),
(869,-37,o),
(947,-85,o),
(993,-97,q),
(992,-123,l),
(858,-130,l),
(846,-130,o),
(840,-123,q),
(741,14,o),
(649,125,q),
(629,149,o),
(586,178,o),
(551,188,q),
(550,204,l),
(651,212,l),
(671,180,o),
(710,132,q),
(792,38,o)
);
},
{
closed = 1;
nodes = (
(873,498,q),
(868,409,o),
(854,343,q),
(848,319,o),
(825,273,o),
(815,263,q),
(811,260,o),
(808,260,o),
(806,263,q),
(758,372,l),
(773,367,o),
(790,358,o),
(792,358,q),
(793,358,o),
(794,366,q),
(804,410,o),
(810,473,o),
(813,536,q),
(814,565,o),
(793,634,o),
(772,658,q),
(783,670,l),
(886,577,l),
(876,545,o)
);
},
{
closed = 1;
nodes = (
(787,335,q),
(532,322,o),
(292,304,q),
(242,300,o),
(229,290,q),
(198,267,l),
(191,262,o),
(188,267,q),
(143,330,l),
(139,336,o),
(143,340,q),
(157,351,o),
(178,398,o),
(178,431,q),
(178,455,o),
(175,507,o),
(173,524,q),
(169,552,o),
(141,615,o),
(121,634,q),
(131,647,l),
(240,574,l),
(233,544,o),
(233,490,q),
(233,450,o),
(236,367,q),
(236,358,o),
(240,352,o),
(247,352,q),
(375,358,o),
(571,374,q),
(626,378,l),
(677,383,o),
(732,393,o),
(756,407,q),
(760,409,o),
(765,406,q),
(822,373,l),
(816,336,l),
(806,335,o)
);
},
{
closed = 1;
nodes = (
(485,632,q),
(484,663,o),
(464,728,o),
(442,752,q),
(453,764,l),
(560,678,l),
(550,635,o),
(550,575,q),
(550,423,o),
(549,344,q),
(488,338,l),
(488,550,o)
);
}
);
width = 1000;
}
);
unicode = 101281;
}
{
glyphname = u18BA2;
layers = (
{
layerId = master01;
shapes = (
{
closed = 1;
nodes = (
(869.333,137.667,o),
(865,111.333,o),
(863,80,cs),
(859.667,20.667,o),
(853.333,-31,o),
(844,-75,cs),
(836,-107,o),
(818.333,-141.667,o),
(805,-155,cs),
(802.333,-157,o),
(800.5,-158,o),
(799.5,-158,cs),
(798.5,-158,o),
(797.333,-157,o),
(796,-155,c),
(748,-46,l),
(758,-49.333,o),
(765.833,-52.5,o),
(771.5,-55.5,cs),
(777.167,-58.5,o),
(780.667,-60,o),
(782,-60,cs),
(782.667,-60,o),
(783.333,-57.333,o),
(784,-52,cs),
(797.333,6.667,o),
(799,34,o),
(803,118,cs),
(804.333,162,o),
(800,195.333,o),
(772,226,c),
(783,238,l),
(876,159,l),
(876,159,l)
);
},
{
closed = 1;
nodes = (
(790.333,-82.667,o),
(780.667,-83,o),
(768,-83,cs),
(598,-91.667,o),
(433,-102,o),
(273,-114,cs),
(239.667,-116.667,o),
(218.667,-121.333,o),
(210,-128,cs),
(179,-151,ls),
(174.333,-154.333,o),
(171,-154.333,o),
(169,-151,cs),
(124,-88,ls),
(121.333,-84,o),
(121.333,-80.667,o),
(124,-78,cs),
(142.667,-63.333,o),
(159,-31,o),
(159,13,cs),
(159,45,o),
(156.667,83.333,o),
(154,106,cs),
(147.333,155.333,o),
(134,185.667,o),
(110,211,c),
(120,224,l),
(221,156,l),
(216.333,136,o),
(214,108,o),
(214,72,cs),
(214,45.333,o),
(215,4.333,o),
(217,-51,cs),
(217,-63,o),
(218.667,-66,o),
(228,-66,cs),
(313.333,-62,o),
(421.333,-54.667,o),
(552,-44,cs),
(607,-40,ls),
(675,-33.333,o),
(705,-29.667,o),
(737,-11,cs),
(739.667,-9.667,o),
(742.667,-10,o),
(746,-12,cs),
(803,-45,l),
(797,-82,l),
(797,-82,l)
);
},
{
closed = 1;
nodes = (
(840.333,547.667,o),
(836,521.333,o),
(834,490,cs),
(830.667,430.667,o),
(824.333,379,o),
(815,335,cs),
(807,303,o),
(789.333,268.333,o),
(776,255,cs),
(773.333,253,o),
(771.5,252,o),
(770.5,252,cs),
(769.5,252,o),
(768.333,253,o),
(767,255,c),
(719,364,l),
(729,360.667,o),
(736.833,357.5,o),
(742.5,354.5,cs),
(748.167,351.5,o),
(751.667,350,o),
(753,350,cs),
(753.667,350,o),
(754.333,352.667,o),
(755,358,cs),
(768.333,416.667,o),
(770,444,o),
(774,528,cs),
(775.333,572,o),
(771,605.333,o),
(743,636,c),
(754,648,l),
(847,569,l),
(847,569,l)
);
},
{
closed = 1;
nodes = (
(574.667,299,o),
(429.333,289.667,o),
(312,281,cs),
(278.667,278.333,o),
(257.667,273.667,o),
(249,267,cs),
(218,244,ls),
(213.333,240.667,o),
(210,240.667,o),
(208,244,cs),
(163,307,ls),
(160.333,311,o),
(160.333,314.333,o),
(163,317,cs),
(181.667,331.667,o),
(198,364,o),
(198,408,cs),
(198,440,o),
(195.667,478.333,o),
(193,501,cs),
(186.333,549,o),
(174.333,580.667,o),
(149,606,c),
(159,619,l),
(260,551,l),
(255.333,531,o),
(253,503,o),
(253,467,cs),
(253,440.333,o),
(254,399.333,o),
(256,344,cs),
(256,332,o),
(257.667,329,o),
(267,329,cs),
(361,333.667,o),
(466,340.333,o),
(582,349,cs),
(640.667,354.333,o),
(678.667,363.333,o),
(712,382,cs),
(714.667,383.333,o),
(717.667,383,o),
(721,381,cs),
(778,348,l),
(772,311,l),
(748,309,l),
(748,309,l)
);
},
{
closed = 1;
nodes = (
(470,555.333,o),
(469.667,622.333,o),
(469,641,cs),
(467.667,678.333,o),
(454.333,726.333,o),
(429,757,c),
(440,769,l),
(542,687,l),
(535.333,658.333,o),
(532,624,o),
(532,584,cs),
(531,-71,l),
(469,-78,l),
(470,440,l),
(470,440,l)
);
}
);
width = 1000;
}
);
unicode = 101282;
}
{
glyphname = u18BA4;
layers = (
{
layerId = master01;
shapes = (
{
closed = 1;
nodes = (
(637.667,291.667,o),
(672.667,306.667,o),
(696,330,cs),
(700,334,o),
(703.667,334,o),
(707,330,cs),
(769,268,ls),
(773,264.667,o),
(773,261,o),
(769,257,cs),
(749,239,ls),
(741.667,232.333,o),
(735.333,225.667,o),
(730,219,cs),
(600.667,32.333,o),
(387.333,-102.333,o),
(86,-165,c),
(77,-134,l),
(351.667,-60.667,o),
(546.333,70.667,o),
(649,224,cs),
(652.333,229.333,o),
(654,233.333,o),
(654,236,cs),
(654,240,o),
(649.333,241.333,o),
(640,240,cs),
(513,224,ls),
(471.667,219.333,o),
(425,213.667,o),
(373,207,cs),
(337,203.667,o),
(296.333,196,o),
(251,184,c),
(171,238,l),
(176,251,l),
(210,250,ls),
(251.333,250,o),
(301.333,253.667,o),
(316,255,cs),
(336,257,ls),
(402.667,262.333,o),
(487.667,271.667,o),
(591,285,cs)
);
},
{
closed = 1;
nodes = (
(477.667,302.667,o),
(478,374.333,o),
(478,469,cs),
(478,541.667,o),
(477.333,593.667,o),
(476,625,cs),
(474.667,666.333,o),
(462.333,713,o),
(433,745,c),
(444,757,l),
(544,672,l),
(537.333,643.333,o),
(534,609,o),
(534,569,cs),
(534,261,l),
(477,254,l),
(477,254,l)
);
},
{
closed = 1;
nodes = (
(661.667,483.667,o),
(798.667,392,o),
(920,296,cs),
(924,293.333,o),
(926,290,o),
(926,286,cs),
(926,188,l),
(913,183,l),
(807.667,304.333,o),
(639,447,o),
(495,547,c),
(509,571,l),
(509,571,l)
);
},
{
closed = 1;
nodes = (
(651,540.667,o),
(702.667,585.667,o),
(732,623,cs),
(746.667,641.667,o),
(754.667,662.333,o),
(760,697,c),
(776,700,l),
(813,594,l),
(795.667,587.333,o),
(776.667,577.333,o),
(756,564,cs),
(712.667,536.667,o),
(667,511.333,o),
(619,488,c),
(591,502,l),
(591,502,l)
);
},
{
closed = 1;
nodes = (
(328,554.667,o),
(362,569,o),
(384,591,cs),
(387.333,594.333,o),
(390.333,594.333,o),
(393,591,cs),
(441,536,l),
(444.333,533.333,o),
(444.333,530.333,o),
(441,527,cs),
(438.333,525,o),
(433,521.5,o),
(425,516.5,cs),
(417,511.5,o),
(408.667,503,o),
(400,491,cs),
(304,359,o),
(199,268.333,o),
(47,191,c),
(35,214,l),
(169.667,300.667,o),
(252.667,385.667,o),
(330,499,cs),
(334.667,505.667,o),
(333.667,508.667,o),
(327,508,cs),
(300.333,505.333,o),
(276.667,502.333,o),
(256,499,cs),
(232.667,495.667,o),
(208,490,o),
(182,482,c),
(121,528,l),
(125,540,l),
(151.667,538.667,o),
(169,538,o),
(177,538,cs),
(193.667,538,o),
(211.333,539,o),
(230,541,cs),
(282,548,l),
(282,548,l)
);
}
);
width = 1000;
}
);
unicode = 101284;
}
{
glyphname = u18BA5;
layers = (
{
layerId = master01;
shapes = (
{
closed = 1;
nodes = (
(841,-68,q),
(843,-72,o),
(842,-79,q),
(822,-166,l),
(808,-167,l),
(719,-39,o),
(557,90,q),
(575,113,l),
(747,9,o)
);
},
{
closed = 1;
nodes = (
(410,79,o),
(466,303,o),
(466,495,q),
(466,573,o),
(465,616,q),
(463,710,o),
(421,757,q),
(432,769,l),
(543,683,l),
(534,653,o),
(534,612,q),
(534,544,l),
(534,318,o),
(474,61,o),
(280,-113,o),
(78,-169,q),
(66,-139,l),
(240,-78,o)
);
},
{
closed = 1;
nodes = (
(237,120,q),
(160,175,l),
(165,188,l),
(209,184,o),
(254,184,q),
(288,184,o),
(323,187,q),
(401,191,o),
(522,202,q),
(535,203,o),
(585,207,q),
(632,211,o),
(689,224,o),
(713,238,q),
(718,240,o),
(722,237,q),
(814,187,l),
(811,172,l),
(712,166,o),
(458,147,q),
(464,148,o),
(358,139,q),
(300,133,o)
);
},
{
closed = 1;
nodes = (
(832,342,o),
(920,273,q),
(926,269,o),
(926,263,q),
(926,165,l),
(913,160,l),
(834,251,o),
(603,449,o),
(495,524,q),
(509,548,l),
(614,488,o)
);
},
{
closed = 1;
nodes = (
(711,592,o),
(731,621,q),
(742,636,o),
(754,669,o),
(756,696,q),
(772,700,l),
(814,592,l),
(787,579,o),
(758,559,q),
(696,515,o),
(614,472,q),
(586,489,l),
(633,521,o)
);
},
{
closed = 1;
nodes = (
(384,591,q),
(389,596,o),
(393,591,q),
(441,536,l),
(446,532,o),
(441,527,q),
(437,524,o),
(413,509,o),
(400,491,q),
(323,382,o),
(161,231,o),
(50,171,q),
(35,194,l),
(137,264,o),
(275,409,o),
(330,499,q),
(337,509,o),
(327,508,q),
(287,504,o),
(256,499,q),
(221,494,o),
(182,482,q),
(121,528,l),
(125,540,l),
(165,538,o),
(177,538,q),
(202,538,o),
(230,541,q),
(282,548,l),
(351,558,o)
);
}
);
width = 1000;
}
);
unicode = 101285;
}
{
glyphname = u18BA6;
layers = (
{
layerId = master01;
shapes = (
{
closed = 1;
nodes = (
(144,106,o),
(114,72,q),
(98,73,l),
(72,170,l),
(71,172,o),
(71,175,q),
(71,183,o),
(77,184,q),
(99,194,o),
(120,211,q),
(148,230,o),
(234,353,o),
(252,407,q),
(263,438,o),
(263,509,q),
(286,511,l),
(298,433,o),
(298,404,q),
(298,383,o),
(290,355,o),
(278,326,o),
(275,319,q),
(256,275,o)
);
},
{
closed = 1;
nodes = (
(452,727,o),
(431,750,q),
(442,762,l),
(551,676,l),
(545,651,o),
(540,610,o),
(540,573,q),
(540,180,o),
(550,12,q),
(551,-19,o),
(546,-53,q),
(539,-88,o),
(522,-131,o),
(510,-150,q),
(503,-160,o),
(495,-152,q),
(450,-108,o),
(333,-18,o),
(274,18,q),
(287,43,l),
(456,-29,l),
(462,-31,o),
(463,-31,q),
(473,-31,o),
(475,-12,q),
(480,34,o),
(480,194,q),
(480,315,o),
(476,571,o),
(474,615,q),
(473,648,o)
);
},
{
closed = 1;
nodes = (
(868,303,o),
(935,212,q),
(938,208,o),
(936,201,q),
(904,76,l),
(887,75,l),
(856,176,o),
(734,404,o),
(667,493,q),
(687,512,l),
(755,443,o)
);
}
);
width = 1000;
}
);
unicode = 101286;
}
{
glyphname = u18BAA;
layers = (
{
layerId = master01;
shapes = (
{
closed = 1;
nodes = (
(417,306,q),
(422,299,o),
(422,293,q),
(422,289,o),
(420,281,q),
(401,166,l),
(387,167,l),
(354,248,o),
(246,436,o),
(190,498,q),
(207,514,l),
(351,388,o)
);
},
{
closed = 1;
nodes = (
(690,406,o),
(707,467,q),
(708,471,o),
(718,508,o),
(718,527,q),
(718,539,o),
(715,551,q),
(730,557,l),
(805,450,l),
(792,437,o),
(753,387,q),
(686,299,o),
(602,202,o),
(527,135,q),
(506,155,l),
(579,229,o)
);
},
{
closed = 1;
nodes = (
(478,598,o),
(477,626,q),
(476,654,o),
(456,719,o),
(437,742,q),
(448,754,l),
(550,672,l),
(540,629,o),
(540,569,q),
(539,-32,l),
(477,-39,l),
(478,439,l)
);
},
{
closed = 1;
nodes = (
(420,-67,o),
(262,-79,q),
(212,-83,o),
(199,-93,q),
(168,-116,l),
(161,-121,o),
(158,-116,q),
(113,-53,l),
(109,-47,o),
(113,-43,q),
(148,-16,o),
(148,48,q),
(147,76,o),
(141,175,o),
(137,220,q),
(135,246,o),
(105,309,o),
(84,329,q),
(95,342,l),
(206,266,l),
(202,238,o),
(202,210,q),
(202,189,o),
(203,177,q),
(207,85,l),
(209,15,o),
(211,-16,q),
(212,-25,o),
(216,-31,o),
(222,-31,q),
(368,-24,o),
(629,-2,q),
(680,3,o),
(735,13,o),
(759,27,q),
(763,29,o),
(768,26,q),
(826,-10,l),
(819,-44,l),
(648,-53,o)
);
},
{
closed = 1;
nodes = (
(889,202,q),
(882,124,o),
(864,13,o),
(850,-47,q),
(843,-72,o),
(820,-117,o),
(809,-126,q),
(803,-132,o),
(800,-126,q),
(754,-16,l),
(791,-23,l),
(809,50,o),
(824,164,o),
(829,242,q),
(831,269,o),
(815,330,o),
(797,356,q),
(811,368,l),
(902,281,l),
(892,240,o)
);
}
);
width = 1000;
}
);
unicode = 101290;
}
{
glyphname = u18BAB;
layers = (
{
layerId = master01;
shapes = (
{
closed = 1;
nodes = (
(467,589.667,o),
(466.667,627,o),
(466,639,cs),
(464.667,676.333,o),
(451.333,724.333,o),
(426,755,c),
(437,767,l),
(539,685,l),
(532.333,656.333,o),
(529,622,o),
(529,582,cs),
(529,353,l),
(467,349,l),
(467,527,l),
(467,527,l)
);
},
{
closed = 1;
nodes = (
(274.333,620,o),
(329.333,573.667,o),
(370,533,cs),
(373.333,529.667,o),
(375,525,o),
(375,519,cs),
(375,515,o),
(374.667,511.667,o),
(374,509,cs),
(359,410,l),
(344,410,l),
(310.667,486,o),
(244.333,592.333,o),
(187,655,c),
(205,672,l),
(205,672,l)
);
},
{
closed = 1;
nodes = (
(639.667,517,o),
(700,589,o),
(724,641,cs),
(738,672.333,o),
(744,700,o),
(742,724,c),
(757,728,l),
(814,627,l),
(757,568,ls),
(707.667,519.333,o),
(649.667,473.667,o),
(583,431,c),
(565,453,l),
(565,453,l)
);
},
{
closed = 1;
nodes = (
(379.333,363.667,o),
(717.667,392.333,o),
(759,399,cs),
(799,404.333,o),
(824,417.667,o),
(848,443,cs),
(851.333,446.333,o),
(854.667,446.333,o),
(858,443,cs),
(916,384,ls),
(919.333,381.333,o),
(919.333,378.333,o),
(916,375,cs),
(891,352,ls),
(883,345.333,o),
(881,343,o),
(881,335,cs),
(881,117.667,o),
(873.333,25.333,o),
(844,-80,cs),
(834.667,-114.667,o),
(825.667,-137.667,o),
(811,-151,cs),
(809,-153,o),
(807,-154,o),
(805,-154,cs),
(803.667,-154,o),
(800.667,-152.333,o),
(796,-149,cs),
(733.333,-98.333,o),
(659,-50.333,o),
(573,-5,c),
(585,17,l),
(772,-58,ls),
(773.333,-58.667,o),
(775.333,-59,o),
(778,-59,cs),
(782,-59,o),
(785,-55.667,o),
(787,-49,cs),
(808.333,22.333,o),
(819,128.667,o),
(819,270,cs),
(819,302.667,o),
(818.667,327,o),
(818,343,cs),
(818,352.333,o),
(814.667,355.333,o),
(808,354,cs),
(761.333,349.333,o),
(716.833,345.333,o),
(674.5,342,cs),
(632.167,338.667,o),
(594,335.333,o),
(560,332,cs),
(357.333,314,o),
(231.333,302.333,o),
(182,297,c),
(178,349,l),
(178,349,l)
);
},
{
closed = 1;
nodes = (
(208.667,314,o),
(206,279.667,o),
(206,239,cs),
(206,-137,l),
(192,-143,l),
(129,-75,ls),
(127,-73,o),
(127,-70,o),
(129,-66,cs),
(139,-45.333,o),
(144,-23.667,o),
(144,-1,cs),
(144,12.333,o),
(144.333,22.333,o),
(145,29,cs),
(146,148,l),
(145,268,ls),
(144.333,274,o),
(144,283.333,o),
(144,296,cs),
(142.667,338.667,o),
(130,391,o),
(102,423,c),
(112,435,l),
(214,342,l),
(214,342,l)
);
},
{
closed = 1;
nodes = (
(453.667,223.667,o),
(574,192.333,o),
(650,163,cs),
(654.667,161.667,o),
(657.333,159,o),
(658,155,c),
(684,72,l),
(671,59,l),
(553.667,131,o),
(474.333,171.667,o),
(333,221,c),
(339,245,l),
(339,245,l)
);
}
);
width = 1000;
}
);
unicode = 101291;
}
{
glyphname = u18BAC;
layers = (
{
layerId = master01;
shapes = (
{
closed = 1;
nodes = (
(470,641,q),
(469,669,o),
(450,733,o),
(431,757,q),
(442,769,l),
(541,687,l),
(531,644,o),
(531,584,q),
(531,452,l),
(471,447,l),
(471,614,o)
);
},
{
closed = 1;
nodes = (
(367,582,q),
(375,576,o),
(375,558,q),
(373,474,l),
(358,471,l),
(331,518,o),
(233,638,o),
(187,679,q),
(202,698,l),
(269,657,o)
);
},
{
closed = 1;
nodes = (
(695,620,o),
(715,662,q),
(736,709,o),
(733,745,q),
(748,749,l),
(805,648,l),
(780,628,o),
(748,596,q),
(702,551,o),
(616,477,o),
(563,443,q),
(546,462,l),
(605,511,o)
);
},
{
closed = 1;
nodes = (
(107,375,q),
(29,431,l),
(34,444,l),
(82,441,o),
(120,441,q),
(146,441,o),
(194,443,q),
(498,463,o),
(744,489,q),
(796,495,o),
(850,506,o),
(874,520,q),
(878,522,o),
(883,519,q),
(976,468,l),
(973,453,l),
(575,427,o),
(230,394,q),
(169,389,o)
);
},
{
closed = 1;
nodes = (
(405,333,q),
(384,315,l),
(229,187,o),
(45,98,q),
(30,126,l),
(137,183,o),
(312,320,o),
(352,380,q),
(370,409,o),
(376,437,q),
(407,439,l),
(437,360,l),
(418,345,o)
);
},
{
closed = 1;
nodes = (
(647,125,q),
(654,123,o),
(655,117,q),
(681,40,l),
(670,27,l),
(596,68,o),
(473,122,o),
(382,150,q),
(387,174,l),
(565,153,o)
);
},
{
closed = 1;
nodes = (
(709,306,q),
(780,320,o),
(814,354,q),
(819,359,o),
(824,354,q),
(880,291,l),
(885,287,o),
(880,282,q),
(855,259,l),
(848,253,o),
(846,249,o),
(845,242,q),
(839,165,l),
(831,51,o),
(822,-46,o),
(813,-86,q),
(808,-109,o),
(785,-155,o),
(773,-166,q),
(770,-169,o),
(767,-169,q),
(763,-169,o),
(758,-164,q),
(716,-126,o),
(609,-59,o),
(532,-22,q),
(541,-1,l),
(734,-64,l),
(742,-66,l),
(750,-66,o),
(753,-53,q),
(771,32,o),
(782,249,q),
(782,256,o),
(777,261,o),
(772,260,q),
(704,254,o),
(582,245,o),
(534,241,q),
(376,231,o),
(272,221,q),
(267,269,l),
(667,299,o)
);
},
{
closed = 1;
nodes = (
(297,169,q),
(297,-156,l),
(283,-162,l),
(222,-94,l),
(219,-91,o),
(222,-85,q),
(237,-54,o),
(237,-20,q),
(239,52,o),
(239,100,q),
(239,149,o),
(237,219,q),
(237,225,o),
(235,245,q),
(283,290,l),
(305,272,l),
(297,230,o)
);
}
);
width = 1000;
}
);
unicode = 101292;
}
{
glyphname = u18BAD;
layers = (
{
layerId = master01;
shapes = (
{
closed = 1;
nodes = (
(205,528,q),
(205,-136,l),
(191,-142,l),
(134,-76,l),
(131,-73,o),
(134,-67,q),
(149,-36,o),
(149,-2,q),
(152,169,o),
(152,291,q),
(152,414,o),
(149,583,q),
(148,615,o),
(128,686,o),
(107,710,q),
(117,722,l),
(213,631,l),
(205,589,o)
);
},
{
closed = 1;
nodes = (
(735,683,q),
(765,687,o),
(806,708,o),
(824,727,q),
(829,732,o),
(834,727,q),
(892,668,l),
(897,664,o),
(892,659,q),
(867,636,l),
(861,631,o),
(857,625,o),
(857,619,q),
(855,363,o),
(855,187,q),
(855,36,o),
(857,-4,q),
(859,-40,o),
(854,-69,q),
(848,-102,o),
(834,-138,o),
(822,-156,q),
(815,-168,o),
(809,-168,q),
(804,-168,o),
(797,-161,q),
(712,-77,o),
(581,-1,q),
(594,24,l),
(770,-55,l),
(776,-57,o),
(777,-57,q),
(787,-57,o),
(789,-38,q),
(796,50,o),
(796,627,q),
(796,634,o),
(791,639,o),
(786,638,q),
(513,615,l),
(312,600,o),
(177,587,q),
(177,639,l),
(691,676,o)
);
}
);
width = 1000;
}
);
unicode = 101293;
}
{
glyphname = u18BAE;
layers = (
{
layerId = master01;
shapes = (
{
closed = 1;
nodes = (
(205,528,q),
(205,-151,l),
(191,-157,l),
(134,-91,l),
(131,-88,o),
(134,-82,q),
(149,-51,o),
(149,-17,q),
(152,159,o),
(152,284,q),
(152,409,o),
(149,583,q),
(148,615,o),
(128,686,o),
(107,710,q),
(118,721,l),
(213,631,l),
(205,589,o)
);
},
{
closed = 1;
nodes = (
(735,683,q),
(765,687,o),
(806,708,o),
(824,727,q),
(829,732,o),
(834,727,q),
(892,668,l),
(897,664,o),
(892,659,q),
(867,636,l),
(861,631,o),
(857,625,o),
(857,619,q),
(855,363,o),
(855,187,q),
(855,36,o),
(857,-4,q),
(859,-40,o),
(854,-69,q),
(848,-102,o),
(834,-138,o),
(822,-156,q),
(815,-168,o),
(809,-168,q),
(804,-168,o),
(797,-161,q),
(712,-77,o),
(581,-1,q),
(594,24,l),
(770,-55,l),
(776,-57,o),
(777,-57,q),
(787,-57,o),
(789,-38,q),
(796,50,o),
(796,627,q),
(796,634,o),
(791,639,o),
(786,638,q),
(513,615,l),
(312,600,o),
(177,587,q),
(177,639,l),
(691,676,o)
);
},
{
closed = 1;
nodes = (
(652,248,q),
(655,244,o),
(655,237,q),
(651,137,l),
(635,131,l),
(564,224,o),
(430,365,o),
(325,453,q),
(340,474,l),
(553,340,o)
);
}
);
width = 1000;
}
);
unicode = 101294;
}
{
glyphname = u18BAF;
layers = (
{
layerId = master01;
shapes = (
{
closed = 1;
nodes = (
(205,528,q),
(205,-151,l),
(191,-157,l),
(134,-91,l),
(131,-88,o),
(134,-82,q),
(149,-51,o),
(149,-17,q),
(152,159,o),
(152,284,q),
(152,409,o),
(149,583,q),
(148,615,o),
(128,686,o),
(107,710,q),
(118,721,l),
(213,631,l),
(205,589,o)
);
},
{
closed = 1;
nodes = (
(735,683,q),
(765,687,o),
(806,708,o),
(824,727,q),
(829,732,o),
(834,727,q),
(892,668,l),
(897,664,o),
(892,659,q),
(867,636,l),
(861,631,o),
(857,625,o),
(857,619,q),
(855,363,o),
(855,187,q),
(855,36,o),
(857,-4,q),
(859,-40,o),
(854,-69,q),
(848,-102,o),
(834,-138,o),
(822,-156,q),
(815,-168,o),
(809,-168,q),
(804,-168,o),
(797,-161,q),
(712,-77,o),
(581,-1,q),
(594,24,l),
(770,-55,l),
(776,-57,o),
(777,-57,q),
(787,-57,o),
(789,-38,q),
(796,50,o),
(796,627,q),
(796,634,o),
(791,639,o),
(786,638,q),
(513,615,l),
(312,600,o),
(177,587,q),
(177,639,l),
(691,676,o)
);
},
{
closed = 1;
nodes = (
(531,375,q),
(528,192,o),
(526,-30,q),
(525,-101,l),
(513,-108,l),
(453,-38,l),
(449,-34,o),
(453,-29,q),
(466,-6,o),
(468,31,q),
(472,177,o),
(472,316,q),
(472,397,o),
(471,432,q),
(471,462,o),
(452,528,o),
(431,553,q),
(442,565,l),
(541,478,l),
(531,441,o)
);
},
{
closed = 1;
nodes = (
(323,231,q),
(247,284,l),
(252,297,l),
(296,293,o),
(341,293,q),
(376,293,o),
(410,296,q),
(484,301,o),
(511,305,q),
(556,311,o),
(614,326,o),
(639,340,q),
(644,342,o),
(648,339,q),
(740,291,l),
(737,276,l),
(620,267,o),
(534,258,q),
(445,250,l),
(390,245,o)
);
}
);
width = 1000;
}
);
unicode = 101295;
}
{
glyphname = u18BB0;
layers = (
{
layerId = master01;
shapes = (
{
closed = 1;
nodes = (
(205,528,q),
(205,-151,l),
(191,-157,l),
(134,-91,l),
(131,-88,o),
(134,-82,q),
(149,-51,o),
(149,-17,q),
(152,159,o),
(152,284,q),
(152,409,o),
(149,583,q),
(148,615,o),
(128,686,o),
(107,710,q),
(118,721,l),
(213,631,l),
(205,589,o)
);
},
{
closed = 1;
nodes = (
(735,683,q),
(765,687,o),
(806,708,o),
(824,727,q),
(829,732,o),
(834,727,q),
(892,668,l),
(897,664,o),
(892,659,q),
(867,636,l),
(861,631,o),
(857,625,o),
(857,619,q),
(855,363,o),
(855,187,q),
(855,36,o),
(857,-4,q),
(859,-40,o),
(854,-69,q),
(848,-102,o),
(834,-138,o),
(822,-156,q),
(815,-168,o),
(809,-168,q),
(804,-168,o),
(797,-161,q),
(712,-77,o),
(581,-1,q),
(594,24,l),
(770,-55,l),
(776,-57,o),
(777,-57,q),
(787,-57,o),
(789,-38,q),
(796,50,o),
(796,627,q),
(796,634,o),
(791,639,o),
(786,638,q),
(513,615,l),
(312,600,o),
(177,587,q),
(177,639,l),
(691,676,o)
);
},
{
closed = 1;
nodes = (
(335,203,q),
(260,257,l),
(265,270,l),
(325,264,o),
(371,264,q),
(389,264,o),
(423,266,q),
(447,268,o),
(457,268,q),
(514,273,o),
(524,274,q),
(593,281,o),
(635,304,q),
(640,306,o),
(644,303,q),
(735,254,l),
(732,239,l),
(650,235,o),
(558,227,q),
(457,220,l),
(409,216,o)
);
},
{
closed = 1;
nodes = (
(359,395,q),
(284,449,l),
(289,462,l),
(332,457,o),
(378,457,q),
(408,457,o),
(423,458,q),
(511,465,l),
(547,468,o),
(591,479,o),
(616,493,q),
(619,494,o),
(625,492,q),
(716,443,l),
(713,428,l),
(607,424,o),
(474,412,q),
(397,406,o)
);
},
{
closed = 1;
nodes = (
(527,74,q),
(525,-101,l),
(513,-108,l),
(453,-38,l),
(449,-34,o),
(453,-29,q),
(466,-6,o),
(468,31,q),
(470,88,o),
(472,250,q),
(529,251,l),
(527,127,o)
);
}
);
width = 1000;
}
);
unicode = 101296;
}
{
glyphname = u18BB1;
layers = (
{
layerId = master01;
shapes = (
{
closed = 1;
nodes = (
(188.667,609,o),
(186,574.667,o),
(186,534,cs),
(186,-145,l),
(172,-151,l),
(115,-85,ls),
(113,-83,o),
(113,-80,o),
(115,-76,cs),
(125,-55.333,o),
(130,-33.667,o),
(130,-11,cs),
(132,106.333,o),
(133,206.667,o),
(133,290,cs),
(133,373.333,o),
(132,473,o),
(130,589,cs),
(128.667,631.667,o),
(116,684,o),
(88,716,c),
(99,727,l),
(194,637,l),
(194,637,l)
);
},
{
closed = 1;
nodes = (
(514.667,672,o),
(709.333,687.667,o),
(744,693,cs),
(784,698.333,o),
(809,711.667,o),
(833,737,cs),
(836.333,740.333,o),
(839.667,740.333,o),
(843,737,cs),
(901,678,ls),
(904.333,675.333,o),
(904.333,672.333,o),
(901,669,cs),
(876,646,ls),
(868,639.333,o),
(866,637,o),
(866,629,cs),
(864.667,458.333,o),
(864,314.333,o),
(864,197,cs),
(864,96.333,o),
(864.667,32.667,o),
(866,6,cs),
(867.333,-18,o),
(866.333,-39.667,o),
(863,-59,cs),
(855,-103,o),
(847,-122,o),
(831,-146,cs),
(826.333,-154,o),
(822,-158,o),
(818,-158,cs),
(814.667,-158,o),
(810.667,-155.667,o),
(806,-151,cs),
(749.333,-95,o),
(677.333,-41.667,o),
(590,9,c),
(603,34,l),
(779,-45,ls),
(783,-46.333,o),
(785.333,-47,o),
(786,-47,cs),
(792.667,-47,o),
(796.667,-40.667,o),
(798,-28,cs),
(802.667,30.667,o),
(805,252.333,o),
(805,637,cs),
(805,646.333,o),
(801.667,649.333,o),
(795,648,cs),
(736.333,642,o),
(641.333,634,o),
(510,624,cs),
(337.333,610,o),
(220.667,600,o),
(160,594,c),
(160,646,l),
(160,646,l)
);
},
{
closed = 1;
nodes = (
(533.333,475.333,o),
(530,441,o),
(530,397,cs),
(528,285.667,o),
(526.333,162.333,o),
(525,27,cs),
(524.333,13.667,o),
(524,-6.667,o),
(524,-34,c),
(512,-41,l),
(457,29,ls),
(454.333,31.667,o),
(454.333,34.667,o),
(457,38,c),
(465.667,53.333,o),
(470.667,73.333,o),
(472,98,cs),
(474.667,183.333,o),
(476,267.667,o),
(476,351,cs),
(476,399,o),
(475.667,433.333,o),
(475,454,cs),
(475,494,o),
(463,541.667,o),
(435,575,c),
(446,587,l),
(540,500,l),
(540,500,l)
);
},
{
closed = 1;
nodes = (
(398.333,356.667,o),
(357.667,350.333,o),
(313,341,c),
(237,391,l),
(242,404,l),
(271.333,401.333,o),
(301,400,o),
(331,400,cs),
(354.333,400,o),
(377.333,401,o),
(400,403,cs),
(459.333,407.667,o),
(501.333,411.667,o),
(526,415,cs),
(586,423,o),
(620.667,431.333,o),
(654,450,cs),
(657.333,451.333,o),
(660.333,451,o),
(663,449,c),
(755,404,l),
(752,389,l),
(689.333,384.333,o),
(617.667,378,o),
(537,370,cs),
(463.667,362.667,o),
(429.667,359.333,o),
(435,360,cs)
);
},
{
closed = 1;
nodes = (
(425.667,218,o),
(335.667,122,o),
(231,46,c),
(212,67,l),
(315.333,161,o),
(400.333,266,o),
(467,382,c),
(501,334,l),
(501,334,l)
);
},
{
closed = 1;
nodes = (
(584.333,265.333,o),
(654,237.333,o),
(716,208,cs),
(722,205.333,o),
(725,201.667,o),
(725,197,cs),
(729,108,l),
(717,100,l),
(645,170.667,o),
(585.333,221.333,o),
(500,272,c),
(507,292,l),
(507,292,l)
);
}
);
width = 1000;
}
);
unicode = 101297;
}
{
glyphname = u18BB2;
layers = (
{
layerId = master01;
shapes = (
{
closed = 1;
nodes = (
(186,534,q),
(186,-145,l),
(172,-151,l),
(115,-85,l),
(112,-82,o),
(115,-76,q),
(130,-45,o),
(130,-11,q),
(133,165,o),
(133,290,q),
(133,415,o),
(130,589,q),
(129,621,o),
(109,692,o),
(88,716,q),
(99,727,l),
(194,637,l),
(186,595,o)
);
},
{
closed = 1;
nodes = (
(744,693,q),
(774,697,o),
(815,718,o),
(833,737,q),
(838,742,o),
(843,737,q),
(901,678,l),
(906,674,o),
(901,669,q),
(876,646,l),
(870,641,o),
(866,635,o),
(866,629,q),
(864,373,o),
(864,197,q),
(864,46,o),
(866,6,q),
(868,-30,o),
(863,-59,q),
(857,-92,o),
(843,-128,o),
(831,-146,q),
(824,-158,o),
(818,-158,q),
(813,-158,o),
(806,-151,q),
(739,-85,o),
(615,-16,q),
(628,9,l),
(779,-48,l),
(782,-49,o),
(786,-49,q),
(796,-49,o),
(798,-31,q),
(805,57,o),
(805,637,q),
(805,644,o),
(800,649,o),
(795,648,q),
(707,639,o),
(510,624,q),
(251,603,o),
(160,594,q),
(160,646,l),
(692,685,o)
);
},
{
closed = 1;
nodes = (
(692,422,q),
(699,418,o),
(701,412,q),
(718,326,l),
(701,314,l),
(662,356,o),
(535,454,o),
(472,491,q),
(482,513,l),
(581,481,o)
);
},
{
closed = 1;
nodes = (
(655,170,o),
(695,149,q),
(702,145,o),
(704,139,q),
(721,53,l),
(704,41,l),
(665,81,o),
(543,173,o),
(482,208,q),
(492,230,l),
(544,215,o)
);
},
{
closed = 1;
nodes = (
(409,146,o),
(458,236,o),
(464,271,q),
(467,285,o),
(467,306,q),
(467,340,o),
(455,365,q),
(468,373,l),
(550,290,l),
(541,278,o),
(522,238,q),
(513,219,l),
(475,145,o),
(360,33,o),
(256,-8,q),
(243,18,l),
(314,53,o)
);
},
{
closed = 1;
nodes = (
(517,517,o),
(513,510,q),
(475,436,o),
(358,324,o),
(255,283,q),
(242,309,l),
(339,356,o),
(444,489,o),
(464,562,q),
(468,578,o),
(468,593,q),
(468,618,o),
(459,645,q),
(484,646,l),
(551,576,l),
(541,565,o)
);
}
);
width = 1000;
}
);
unicode = 101298;
}
{
glyphname = u18BB3;
layers = (
{
layerId = master01;
shapes = (
{
closed = 1;
nodes = (
(187,534,q),
(187,-145,l),
(173,-151,l),
(112,-85,l),
(109,-82,o),
(112,-76,q),
(127,-45,o),
(127,-11,q),
(130,165,o),
(130,290,q),
(130,415,o),
(127,589,q),
(126,621,o),
(106,692,o),
(85,716,q),
(96,727,l),
(195,637,l),
(187,595,o)
);
},
{
closed = 1;
nodes = (
(744,693,q),
(774,697,o),
(815,718,o),
(833,737,q),
(838,742,o),
(843,737,q),
(901,678,l),
(906,674,o),
(901,669,q),
(876,646,l),
(870,641,o),
(866,635,o),
(866,629,q),
(864,373,o),
(864,197,q),
(864,46,o),
(866,6,q),
(868,-30,o),
(863,-59,q),
(857,-92,o),
(843,-128,o),
(831,-146,q),
(824,-158,o),
(819,-158,q),
(814,-158,o),
(806,-151,q),
(725,-92,o),
(559,-14,q),
(569,12,l),
(779,-48,l),
(781,-49,o),
(786,-49,q),
(796,-49,o),
(798,-31,q),
(805,57,o),
(805,637,q),
(805,644,o),
(800,649,o),
(795,648,q),
(707,639,o),
(510,624,q),
(251,603,o),
(160,594,q),
(160,646,l),
(692,685,o)
);
},
{
closed = 1;
nodes = (
(582,194,o),
(642,164,q),
(655,157,o),
(656,147,q),
(665,53,l),
(651,48,l),
(609,86,o),
(474,174,o),
(334,242,o),
(286,251,q),
(289,289,l),
(302,287,o),
(337,301,o),
(350,312,q),
(389,347,o),
(467,437,o),
(483,465,q),
(507,506,o),
(507,547,q),
(507,562,o),
(505,570,q),
(522,575,l),
(575,459,l),
(555,443,o),
(499,387,q),
(449,337,o),
(370,269,q),
(456,242,o)
);
}
);
width = 1000;
}
);
unicode = 101299;
}
{
glyphname = u18BB4;
layers = (
{
layerId = master01;
shapes = (
{
closed = 1;
nodes = (
(744,693,q),
(774,697,o),
(815,718,o),
(833,737,q),
(838,742,o),
(843,737,q),
(901,678,l),
(906,674,o),
(901,669,q),
(876,646,l),
(870,641,o),
(866,635,o),
(866,629,q),
(864,373,o),
(864,197,q),
(864,46,o),
(866,6,q),
(868,-30,o),
(863,-59,q),
(857,-92,o),
(843,-128,o),
(831,-146,q),
(824,-158,o),
(819,-158,q),
(814,-158,o),
(806,-151,q),
(729,-83,o),
(618,-17,q),
(630,8,l),
(779,-48,l),
(782,-49,o),
(786,-49,q),
(796,-49,o),
(798,-31,q),
(805,57,o),
(805,637,q),
(805,644,o),
(800,649,o),
(795,648,q),
(707,639,o),
(510,624,q),
(251,603,o),
(160,594,q),
(160,646,l),
(692,685,o)
);
},
{
closed = 1;
nodes = (
(187,534,q),
(187,-145,l),
(173,-151,l),
(112,-85,l),
(109,-82,o),
(112,-76,q),
(127,-45,o),
(127,-11,q),
(130,165,o),
(130,290,q),
(130,415,o),
(127,589,q),
(126,621,o),
(106,692,o),
(85,716,q),
(96,727,l),
(195,637,l),
(187,595,o)
);
},
{
closed = 1;
nodes = (
(738,173,q),
(742,169,o),
(740,158,q),
(719,58,l),
(701,54,l),
(638,210,o),
(546,344,q),
(565,358,l),
(665,260,o)
);
},
{
closed = 1;
nodes = (
(295,87,q),
(289,85,o),
(285,91,q),
(242,152,l),
(240,154,o),
(240,157,q),
(240,163,o),
(246,164,q),
(274,169,o),
(306,185,o),
(320,200,q),
(353,236,o),
(441,389,o),
(459,433,q),
(477,478,o),
(477,516,q),
(477,531,o),
(474,544,q),
(491,552,l),
(560,444,l),
(544,430,o),
(522,398,q),
(428,259,o),
(345,158,q),
(668,207,l),
(679,174,l),
(360,106,l),
(318,97,o)
);
}
);
width = 1000;
}
);
unicode = 101300;
}
{
glyphname = u18BB7;
layers = (
{
layerId = master01;
shapes = (
{
closed = 1;
nodes = (
(684,678,q),
(714,682,o),
(755,703,o),
(773,722,q),
(778,727,o),
(783,722,q),
(841,663,l),
(846,659,o),
(841,654,q),
(816,631,l),
(810,626,o),
(806,620,o),
(806,614,q),
(804,364,o),
(804,195,q),
(804,48,o),
(806,9,q),
(808,-27,o),
(803,-56,q),
(797,-88,o),
(783,-122,o),
(771,-141,q),
(764,-153,o),
(759,-153,q),
(754,-153,o),
(746,-146,q),
(647,-59,o),
(574,-6,q),
(588,18,l),
(657,-18,o),
(719,-45,q),
(725,-47,o),
(726,-47,q),
(736,-47,o),
(738,-28,q),
(745,58,o),
(745,622,q),
(745,629,o),
(740,634,o),
(735,633,q),
(648,625,o),
(496,613,o),
(439,608,q),
(339,601,o),
(224,591,q),
(222,640,l),
(638,671,o)
);
},
{
closed = 1;
nodes = (
(258,530,q),
(258,-149,l),
(244,-155,l),
(183,-89,l),
(180,-86,o),
(183,-80,q),
(198,-49,o),
(198,-15,q),
(201,161,o),
(201,286,q),
(201,411,o),
(198,585,q),
(197,617,o),
(177,688,o),
(156,712,q),
(167,723,l),
(266,633,l),
(258,591,o)
);
},
{
closed = 1;
nodes = (
(106,226,q),
(29,284,l),
(34,297,l),
(80,292,o),
(133,292,q),
(154,292,o),
(194,294,q),
(513,310,o),
(745,331,q),
(796,336,o),
(851,346,o),
(875,360,q),
(879,362,o),
(884,359,q),
(976,306,l),
(973,291,l),
(588,272,o),
(229,243,q),
(174,240,o)
);
},
{
closed = 1;
nodes = (
(531,375,q),
(528,192,o),
(526,-30,q),
(525,-101,l),
(513,-108,l),
(453,-38,l),
(449,-34,o),
(453,-29,q),
(466,-6,o),
(468,31,q),
(472,177,o),
(472,316,q),
(472,397,o),
(471,432,q),
(471,462,o),
(452,528,o),
(431,553,q),
(442,565,l),
(541,478,l),
(531,441,o)
);
}
);
width = 1000;
}
);
unicode = 101303;
}
